M48
; DRILL file {KiCad 7.0.7} date Mon Nov 20 01:19:12 2023
; FORMAT={-:-/ absolute / metric / decimal}
; #@! TF.CreationDate,2023-11-20T01:19:12+00:00
; #@! TF.GenerationSoftware,Kicad,Pcbnew,7.0.7
; #@! TF.FileFunction,Plated,1,2,PTH
FMAT,2
METRIC
; #@! TA.AperFunction,Plated,PTH,ViaDrill
T1C0.400
; #@! TA.AperFunction,Plated,PTH,ComponentDrill
T2C0.800
; #@! TA.AperFunction,Plated,PTH,ComponentDrill
T3C1.000
%
G90
G05
T1
X113.262Y-65.88
X114.54Y-67.536
X124.707Y-65.874
X142.351Y-46.381
T2
X112.0Y-48.38
X112.0Y-56.0
X112.0Y-62.38
X112.0Y-70.0
X114.54Y-48.38
X114.54Y-56.0
X114.54Y-62.38
X114.54Y-70.0
X117.08Y-48.38
X117.08Y-56.0
X117.08Y-62.38
X117.08Y-70.0
X119.62Y-48.38
X119.62Y-56.0
X119.62Y-62.38
X119.62Y-70.0
X122.16Y-48.38
X122.16Y-56.0
X122.16Y-62.38
X122.16Y-70.0
X122.189Y-75.914
X124.7Y-48.38
X124.7Y-56.0
X124.7Y-62.38
X124.7Y-70.0
X124.729Y-75.914
X127.24Y-48.38
X127.24Y-56.0
X127.24Y-62.38
X127.24Y-70.0
X127.269Y-75.914
X130.447Y-50.944
X130.447Y-53.444
X130.624Y-64.835
X130.624Y-67.335
X133.1Y-76.0
X136.0Y-48.38
X136.0Y-56.0
X136.0Y-62.38
X136.0Y-70.0
X138.54Y-48.38
X138.54Y-56.0
X138.54Y-62.38
X138.54Y-70.0
X140.72Y-76.0
X141.08Y-48.38
X141.08Y-56.0
X141.08Y-62.38
X141.08Y-70.0
X143.62Y-48.38
X143.62Y-56.0
X143.62Y-62.38
X143.62Y-70.0
X145.133Y-74.695
X145.133Y-77.195
X146.16Y-48.38
X146.16Y-56.0
X146.16Y-62.38
X146.16Y-70.0
X148.7Y-48.38
X148.7Y-56.0
X148.7Y-62.38
X148.7Y-70.0
X149.422Y-76.0
X151.24Y-48.38
X151.24Y-56.0
X151.24Y-62.38
X151.24Y-70.0
X157.042Y-76.0
X157.05Y-48.474
X157.05Y-61.174
T3
X111.489Y-75.813
X116.972Y-75.963
T0
M30
