G04 #@! TF.GenerationSoftware,KiCad,Pcbnew,7.0.7*
G04 #@! TF.CreationDate,2023-11-20T01:19:09+00:00*
G04 #@! TF.ProjectId,N2Graphics,4e324772-6170-4686-9963-732e6b696361,1.0*
G04 #@! TF.SameCoordinates,Original*
G04 #@! TF.FileFunction,Copper,L1,Top*
G04 #@! TF.FilePolarity,Positive*
%FSLAX46Y46*%
G04 Gerber Fmt 4.6, Leading zero omitted, Abs format (unit mm)*
G04 Created by KiCad (PCBNEW 7.0.7) date 2023-11-20 01:19:09*
%MOMM*%
%LPD*%
G01*
G04 APERTURE LIST*
G04 #@! TA.AperFunction,ComponentPad*
%ADD10C,2.000000*%
G04 #@! TD*
G04 #@! TA.AperFunction,ComponentPad*
%ADD11R,1.500000X1.500000*%
G04 #@! TD*
G04 #@! TA.AperFunction,ComponentPad*
%ADD12C,1.500000*%
G04 #@! TD*
G04 #@! TA.AperFunction,ComponentPad*
%ADD13R,1.600000X1.600000*%
G04 #@! TD*
G04 #@! TA.AperFunction,ComponentPad*
%ADD14O,1.600000X1.600000*%
G04 #@! TD*
G04 #@! TA.AperFunction,ComponentPad*
%ADD15C,1.600000*%
G04 #@! TD*
G04 #@! TA.AperFunction,ViaPad*
%ADD16C,1.000000*%
G04 #@! TD*
G04 #@! TA.AperFunction,Conductor*
%ADD17C,0.500000*%
G04 #@! TD*
G04 #@! TA.AperFunction,Conductor*
%ADD18C,0.250000*%
G04 #@! TD*
G04 APERTURE END LIST*
D10*
X111488750Y-75813352D03*
D11*
X127268962Y-75914216D03*
D12*
X124728962Y-75914216D03*
X122188962Y-75914216D03*
D13*
X136000000Y-56000000D03*
D14*
X138540000Y-56000000D03*
X141080000Y-56000000D03*
X143620000Y-56000000D03*
X146160000Y-56000000D03*
X148700000Y-56000000D03*
X151240000Y-56000000D03*
X151240000Y-48380000D03*
X148700000Y-48380000D03*
X146160000Y-48380000D03*
X143620000Y-48380000D03*
X141080000Y-48380000D03*
X138540000Y-48380000D03*
X136000000Y-48380000D03*
D10*
X116971788Y-75962828D03*
D13*
X140719794Y-76000000D03*
D14*
X133099794Y-76000000D03*
D15*
X130447432Y-50944283D03*
X130447432Y-53444283D03*
D13*
X112000000Y-56000000D03*
D14*
X114540000Y-56000000D03*
X117080000Y-56000000D03*
X119620000Y-56000000D03*
X122160000Y-56000000D03*
X124700000Y-56000000D03*
X127240000Y-56000000D03*
X127240000Y-48380000D03*
X124700000Y-48380000D03*
X122160000Y-48380000D03*
X119620000Y-48380000D03*
X117080000Y-48380000D03*
X114540000Y-48380000D03*
X112000000Y-48380000D03*
D15*
X130623978Y-64834547D03*
X130623978Y-67334547D03*
D13*
X112000000Y-70000000D03*
D14*
X114540000Y-70000000D03*
X117080000Y-70000000D03*
X119620000Y-70000000D03*
X122160000Y-70000000D03*
X124700000Y-70000000D03*
X127240000Y-70000000D03*
X127240000Y-62380000D03*
X124700000Y-62380000D03*
X122160000Y-62380000D03*
X119620000Y-62380000D03*
X117080000Y-62380000D03*
X114540000Y-62380000D03*
X112000000Y-62380000D03*
D13*
X157042130Y-76000000D03*
D14*
X149422130Y-76000000D03*
D15*
X145133336Y-77194891D03*
X145133336Y-74694891D03*
D13*
X136000000Y-70000000D03*
D14*
X138540000Y-70000000D03*
X141080000Y-70000000D03*
X143620000Y-70000000D03*
X146160000Y-70000000D03*
X148700000Y-70000000D03*
X151240000Y-70000000D03*
X151240000Y-62380000D03*
X148700000Y-62380000D03*
X146160000Y-62380000D03*
X143620000Y-62380000D03*
X141080000Y-62380000D03*
X138540000Y-62380000D03*
X136000000Y-62380000D03*
D15*
X157050096Y-48473501D03*
D14*
X157050096Y-61173501D03*
D16*
X113261555Y-65880442D03*
X124706940Y-65873647D03*
X114540333Y-67535998D03*
X142350534Y-46380762D03*
D17*
X136000000Y-62380000D02*
X133858276Y-64521724D01*
X114344953Y-50724953D02*
X112000000Y-48380000D01*
X136000000Y-50654819D02*
X136000000Y-48380000D01*
X154798644Y-50724953D02*
X157050096Y-48473501D01*
X135929866Y-50724953D02*
X154798644Y-50724953D01*
X133858276Y-64521724D02*
X114141724Y-64521724D01*
X114141724Y-64521724D02*
X112000000Y-62380000D01*
X114344953Y-50724953D02*
X135929866Y-50724953D01*
X135929866Y-50724953D02*
X136000000Y-50654819D01*
X151240000Y-70000000D02*
X148987343Y-67747343D01*
X129519589Y-53720411D02*
X127240000Y-56000000D01*
X129492657Y-67747343D02*
X127240000Y-70000000D01*
X151240000Y-56000000D02*
X148960411Y-53720411D01*
X148960411Y-53720411D02*
X129519589Y-53720411D01*
X148987343Y-67747343D02*
X129492657Y-67747343D01*
D18*
X119278172Y-71833913D02*
X114893303Y-71833913D01*
X122152626Y-60242130D02*
X156118725Y-60242130D01*
X122152626Y-60242130D02*
X119217870Y-60242130D01*
X122160000Y-60249504D02*
X122152626Y-60242130D01*
X119620000Y-71492085D02*
X119278172Y-71833913D01*
X119620000Y-70000000D02*
X119620000Y-71492085D01*
X122160000Y-62380000D02*
X122160000Y-60249504D01*
X157050096Y-61173501D02*
X156118725Y-60242130D01*
X114540000Y-71480610D02*
X114540000Y-70000000D01*
X119217870Y-60242130D02*
X117080000Y-62380000D01*
X114893303Y-71833913D02*
X114540000Y-71480610D01*
X113261555Y-65880442D02*
X124700145Y-65880442D01*
X124700145Y-65880442D02*
X124706940Y-65873647D01*
X114549392Y-67545057D02*
X122245057Y-67545057D01*
X114540333Y-67535998D02*
X114549392Y-67545057D01*
X122245057Y-67545057D02*
X124700000Y-70000000D01*
X124718920Y-46291304D02*
X122150657Y-46291304D01*
X117080000Y-46320555D02*
X117109251Y-46291304D01*
X124700000Y-48380000D02*
X124700000Y-46310224D01*
X114540000Y-47167064D02*
X114540000Y-48380000D01*
X117109251Y-46291304D02*
X115415760Y-46291304D01*
X142261076Y-46291304D02*
X124718920Y-46291304D01*
X124700000Y-46310224D02*
X124718920Y-46291304D01*
X122150657Y-46291304D02*
X117109251Y-46291304D01*
X117080000Y-48380000D02*
X117080000Y-46320555D01*
X122160000Y-48380000D02*
X122160000Y-46300647D01*
X122160000Y-46300647D02*
X122150657Y-46291304D01*
X142350534Y-46380762D02*
X142261076Y-46291304D01*
X115415760Y-46291304D02*
X114540000Y-47167064D01*
M02*
