  0
SECTION
  2
HEADER
  9
$ANGBASE
  50
0.0
  9
$ANGDIR
  70
1
  9
$MEASUREMENT
  70
1
  0
ENDSEC
  0
SECTION
  2
TABLES
  0
TABLE
  2
LTYPE
  70
4
  0
LTYPE
  5
40F
  2
CONTINUOUS
  70
0
  3
Solid line
  72
65
  73
0
  40
0.0
  0
LTYPE
  5
410
  2
DASHDOT
 70
0
  3
Dash Dot ____ _ ____ _
 72
65
 73
4
 40
2.0
 49
1.25
 49
-0.25
 49
0.25
 49
-0.25
  0
LTYPE
  5
411
  2
DASHED
 70
0
  3
Dashed __ __ __ __ __
 72
65
 73
2
 40
0.75
 49
0.5
 49
-0.25
  0
LTYPE
  5
43B
  2
DOTTED
 70
0
  3
Dotted .  .  .  .
 72
65
 73
2
 40
0.2
 49
0.0
 49
-0.2
  0
ENDTAB
  0
TABLE
  2
STYLE
  70
4
  0
STYLE
  2
KICAD
  70
0
  40
0
  41
1
  42
1
  50
0
  71
0
  3
isocp.shx
  0
STYLE
  2
KICADB
  70
0
  40
0
  41
1
  42
1
  50
0
  71
0
  3
isocp.shx
  0
STYLE
  2
KICADI
  70
0
  40
0
  41
1
  42
1
  50
15
  71
0
  3
isocp.shx
  0
STYLE
  2
KICADBI
  70
0
  40
0
  41
1
  42
1
  50
15
  71
0
  3
isocp.shx
  0
ENDTAB
  0
TABLE
  2
LAYER
  70
1
  0
LAYER
  2
BLACK
  70
0
  62
7
  6
CONTINUOUS
  0
ENDTAB
  0
ENDSEC
  0
SECTION
  2
ENTITIES
0
LINE
8
BLACK
6
CONTINUOUS
10
109
20
-82
11
109
21
-44
0
LINE
8
BLACK
6
CONTINUOUS
10
109
20
-44
11
160
21
-44
0
LINE
8
BLACK
6
CONTINUOUS
10
160
20
-44
11
160
21
-82
0
LINE
8
BLACK
6
CONTINUOUS
10
109
20
-82
11
160
21
-82
0
LINE
8
BLACK
6
CONTINUOUS
10
113.062
20
-65.6804
11
113.462
21
-66.0804
0
LINE
8
BLACK
6
CONTINUOUS
10
113.462
20
-65.6804
11
113.062
21
-66.0804
0
LINE
8
BLACK
6
CONTINUOUS
10
114.34
20
-67.336
11
114.74
21
-67.736
0
LINE
8
BLACK
6
CONTINUOUS
10
114.74
20
-67.336
11
114.34
21
-67.736
0
LINE
8
BLACK
6
CONTINUOUS
10
124.507
20
-65.6736
11
124.907
21
-66.0736
0
LINE
8
BLACK
6
CONTINUOUS
10
124.907
20
-65.6736
11
124.507
21
-66.0736
0
LINE
8
BLACK
6
CONTINUOUS
10
142.151
20
-46.1808
11
142.551
21
-46.5808
0
LINE
8
BLACK
6
CONTINUOUS
10
142.551
20
-46.1808
11
142.151
21
-46.5808
0
CIRCLE
8
BLACK
10
112
20
-48.38
40
0.4
0
CIRCLE
8
BLACK
10
112
20
-56
40
0.4
0
CIRCLE
8
BLACK
10
112
20
-62.38
40
0.4
0
CIRCLE
8
BLACK
10
112
20
-70
40
0.4
0
CIRCLE
8
BLACK
10
114.54
20
-48.38
40
0.4
0
CIRCLE
8
BLACK
10
114.54
20
-56
40
0.4
0
CIRCLE
8
BLACK
10
114.54
20
-62.38
40
0.4
0
CIRCLE
8
BLACK
10
114.54
20
-70
40
0.4
0
CIRCLE
8
BLACK
10
117.08
20
-48.38
40
0.4
0
CIRCLE
8
BLACK
10
117.08
20
-56
40
0.4
0
CIRCLE
8
BLACK
10
117.08
20
-62.38
40
0.4
0
CIRCLE
8
BLACK
10
117.08
20
-70
40
0.4
0
CIRCLE
8
BLACK
10
119.62
20
-48.38
40
0.4
0
CIRCLE
8
BLACK
10
119.62
20
-56
40
0.4
0
CIRCLE
8
BLACK
10
119.62
20
-62.38
40
0.4
0
CIRCLE
8
BLACK
10
119.62
20
-70
40
0.4
0
CIRCLE
8
BLACK
10
122.16
20
-48.38
40
0.4
0
CIRCLE
8
BLACK
10
122.16
20
-56
40
0.4
0
CIRCLE
8
BLACK
10
122.16
20
-62.38
40
0.4
0
CIRCLE
8
BLACK
10
122.16
20
-70
40
0.4
0
CIRCLE
8
BLACK
10
122.189
20
-75.9142
40
0.4
0
CIRCLE
8
BLACK
10
124.7
20
-48.38
40
0.4
0
CIRCLE
8
BLACK
10
124.7
20
-56
40
0.4
0
CIRCLE
8
BLACK
10
124.7
20
-62.38
40
0.4
0
CIRCLE
8
BLACK
10
124.7
20
-70
40
0.4
0
CIRCLE
8
BLACK
10
124.729
20
-75.9142
40
0.4
0
CIRCLE
8
BLACK
10
127.24
20
-48.38
40
0.4
0
CIRCLE
8
BLACK
10
127.24
20
-56
40
0.4
0
CIRCLE
8
BLACK
10
127.24
20
-62.38
40
0.4
0
CIRCLE
8
BLACK
10
127.24
20
-70
40
0.4
0
CIRCLE
8
BLACK
10
127.269
20
-75.9142
40
0.4
0
CIRCLE
8
BLACK
10
130.447
20
-50.9443
40
0.4
0
CIRCLE
8
BLACK
10
130.447
20
-53.4443
40
0.4
0
CIRCLE
8
BLACK
10
130.624
20
-64.8345
40
0.4
0
CIRCLE
8
BLACK
10
130.624
20
-67.3345
40
0.4
0
CIRCLE
8
BLACK
10
133.1
20
-76
40
0.4
0
CIRCLE
8
BLACK
10
136
20
-48.38
40
0.4
0
CIRCLE
8
BLACK
10
136
20
-56
40
0.4
0
CIRCLE
8
BLACK
10
136
20
-62.38
40
0.4
0
CIRCLE
8
BLACK
10
136
20
-70
40
0.4
0
CIRCLE
8
BLACK
10
138.54
20
-48.38
40
0.4
0
CIRCLE
8
BLACK
10
138.54
20
-56
40
0.4
0
CIRCLE
8
BLACK
10
138.54
20
-62.38
40
0.4
0
CIRCLE
8
BLACK
10
138.54
20
-70
40
0.4
0
CIRCLE
8
BLACK
10
140.72
20
-76
40
0.4
0
CIRCLE
8
BLACK
10
141.08
20
-48.38
40
0.4
0
CIRCLE
8
BLACK
10
141.08
20
-56
40
0.4
0
CIRCLE
8
BLACK
10
141.08
20
-62.38
40
0.4
0
CIRCLE
8
BLACK
10
141.08
20
-70
40
0.4
0
CIRCLE
8
BLACK
10
143.62
20
-48.38
40
0.4
0
CIRCLE
8
BLACK
10
143.62
20
-56
40
0.4
0
CIRCLE
8
BLACK
10
143.62
20
-62.38
40
0.4
0
CIRCLE
8
BLACK
10
143.62
20
-70
40
0.4
0
CIRCLE
8
BLACK
10
145.133
20
-74.6949
40
0.4
0
CIRCLE
8
BLACK
10
145.133
20
-77.1949
40
0.4
0
CIRCLE
8
BLACK
10
146.16
20
-48.38
40
0.4
0
CIRCLE
8
BLACK
10
146.16
20
-56
40
0.4
0
CIRCLE
8
BLACK
10
146.16
20
-62.38
40
0.4
0
CIRCLE
8
BLACK
10
146.16
20
-70
40
0.4
0
CIRCLE
8
BLACK
10
148.7
20
-48.38
40
0.4
0
CIRCLE
8
BLACK
10
148.7
20
-56
40
0.4
0
CIRCLE
8
BLACK
10
148.7
20
-62.38
40
0.4
0
CIRCLE
8
BLACK
10
148.7
20
-70
40
0.4
0
CIRCLE
8
BLACK
10
149.422
20
-76
40
0.4
0
CIRCLE
8
BLACK
10
151.24
20
-48.38
40
0.4
0
CIRCLE
8
BLACK
10
151.24
20
-56
40
0.4
0
CIRCLE
8
BLACK
10
151.24
20
-62.38
40
0.4
0
CIRCLE
8
BLACK
10
151.24
20
-70
40
0.4
0
CIRCLE
8
BLACK
10
157.042
20
-76
40
0.4
0
CIRCLE
8
BLACK
10
157.05
20
-48.4735
40
0.4
0
CIRCLE
8
BLACK
10
157.05
20
-61.1735
40
0.4
0
LINE
8
BLACK
6
CONTINUOUS
10
111.489
20
-75.3134
11
111.489
21
-76.3134
0
LINE
8
BLACK
6
CONTINUOUS
10
110.989
20
-75.8134
11
111.989
21
-75.8134
0
LINE
8
BLACK
6
CONTINUOUS
10
116.972
20
-75.4628
11
116.972
21
-76.4628
0
LINE
8
BLACK
6
CONTINUOUS
10
116.472
20
-75.9628
11
117.472
21
-75.9628
0
LINE
8
BLACK
6
CONTINUOUS
10
111.583
20
-85.1398
11
111.583
21
-83.1398
0
LINE
8
BLACK
6
CONTINUOUS
10
111.583
20
-83.1398
11
112.059
21
-83.1398
0
LINE
8
BLACK
6
CONTINUOUS
10
112.059
20
-83.1398
11
112.345
21
-83.2351
0
LINE
8
BLACK
6
CONTINUOUS
10
112.345
20
-83.2351
11
112.535
21
-83.4256
0
LINE
8
BLACK
6
CONTINUOUS
10
112.535
20
-83.4256
11
112.63
21
-83.616
0
LINE
8
BLACK
6
CONTINUOUS
10
112.63
20
-83.616
11
112.726
21
-83.997
0
LINE
8
BLACK
6
CONTINUOUS
10
112.726
20
-83.997
11
112.726
21
-84.2827
0
LINE
8
BLACK
6
CONTINUOUS
10
112.726
20
-84.2827
11
112.63
21
-84.6636
0
LINE
8
BLACK
6
CONTINUOUS
10
112.63
20
-84.6636
11
112.535
21
-84.8541
0
LINE
8
BLACK
6
CONTINUOUS
10
112.535
20
-84.8541
11
112.345
21
-85.0446
0
LINE
8
BLACK
6
CONTINUOUS
10
112.345
20
-85.0446
11
112.059
21
-85.1398
0
LINE
8
BLACK
6
CONTINUOUS
10
112.059
20
-85.1398
11
111.583
21
-85.1398
0
LINE
8
BLACK
6
CONTINUOUS
10
113.583
20
-85.1398
11
113.583
21
-83.8065
0
LINE
8
BLACK
6
CONTINUOUS
10
113.583
20
-84.1875
11
113.678
21
-83.997
0
LINE
8
BLACK
6
CONTINUOUS
10
113.678
20
-83.997
11
113.773
21
-83.9017
0
LINE
8
BLACK
6
CONTINUOUS
10
113.773
20
-83.9017
11
113.964
21
-83.8065
0
LINE
8
BLACK
6
CONTINUOUS
10
113.964
20
-83.8065
11
114.154
21
-83.8065
0
LINE
8
BLACK
6
CONTINUOUS
10
114.821
20
-85.1398
11
114.821
21
-83.8065
0
LINE
8
BLACK
6
CONTINUOUS
10
114.821
20
-83.1398
11
114.726
21
-83.2351
0
LINE
8
BLACK
6
CONTINUOUS
10
114.726
20
-83.2351
11
114.821
21
-83.3303
0
LINE
8
BLACK
6
CONTINUOUS
10
114.821
20
-83.3303
11
114.916
21
-83.2351
0
LINE
8
BLACK
6
CONTINUOUS
10
114.916
20
-83.2351
11
114.821
21
-83.1398
0
LINE
8
BLACK
6
CONTINUOUS
10
114.821
20
-83.1398
11
114.821
21
-83.3303
0
LINE
8
BLACK
6
CONTINUOUS
10
116.059
20
-85.1398
11
115.868
21
-85.0446
0
LINE
8
BLACK
6
CONTINUOUS
10
115.868
20
-85.0446
11
115.773
21
-84.8541
0
LINE
8
BLACK
6
CONTINUOUS
10
115.773
20
-84.8541
11
115.773
21
-83.1398
0
LINE
8
BLACK
6
CONTINUOUS
10
117.107
20
-85.1398
11
116.916
21
-85.0446
0
LINE
8
BLACK
6
CONTINUOUS
10
116.916
20
-85.0446
11
116.821
21
-84.8541
0
LINE
8
BLACK
6
CONTINUOUS
10
116.821
20
-84.8541
11
116.821
21
-83.1398
0
LINE
8
BLACK
6
CONTINUOUS
10
119.392
20
-85.1398
11
119.392
21
-83.1398
0
LINE
8
BLACK
6
CONTINUOUS
10
119.392
20
-83.1398
11
120.059
21
-84.5684
0
LINE
8
BLACK
6
CONTINUOUS
10
120.059
20
-84.5684
11
120.726
21
-83.1398
0
LINE
8
BLACK
6
CONTINUOUS
10
120.726
20
-83.1398
11
120.726
21
-85.1398
0
LINE
8
BLACK
6
CONTINUOUS
10
122.535
20
-85.1398
11
122.535
21
-84.0922
0
LINE
8
BLACK
6
CONTINUOUS
10
122.535
20
-84.0922
11
122.44
21
-83.9017
0
LINE
8
BLACK
6
CONTINUOUS
10
122.44
20
-83.9017
11
122.249
21
-83.8065
0
LINE
8
BLACK
6
CONTINUOUS
10
122.249
20
-83.8065
11
121.868
21
-83.8065
0
LINE
8
BLACK
6
CONTINUOUS
10
121.868
20
-83.8065
11
121.678
21
-83.9017
0
LINE
8
BLACK
6
CONTINUOUS
10
122.535
20
-85.0446
11
122.345
21
-85.1398
0
LINE
8
BLACK
6
CONTINUOUS
10
122.345
20
-85.1398
11
121.868
21
-85.1398
0
LINE
8
BLACK
6
CONTINUOUS
10
121.868
20
-85.1398
11
121.678
21
-85.0446
0
LINE
8
BLACK
6
CONTINUOUS
10
121.678
20
-85.0446
11
121.583
21
-84.8541
0
LINE
8
BLACK
6
CONTINUOUS
10
121.583
20
-84.8541
11
121.583
21
-84.6636
0
LINE
8
BLACK
6
CONTINUOUS
10
121.583
20
-84.6636
11
121.678
21
-84.4732
0
LINE
8
BLACK
6
CONTINUOUS
10
121.678
20
-84.4732
11
121.868
21
-84.3779
0
LINE
8
BLACK
6
CONTINUOUS
10
121.868
20
-84.3779
11
122.345
21
-84.3779
0
LINE
8
BLACK
6
CONTINUOUS
10
122.345
20
-84.3779
11
122.535
21
-84.2827
0
LINE
8
BLACK
6
CONTINUOUS
10
123.488
20
-83.8065
11
123.488
21
-85.8065
0
LINE
8
BLACK
6
CONTINUOUS
10
123.488
20
-83.9017
11
123.678
21
-83.8065
0
LINE
8
BLACK
6
CONTINUOUS
10
123.678
20
-83.8065
11
124.059
21
-83.8065
0
LINE
8
BLACK
6
CONTINUOUS
10
124.059
20
-83.8065
11
124.249
21
-83.9017
0
LINE
8
BLACK
6
CONTINUOUS
10
124.249
20
-83.9017
11
124.345
21
-83.997
0
LINE
8
BLACK
6
CONTINUOUS
10
124.345
20
-83.997
11
124.44
21
-84.1875
0
LINE
8
BLACK
6
CONTINUOUS
10
124.44
20
-84.1875
11
124.44
21
-84.7589
0
LINE
8
BLACK
6
CONTINUOUS
10
124.44
20
-84.7589
11
124.345
21
-84.9494
0
LINE
8
BLACK
6
CONTINUOUS
10
124.345
20
-84.9494
11
124.249
21
-85.0446
0
LINE
8
BLACK
6
CONTINUOUS
10
124.249
20
-85.0446
11
124.059
21
-85.1398
0
LINE
8
BLACK
6
CONTINUOUS
10
124.059
20
-85.1398
11
123.678
21
-85.1398
0
LINE
8
BLACK
6
CONTINUOUS
10
123.678
20
-85.1398
11
123.488
21
-85.0446
0
LINE
8
BLACK
6
CONTINUOUS
10
125.297
20
-84.9494
11
125.392
21
-85.0446
0
LINE
8
BLACK
6
CONTINUOUS
10
125.392
20
-85.0446
11
125.297
21
-85.1398
0
LINE
8
BLACK
6
CONTINUOUS
10
125.297
20
-85.1398
11
125.202
21
-85.0446
0
LINE
8
BLACK
6
CONTINUOUS
10
125.202
20
-85.0446
11
125.297
21
-84.9494
0
LINE
8
BLACK
6
CONTINUOUS
10
125.297
20
-84.9494
11
125.297
21
-85.1398
0
LINE
8
BLACK
6
CONTINUOUS
10
125.297
20
-83.9017
11
125.392
21
-83.997
0
LINE
8
BLACK
6
CONTINUOUS
10
125.392
20
-83.997
11
125.297
21
-84.0922
0
LINE
8
BLACK
6
CONTINUOUS
10
125.297
20
-84.0922
11
125.202
21
-83.997
0
LINE
8
BLACK
6
CONTINUOUS
10
125.202
20
-83.997
11
125.297
21
-83.9017
0
LINE
8
BLACK
6
CONTINUOUS
10
125.297
20
-83.9017
11
125.297
21
-84.0922
0
LINE
8
BLACK
6
CONTINUOUS
10
108.575
20
-88.225
11
108.975
21
-88.625
0
LINE
8
BLACK
6
CONTINUOUS
10
108.975
20
-88.225
11
108.575
21
-88.625
0
LINE
8
BLACK
6
CONTINUOUS
10
111.964
20
-87.3398
11
112.154
21
-87.3398
0
LINE
8
BLACK
6
CONTINUOUS
10
112.154
20
-87.3398
11
112.345
21
-87.4351
0
LINE
8
BLACK
6
CONTINUOUS
10
112.345
20
-87.4351
11
112.44
21
-87.5303
0
LINE
8
BLACK
6
CONTINUOUS
10
112.44
20
-87.5303
11
112.535
21
-87.7208
0
LINE
8
BLACK
6
CONTINUOUS
10
112.535
20
-87.7208
11
112.63
21
-88.1017
0
LINE
8
BLACK
6
CONTINUOUS
10
112.63
20
-88.1017
11
112.63
21
-88.5779
0
LINE
8
BLACK
6
CONTINUOUS
10
112.63
20
-88.5779
11
112.535
21
-88.9589
0
LINE
8
BLACK
6
CONTINUOUS
10
112.535
20
-88.9589
11
112.44
21
-89.1494
0
LINE
8
BLACK
6
CONTINUOUS
10
112.44
20
-89.1494
11
112.345
21
-89.2446
0
LINE
8
BLACK
6
CONTINUOUS
10
112.345
20
-89.2446
11
112.154
21
-89.3398
0
LINE
8
BLACK
6
CONTINUOUS
10
112.154
20
-89.3398
11
111.964
21
-89.3398
0
LINE
8
BLACK
6
CONTINUOUS
10
111.964
20
-89.3398
11
111.773
21
-89.2446
0
LINE
8
BLACK
6
CONTINUOUS
10
111.773
20
-89.2446
11
111.678
21
-89.1494
0
LINE
8
BLACK
6
CONTINUOUS
10
111.678
20
-89.1494
11
111.583
21
-88.9589
0
LINE
8
BLACK
6
CONTINUOUS
10
111.583
20
-88.9589
11
111.488
21
-88.5779
0
LINE
8
BLACK
6
CONTINUOUS
10
111.488
20
-88.5779
11
111.488
21
-88.1017
0
LINE
8
BLACK
6
CONTINUOUS
10
111.488
20
-88.1017
11
111.583
21
-87.7208
0
LINE
8
BLACK
6
CONTINUOUS
10
111.583
20
-87.7208
11
111.678
21
-87.5303
0
LINE
8
BLACK
6
CONTINUOUS
10
111.678
20
-87.5303
11
111.773
21
-87.4351
0
LINE
8
BLACK
6
CONTINUOUS
10
111.773
20
-87.4351
11
111.964
21
-87.3398
0
LINE
8
BLACK
6
CONTINUOUS
10
113.488
20
-89.1494
11
113.583
21
-89.2446
0
LINE
8
BLACK
6
CONTINUOUS
10
113.583
20
-89.2446
11
113.488
21
-89.3398
0
LINE
8
BLACK
6
CONTINUOUS
10
113.488
20
-89.3398
11
113.392
21
-89.2446
0
LINE
8
BLACK
6
CONTINUOUS
10
113.392
20
-89.2446
11
113.488
21
-89.1494
0
LINE
8
BLACK
6
CONTINUOUS
10
113.488
20
-89.1494
11
113.488
21
-89.3398
0
LINE
8
BLACK
6
CONTINUOUS
10
115.297
20
-88.0065
11
115.297
21
-89.3398
0
LINE
8
BLACK
6
CONTINUOUS
10
114.821
20
-87.2446
11
114.345
21
-88.6732
0
LINE
8
BLACK
6
CONTINUOUS
10
114.345
20
-88.6732
11
115.583
21
-88.6732
0
LINE
8
BLACK
6
CONTINUOUS
10
116.726
20
-87.3398
11
116.916
21
-87.3398
0
LINE
8
BLACK
6
CONTINUOUS
10
116.916
20
-87.3398
11
117.107
21
-87.4351
0
LINE
8
BLACK
6
CONTINUOUS
10
117.107
20
-87.4351
11
117.202
21
-87.5303
0
LINE
8
BLACK
6
CONTINUOUS
10
117.202
20
-87.5303
11
117.297
21
-87.7208
0
LINE
8
BLACK
6
CONTINUOUS
10
117.297
20
-87.7208
11
117.392
21
-88.1017
0
LINE
8
BLACK
6
CONTINUOUS
10
117.392
20
-88.1017
11
117.392
21
-88.5779
0
LINE
8
BLACK
6
CONTINUOUS
10
117.392
20
-88.5779
11
117.297
21
-88.9589
0
LINE
8
BLACK
6
CONTINUOUS
10
117.297
20
-88.9589
11
117.202
21
-89.1494
0
LINE
8
BLACK
6
CONTINUOUS
10
117.202
20
-89.1494
11
117.107
21
-89.2446
0
LINE
8
BLACK
6
CONTINUOUS
10
117.107
20
-89.2446
11
116.916
21
-89.3398
0
LINE
8
BLACK
6
CONTINUOUS
10
116.916
20
-89.3398
11
116.726
21
-89.3398
0
LINE
8
BLACK
6
CONTINUOUS
10
116.726
20
-89.3398
11
116.535
21
-89.2446
0
LINE
8
BLACK
6
CONTINUOUS
10
116.535
20
-89.2446
11
116.44
21
-89.1494
0
LINE
8
BLACK
6
CONTINUOUS
10
116.44
20
-89.1494
11
116.345
21
-88.9589
0
LINE
8
BLACK
6
CONTINUOUS
10
116.345
20
-88.9589
11
116.249
21
-88.5779
0
LINE
8
BLACK
6
CONTINUOUS
10
116.249
20
-88.5779
11
116.249
21
-88.1017
0
LINE
8
BLACK
6
CONTINUOUS
10
116.249
20
-88.1017
11
116.345
21
-87.7208
0
LINE
8
BLACK
6
CONTINUOUS
10
116.345
20
-87.7208
11
116.44
21
-87.5303
0
LINE
8
BLACK
6
CONTINUOUS
10
116.44
20
-87.5303
11
116.535
21
-87.4351
0
LINE
8
BLACK
6
CONTINUOUS
10
116.535
20
-87.4351
11
116.726
21
-87.3398
0
LINE
8
BLACK
6
CONTINUOUS
10
118.63
20
-87.3398
11
118.821
21
-87.3398
0
LINE
8
BLACK
6
CONTINUOUS
10
118.821
20
-87.3398
11
119.011
21
-87.4351
0
LINE
8
BLACK
6
CONTINUOUS
10
119.011
20
-87.4351
11
119.107
21
-87.5303
0
LINE
8
BLACK
6
CONTINUOUS
10
119.107
20
-87.5303
11
119.202
21
-87.7208
0
LINE
8
BLACK
6
CONTINUOUS
10
119.202
20
-87.7208
11
119.297
21
-88.1017
0
LINE
8
BLACK
6
CONTINUOUS
10
119.297
20
-88.1017
11
119.297
21
-88.5779
0
LINE
8
BLACK
6
CONTINUOUS
10
119.297
20
-88.5779
11
119.202
21
-88.9589
0
LINE
8
BLACK
6
CONTINUOUS
10
119.202
20
-88.9589
11
119.107
21
-89.1494
0
LINE
8
BLACK
6
CONTINUOUS
10
119.107
20
-89.1494
11
119.011
21
-89.2446
0
LINE
8
BLACK
6
CONTINUOUS
10
119.011
20
-89.2446
11
118.821
21
-89.3398
0
LINE
8
BLACK
6
CONTINUOUS
10
118.821
20
-89.3398
11
118.63
21
-89.3398
0
LINE
8
BLACK
6
CONTINUOUS
10
118.63
20
-89.3398
11
118.44
21
-89.2446
0
LINE
8
BLACK
6
CONTINUOUS
10
118.44
20
-89.2446
11
118.345
21
-89.1494
0
LINE
8
BLACK
6
CONTINUOUS
10
118.345
20
-89.1494
11
118.249
21
-88.9589
0
LINE
8
BLACK
6
CONTINUOUS
10
118.249
20
-88.9589
11
118.154
21
-88.5779
0
LINE
8
BLACK
6
CONTINUOUS
10
118.154
20
-88.5779
11
118.154
21
-88.1017
0
LINE
8
BLACK
6
CONTINUOUS
10
118.154
20
-88.1017
11
118.249
21
-87.7208
0
LINE
8
BLACK
6
CONTINUOUS
10
118.249
20
-87.7208
11
118.345
21
-87.5303
0
LINE
8
BLACK
6
CONTINUOUS
10
118.345
20
-87.5303
11
118.44
21
-87.4351
0
LINE
8
BLACK
6
CONTINUOUS
10
118.44
20
-87.4351
11
118.63
21
-87.3398
0
LINE
8
BLACK
6
CONTINUOUS
10
120.154
20
-89.3398
11
120.154
21
-88.0065
0
LINE
8
BLACK
6
CONTINUOUS
10
120.154
20
-88.197
11
120.249
21
-88.1017
0
LINE
8
BLACK
6
CONTINUOUS
10
120.249
20
-88.1017
11
120.44
21
-88.0065
0
LINE
8
BLACK
6
CONTINUOUS
10
120.44
20
-88.0065
11
120.726
21
-88.0065
0
LINE
8
BLACK
6
CONTINUOUS
10
120.726
20
-88.0065
11
120.916
21
-88.1017
0
LINE
8
BLACK
6
CONTINUOUS
10
120.916
20
-88.1017
11
121.011
21
-88.2922
0
LINE
8
BLACK
6
CONTINUOUS
10
121.011
20
-88.2922
11
121.011
21
-89.3398
0
LINE
8
BLACK
6
CONTINUOUS
10
121.011
20
-88.2922
11
121.107
21
-88.1017
0
LINE
8
BLACK
6
CONTINUOUS
10
121.107
20
-88.1017
11
121.297
21
-88.0065
0
LINE
8
BLACK
6
CONTINUOUS
10
121.297
20
-88.0065
11
121.583
21
-88.0065
0
LINE
8
BLACK
6
CONTINUOUS
10
121.583
20
-88.0065
11
121.773
21
-88.1017
0
LINE
8
BLACK
6
CONTINUOUS
10
121.773
20
-88.1017
11
121.868
21
-88.2922
0
LINE
8
BLACK
6
CONTINUOUS
10
121.868
20
-88.2922
11
121.868
21
-89.3398
0
LINE
8
BLACK
6
CONTINUOUS
10
122.821
20
-89.3398
11
122.821
21
-88.0065
0
LINE
8
BLACK
6
CONTINUOUS
10
122.821
20
-88.197
11
122.916
21
-88.1017
0
LINE
8
BLACK
6
CONTINUOUS
10
122.916
20
-88.1017
11
123.107
21
-88.0065
0
LINE
8
BLACK
6
CONTINUOUS
10
123.107
20
-88.0065
11
123.392
21
-88.0065
0
LINE
8
BLACK
6
CONTINUOUS
10
123.392
20
-88.0065
11
123.583
21
-88.1017
0
LINE
8
BLACK
6
CONTINUOUS
10
123.583
20
-88.1017
11
123.678
21
-88.2922
0
LINE
8
BLACK
6
CONTINUOUS
10
123.678
20
-88.2922
11
123.678
21
-89.3398
0
LINE
8
BLACK
6
CONTINUOUS
10
123.678
20
-88.2922
11
123.773
21
-88.1017
0
LINE
8
BLACK
6
CONTINUOUS
10
123.773
20
-88.1017
11
123.964
21
-88.0065
0
LINE
8
BLACK
6
CONTINUOUS
10
123.964
20
-88.0065
11
124.249
21
-88.0065
0
LINE
8
BLACK
6
CONTINUOUS
10
124.249
20
-88.0065
11
124.44
21
-88.1017
0
LINE
8
BLACK
6
CONTINUOUS
10
124.44
20
-88.1017
11
124.535
21
-88.2922
0
LINE
8
BLACK
6
CONTINUOUS
10
124.535
20
-88.2922
11
124.535
21
-89.3398
0
LINE
8
BLACK
6
CONTINUOUS
10
128.44
20
-87.2446
11
126.726
21
-89.816
0
LINE
8
BLACK
6
CONTINUOUS
10
131.011
20
-87.3398
11
131.202
21
-87.3398
0
LINE
8
BLACK
6
CONTINUOUS
10
131.202
20
-87.3398
11
131.392
21
-87.4351
0
LINE
8
BLACK
6
CONTINUOUS
10
131.392
20
-87.4351
11
131.488
21
-87.5303
0
LINE
8
BLACK
6
CONTINUOUS
10
131.488
20
-87.5303
11
131.583
21
-87.7208
0
LINE
8
BLACK
6
CONTINUOUS
10
131.583
20
-87.7208
11
131.678
21
-88.1017
0
LINE
8
BLACK
6
CONTINUOUS
10
131.678
20
-88.1017
11
131.678
21
-88.5779
0
LINE
8
BLACK
6
CONTINUOUS
10
131.678
20
-88.5779
11
131.583
21
-88.9589
0
LINE
8
BLACK
6
CONTINUOUS
10
131.583
20
-88.9589
11
131.488
21
-89.1494
0
LINE
8
BLACK
6
CONTINUOUS
10
131.488
20
-89.1494
11
131.392
21
-89.2446
0
LINE
8
BLACK
6
CONTINUOUS
10
131.392
20
-89.2446
11
131.202
21
-89.3398
0
LINE
8
BLACK
6
CONTINUOUS
10
131.202
20
-89.3398
11
131.011
21
-89.3398
0
LINE
8
BLACK
6
CONTINUOUS
10
131.011
20
-89.3398
11
130.821
21
-89.2446
0
LINE
8
BLACK
6
CONTINUOUS
10
130.821
20
-89.2446
11
130.726
21
-89.1494
0
LINE
8
BLACK
6
CONTINUOUS
10
130.726
20
-89.1494
11
130.63
21
-88.9589
0
LINE
8
BLACK
6
CONTINUOUS
10
130.63
20
-88.9589
11
130.535
21
-88.5779
0
LINE
8
BLACK
6
CONTINUOUS
10
130.535
20
-88.5779
11
130.535
21
-88.1017
0
LINE
8
BLACK
6
CONTINUOUS
10
130.535
20
-88.1017
11
130.63
21
-87.7208
0
LINE
8
BLACK
6
CONTINUOUS
10
130.63
20
-87.7208
11
130.726
21
-87.5303
0
LINE
8
BLACK
6
CONTINUOUS
10
130.726
20
-87.5303
11
130.821
21
-87.4351
0
LINE
8
BLACK
6
CONTINUOUS
10
130.821
20
-87.4351
11
131.011
21
-87.3398
0
LINE
8
BLACK
6
CONTINUOUS
10
132.535
20
-89.1494
11
132.63
21
-89.2446
0
LINE
8
BLACK
6
CONTINUOUS
10
132.63
20
-89.2446
11
132.535
21
-89.3398
0
LINE
8
BLACK
6
CONTINUOUS
10
132.535
20
-89.3398
11
132.44
21
-89.2446
0
LINE
8
BLACK
6
CONTINUOUS
10
132.44
20
-89.2446
11
132.535
21
-89.1494
0
LINE
8
BLACK
6
CONTINUOUS
10
132.535
20
-89.1494
11
132.535
21
-89.3398
0
LINE
8
BLACK
6
CONTINUOUS
10
133.868
20
-87.3398
11
134.059
21
-87.3398
0
LINE
8
BLACK
6
CONTINUOUS
10
134.059
20
-87.3398
11
134.249
21
-87.4351
0
LINE
8
BLACK
6
CONTINUOUS
10
134.249
20
-87.4351
11
134.345
21
-87.5303
0
LINE
8
BLACK
6
CONTINUOUS
10
134.345
20
-87.5303
11
134.44
21
-87.7208
0
LINE
8
BLACK
6
CONTINUOUS
10
134.44
20
-87.7208
11
134.535
21
-88.1017
0
LINE
8
BLACK
6
CONTINUOUS
10
134.535
20
-88.1017
11
134.535
21
-88.5779
0
LINE
8
BLACK
6
CONTINUOUS
10
134.535
20
-88.5779
11
134.44
21
-88.9589
0
LINE
8
BLACK
6
CONTINUOUS
10
134.44
20
-88.9589
11
134.345
21
-89.1494
0
LINE
8
BLACK
6
CONTINUOUS
10
134.345
20
-89.1494
11
134.249
21
-89.2446
0
LINE
8
BLACK
6
CONTINUOUS
10
134.249
20
-89.2446
11
134.059
21
-89.3398
0
LINE
8
BLACK
6
CONTINUOUS
10
134.059
20
-89.3398
11
133.868
21
-89.3398
0
LINE
8
BLACK
6
CONTINUOUS
10
133.868
20
-89.3398
11
133.678
21
-89.2446
0
LINE
8
BLACK
6
CONTINUOUS
10
133.678
20
-89.2446
11
133.583
21
-89.1494
0
LINE
8
BLACK
6
CONTINUOUS
10
133.583
20
-89.1494
11
133.488
21
-88.9589
0
LINE
8
BLACK
6
CONTINUOUS
10
133.488
20
-88.9589
11
133.392
21
-88.5779
0
LINE
8
BLACK
6
CONTINUOUS
10
133.392
20
-88.5779
11
133.392
21
-88.1017
0
LINE
8
BLACK
6
CONTINUOUS
10
133.392
20
-88.1017
11
133.488
21
-87.7208
0
LINE
8
BLACK
6
CONTINUOUS
10
133.488
20
-87.7208
11
133.583
21
-87.5303
0
LINE
8
BLACK
6
CONTINUOUS
10
133.583
20
-87.5303
11
133.678
21
-87.4351
0
LINE
8
BLACK
6
CONTINUOUS
10
133.678
20
-87.4351
11
133.868
21
-87.3398
0
LINE
8
BLACK
6
CONTINUOUS
10
136.44
20
-89.3398
11
135.297
21
-89.3398
0
LINE
8
BLACK
6
CONTINUOUS
10
135.868
20
-89.3398
11
135.868
21
-87.3398
0
LINE
8
BLACK
6
CONTINUOUS
10
135.868
20
-87.3398
11
135.678
21
-87.6256
0
LINE
8
BLACK
6
CONTINUOUS
10
135.678
20
-87.6256
11
135.488
21
-87.816
0
LINE
8
BLACK
6
CONTINUOUS
10
135.488
20
-87.816
11
135.297
21
-87.9113
0
LINE
8
BLACK
6
CONTINUOUS
10
138.249
20
-87.3398
11
137.297
21
-87.3398
0
LINE
8
BLACK
6
CONTINUOUS
10
137.297
20
-87.3398
11
137.202
21
-88.2922
0
LINE
8
BLACK
6
CONTINUOUS
10
137.202
20
-88.2922
11
137.297
21
-88.197
0
LINE
8
BLACK
6
CONTINUOUS
10
137.297
20
-88.197
11
137.488
21
-88.1017
0
LINE
8
BLACK
6
CONTINUOUS
10
137.488
20
-88.1017
11
137.964
21
-88.1017
0
LINE
8
BLACK
6
CONTINUOUS
10
137.964
20
-88.1017
11
138.154
21
-88.197
0
LINE
8
BLACK
6
CONTINUOUS
10
138.154
20
-88.197
11
138.249
21
-88.2922
0
LINE
8
BLACK
6
CONTINUOUS
10
138.249
20
-88.2922
11
138.345
21
-88.4827
0
LINE
8
BLACK
6
CONTINUOUS
10
138.345
20
-88.4827
11
138.345
21
-88.9589
0
LINE
8
BLACK
6
CONTINUOUS
10
138.345
20
-88.9589
11
138.249
21
-89.1494
0
LINE
8
BLACK
6
CONTINUOUS
10
138.249
20
-89.1494
11
138.154
21
-89.2446
0
LINE
8
BLACK
6
CONTINUOUS
10
138.154
20
-89.2446
11
137.964
21
-89.3398
0
LINE
8
BLACK
6
CONTINUOUS
10
137.964
20
-89.3398
11
137.488
21
-89.3398
0
LINE
8
BLACK
6
CONTINUOUS
10
137.488
20
-89.3398
11
137.297
21
-89.2446
0
LINE
8
BLACK
6
CONTINUOUS
10
137.297
20
-89.2446
11
137.202
21
-89.1494
0
LINE
8
BLACK
6
CONTINUOUS
10
139.011
20
-87.3398
11
140.345
21
-87.3398
0
LINE
8
BLACK
6
CONTINUOUS
10
140.345
20
-87.3398
11
139.488
21
-89.3398
0
LINE
8
BLACK
6
CONTINUOUS
10
141.011
20
-87.3398
11
141.011
21
-87.7208
0
LINE
8
BLACK
6
CONTINUOUS
10
141.773
20
-87.3398
11
141.773
21
-87.7208
0
LINE
8
BLACK
6
CONTINUOUS
10
144.726
20
-90.1017
11
144.63
21
-90.0065
0
LINE
8
BLACK
6
CONTINUOUS
10
144.63
20
-90.0065
11
144.44
21
-89.7208
0
LINE
8
BLACK
6
CONTINUOUS
10
144.44
20
-89.7208
11
144.345
21
-89.5303
0
LINE
8
BLACK
6
CONTINUOUS
10
144.345
20
-89.5303
11
144.249
21
-89.2446
0
LINE
8
BLACK
6
CONTINUOUS
10
144.249
20
-89.2446
11
144.154
21
-88.7684
0
LINE
8
BLACK
6
CONTINUOUS
10
144.154
20
-88.7684
11
144.154
21
-88.3875
0
LINE
8
BLACK
6
CONTINUOUS
10
144.154
20
-88.3875
11
144.249
21
-87.9113
0
LINE
8
BLACK
6
CONTINUOUS
10
144.249
20
-87.9113
11
144.345
21
-87.6256
0
LINE
8
BLACK
6
CONTINUOUS
10
144.345
20
-87.6256
11
144.44
21
-87.4351
0
LINE
8
BLACK
6
CONTINUOUS
10
144.44
20
-87.4351
11
144.63
21
-87.1494
0
LINE
8
BLACK
6
CONTINUOUS
10
144.63
20
-87.1494
11
144.726
21
-87.0541
0
LINE
8
BLACK
6
CONTINUOUS
10
146.345
20
-88.0065
11
146.345
21
-89.3398
0
LINE
8
BLACK
6
CONTINUOUS
10
145.868
20
-87.2446
11
145.392
21
-88.6732
0
LINE
8
BLACK
6
CONTINUOUS
10
145.392
20
-88.6732
11
146.63
21
-88.6732
0
LINE
8
BLACK
6
CONTINUOUS
10
148.916
20
-89.3398
11
148.916
21
-87.3398
0
LINE
8
BLACK
6
CONTINUOUS
10
149.773
20
-89.3398
11
149.773
21
-88.2922
0
LINE
8
BLACK
6
CONTINUOUS
10
149.773
20
-88.2922
11
149.678
21
-88.1017
0
LINE
8
BLACK
6
CONTINUOUS
10
149.678
20
-88.1017
11
149.488
21
-88.0065
0
LINE
8
BLACK
6
CONTINUOUS
10
149.488
20
-88.0065
11
149.202
21
-88.0065
0
LINE
8
BLACK
6
CONTINUOUS
10
149.202
20
-88.0065
11
149.011
21
-88.1017
0
LINE
8
BLACK
6
CONTINUOUS
10
149.011
20
-88.1017
11
148.916
21
-88.197
0
LINE
8
BLACK
6
CONTINUOUS
10
151.011
20
-89.3398
11
150.821
21
-89.2446
0
LINE
8
BLACK
6
CONTINUOUS
10
150.821
20
-89.2446
11
150.726
21
-89.1494
0
LINE
8
BLACK
6
CONTINUOUS
10
150.726
20
-89.1494
11
150.63
21
-88.9589
0
LINE
8
BLACK
6
CONTINUOUS
10
150.63
20
-88.9589
11
150.63
21
-88.3875
0
LINE
8
BLACK
6
CONTINUOUS
10
150.63
20
-88.3875
11
150.726
21
-88.197
0
LINE
8
BLACK
6
CONTINUOUS
10
150.726
20
-88.197
11
150.821
21
-88.1017
0
LINE
8
BLACK
6
CONTINUOUS
10
150.821
20
-88.1017
11
151.011
21
-88.0065
0
LINE
8
BLACK
6
CONTINUOUS
10
151.011
20
-88.0065
11
151.297
21
-88.0065
0
LINE
8
BLACK
6
CONTINUOUS
10
151.297
20
-88.0065
11
151.488
21
-88.1017
0
LINE
8
BLACK
6
CONTINUOUS
10
151.488
20
-88.1017
11
151.583
21
-88.197
0
LINE
8
BLACK
6
CONTINUOUS
10
151.583
20
-88.197
11
151.678
21
-88.3875
0
LINE
8
BLACK
6
CONTINUOUS
10
151.678
20
-88.3875
11
151.678
21
-88.9589
0
LINE
8
BLACK
6
CONTINUOUS
10
151.678
20
-88.9589
11
151.583
21
-89.1494
0
LINE
8
BLACK
6
CONTINUOUS
10
151.583
20
-89.1494
11
151.488
21
-89.2446
0
LINE
8
BLACK
6
CONTINUOUS
10
151.488
20
-89.2446
11
151.297
21
-89.3398
0
LINE
8
BLACK
6
CONTINUOUS
10
151.297
20
-89.3398
11
151.011
21
-89.3398
0
LINE
8
BLACK
6
CONTINUOUS
10
152.821
20
-89.3398
11
152.63
21
-89.2446
0
LINE
8
BLACK
6
CONTINUOUS
10
152.63
20
-89.2446
11
152.535
21
-89.0541
0
LINE
8
BLACK
6
CONTINUOUS
10
152.535
20
-89.0541
11
152.535
21
-87.3398
0
LINE
8
BLACK
6
CONTINUOUS
10
154.345
20
-89.2446
11
154.154
21
-89.3398
0
LINE
8
BLACK
6
CONTINUOUS
10
154.154
20
-89.3398
11
153.773
21
-89.3398
0
LINE
8
BLACK
6
CONTINUOUS
10
153.773
20
-89.3398
11
153.583
21
-89.2446
0
LINE
8
BLACK
6
CONTINUOUS
10
153.583
20
-89.2446
11
153.488
21
-89.0541
0
LINE
8
BLACK
6
CONTINUOUS
10
153.488
20
-89.0541
11
153.488
21
-88.2922
0
LINE
8
BLACK
6
CONTINUOUS
10
153.488
20
-88.2922
11
153.583
21
-88.1017
0
LINE
8
BLACK
6
CONTINUOUS
10
153.583
20
-88.1017
11
153.773
21
-88.0065
0
LINE
8
BLACK
6
CONTINUOUS
10
153.773
20
-88.0065
11
154.154
21
-88.0065
0
LINE
8
BLACK
6
CONTINUOUS
10
154.154
20
-88.0065
11
154.345
21
-88.1017
0
LINE
8
BLACK
6
CONTINUOUS
10
154.345
20
-88.1017
11
154.44
21
-88.2922
0
LINE
8
BLACK
6
CONTINUOUS
10
154.44
20
-88.2922
11
154.44
21
-88.4827
0
LINE
8
BLACK
6
CONTINUOUS
10
154.44
20
-88.4827
11
153.488
21
-88.6732
0
LINE
8
BLACK
6
CONTINUOUS
10
155.202
20
-89.2446
11
155.392
21
-89.3398
0
LINE
8
BLACK
6
CONTINUOUS
10
155.392
20
-89.3398
11
155.773
21
-89.3398
0
LINE
8
BLACK
6
CONTINUOUS
10
155.773
20
-89.3398
11
155.964
21
-89.2446
0
LINE
8
BLACK
6
CONTINUOUS
10
155.964
20
-89.2446
11
156.059
21
-89.0541
0
LINE
8
BLACK
6
CONTINUOUS
10
156.059
20
-89.0541
11
156.059
21
-88.9589
0
LINE
8
BLACK
6
CONTINUOUS
10
156.059
20
-88.9589
11
155.964
21
-88.7684
0
LINE
8
BLACK
6
CONTINUOUS
10
155.964
20
-88.7684
11
155.773
21
-88.6732
0
LINE
8
BLACK
6
CONTINUOUS
10
155.773
20
-88.6732
11
155.488
21
-88.6732
0
LINE
8
BLACK
6
CONTINUOUS
10
155.488
20
-88.6732
11
155.297
21
-88.5779
0
LINE
8
BLACK
6
CONTINUOUS
10
155.297
20
-88.5779
11
155.202
21
-88.3875
0
LINE
8
BLACK
6
CONTINUOUS
10
155.202
20
-88.3875
11
155.202
21
-88.2922
0
LINE
8
BLACK
6
CONTINUOUS
10
155.202
20
-88.2922
11
155.297
21
-88.1017
0
LINE
8
BLACK
6
CONTINUOUS
10
155.297
20
-88.1017
11
155.488
21
-88.0065
0
LINE
8
BLACK
6
CONTINUOUS
10
155.488
20
-88.0065
11
155.773
21
-88.0065
0
LINE
8
BLACK
6
CONTINUOUS
10
155.773
20
-88.0065
11
155.964
21
-88.1017
0
LINE
8
BLACK
6
CONTINUOUS
10
156.726
20
-90.1017
11
156.821
21
-90.0065
0
LINE
8
BLACK
6
CONTINUOUS
10
156.821
20
-90.0065
11
157.011
21
-89.7208
0
LINE
8
BLACK
6
CONTINUOUS
10
157.011
20
-89.7208
11
157.107
21
-89.5303
0
LINE
8
BLACK
6
CONTINUOUS
10
157.107
20
-89.5303
11
157.202
21
-89.2446
0
LINE
8
BLACK
6
CONTINUOUS
10
157.202
20
-89.2446
11
157.297
21
-88.7684
0
LINE
8
BLACK
6
CONTINUOUS
10
157.297
20
-88.7684
11
157.297
21
-88.3875
0
LINE
8
BLACK
6
CONTINUOUS
10
157.297
20
-88.3875
11
157.202
21
-87.9113
0
LINE
8
BLACK
6
CONTINUOUS
10
157.202
20
-87.9113
11
157.107
21
-87.6256
0
LINE
8
BLACK
6
CONTINUOUS
10
157.107
20
-87.6256
11
157.011
21
-87.4351
0
LINE
8
BLACK
6
CONTINUOUS
10
157.011
20
-87.4351
11
156.821
21
-87.1494
0
LINE
8
BLACK
6
CONTINUOUS
10
156.821
20
-87.1494
11
156.726
21
-87.0541
0
CIRCLE
8
BLACK
10
108.575
20
-91.065
40
0.4
0
LINE
8
BLACK
6
CONTINUOUS
10
111.964
20
-89.9798
11
112.154
21
-89.9798
0
LINE
8
BLACK
6
CONTINUOUS
10
112.154
20
-89.9798
11
112.345
21
-90.0751
0
LINE
8
BLACK
6
CONTINUOUS
10
112.345
20
-90.0751
11
112.44
21
-90.1703
0
LINE
8
BLACK
6
CONTINUOUS
10
112.44
20
-90.1703
11
112.535
21
-90.3608
0
LINE
8
BLACK
6
CONTINUOUS
10
112.535
20
-90.3608
11
112.63
21
-90.7417
0
LINE
8
BLACK
6
CONTINUOUS
10
112.63
20
-90.7417
11
112.63
21
-91.2179
0
LINE
8
BLACK
6
CONTINUOUS
10
112.63
20
-91.2179
11
112.535
21
-91.5989
0
LINE
8
BLACK
6
CONTINUOUS
10
112.535
20
-91.5989
11
112.44
21
-91.7894
0
LINE
8
BLACK
6
CONTINUOUS
10
112.44
20
-91.7894
11
112.345
21
-91.8846
0
LINE
8
BLACK
6
CONTINUOUS
10
112.345
20
-91.8846
11
112.154
21
-91.9798
0
LINE
8
BLACK
6
CONTINUOUS
10
112.154
20
-91.9798
11
111.964
21
-91.9798
0
LINE
8
BLACK
6
CONTINUOUS
10
111.964
20
-91.9798
11
111.773
21
-91.8846
0
LINE
8
BLACK
6
CONTINUOUS
10
111.773
20
-91.8846
11
111.678
21
-91.7894
0
LINE
8
BLACK
6
CONTINUOUS
10
111.678
20
-91.7894
11
111.583
21
-91.5989
0
LINE
8
BLACK
6
CONTINUOUS
10
111.583
20
-91.5989
11
111.488
21
-91.2179
0
LINE
8
BLACK
6
CONTINUOUS
10
111.488
20
-91.2179
11
111.488
21
-90.7417
0
LINE
8
BLACK
6
CONTINUOUS
10
111.488
20
-90.7417
11
111.583
21
-90.3608
0
LINE
8
BLACK
6
CONTINUOUS
10
111.583
20
-90.3608
11
111.678
21
-90.1703
0
LINE
8
BLACK
6
CONTINUOUS
10
111.678
20
-90.1703
11
111.773
21
-90.0751
0
LINE
8
BLACK
6
CONTINUOUS
10
111.773
20
-90.0751
11
111.964
21
-89.9798
0
LINE
8
BLACK
6
CONTINUOUS
10
113.488
20
-91.7894
11
113.583
21
-91.8846
0
LINE
8
BLACK
6
CONTINUOUS
10
113.583
20
-91.8846
11
113.488
21
-91.9798
0
LINE
8
BLACK
6
CONTINUOUS
10
113.488
20
-91.9798
11
113.392
21
-91.8846
0
LINE
8
BLACK
6
CONTINUOUS
10
113.392
20
-91.8846
11
113.488
21
-91.7894
0
LINE
8
BLACK
6
CONTINUOUS
10
113.488
20
-91.7894
11
113.488
21
-91.9798
0
LINE
8
BLACK
6
CONTINUOUS
10
114.726
20
-90.837
11
114.535
21
-90.7417
0
LINE
8
BLACK
6
CONTINUOUS
10
114.535
20
-90.7417
11
114.44
21
-90.6465
0
LINE
8
BLACK
6
CONTINUOUS
10
114.44
20
-90.6465
11
114.345
21
-90.456
0
LINE
8
BLACK
6
CONTINUOUS
10
114.345
20
-90.456
11
114.345
21
-90.3608
0
LINE
8
BLACK
6
CONTINUOUS
10
114.345
20
-90.3608
11
114.44
21
-90.1703
0
LINE
8
BLACK
6
CONTINUOUS
10
114.44
20
-90.1703
11
114.535
21
-90.0751
0
LINE
8
BLACK
6
CONTINUOUS
10
114.535
20
-90.0751
11
114.726
21
-89.9798
0
LINE
8
BLACK
6
CONTINUOUS
10
114.726
20
-89.9798
11
115.107
21
-89.9798
0
LINE
8
BLACK
6
CONTINUOUS
10
115.107
20
-89.9798
11
115.297
21
-90.0751
0
LINE
8
BLACK
6
CONTINUOUS
10
115.297
20
-90.0751
11
115.392
21
-90.1703
0
LINE
8
BLACK
6
CONTINUOUS
10
115.392
20
-90.1703
11
115.488
21
-90.3608
0
LINE
8
BLACK
6
CONTINUOUS
10
115.488
20
-90.3608
11
115.488
21
-90.456
0
LINE
8
BLACK
6
CONTINUOUS
10
115.488
20
-90.456
11
115.392
21
-90.6465
0
LINE
8
BLACK
6
CONTINUOUS
10
115.392
20
-90.6465
11
115.297
21
-90.7417
0
LINE
8
BLACK
6
CONTINUOUS
10
115.297
20
-90.7417
11
115.107
21
-90.837
0
LINE
8
BLACK
6
CONTINUOUS
10
115.107
20
-90.837
11
114.726
21
-90.837
0
LINE
8
BLACK
6
CONTINUOUS
10
114.726
20
-90.837
11
114.535
21
-90.9322
0
LINE
8
BLACK
6
CONTINUOUS
10
114.535
20
-90.9322
11
114.44
21
-91.0275
0
LINE
8
BLACK
6
CONTINUOUS
10
114.44
20
-91.0275
11
114.345
21
-91.2179
0
LINE
8
BLACK
6
CONTINUOUS
10
114.345
20
-91.2179
11
114.345
21
-91.5989
0
LINE
8
BLACK
6
CONTINUOUS
10
114.345
20
-91.5989
11
114.44
21
-91.7894
0
LINE
8
BLACK
6
CONTINUOUS
10
114.44
20
-91.7894
11
114.535
21
-91.8846
0
LINE
8
BLACK
6
CONTINUOUS
10
114.535
20
-91.8846
11
114.726
21
-91.9798
0
LINE
8
BLACK
6
CONTINUOUS
10
114.726
20
-91.9798
11
115.107
21
-91.9798
0
LINE
8
BLACK
6
CONTINUOUS
10
115.107
20
-91.9798
11
115.297
21
-91.8846
0
LINE
8
BLACK
6
CONTINUOUS
10
115.297
20
-91.8846
11
115.392
21
-91.7894
0
LINE
8
BLACK
6
CONTINUOUS
10
115.392
20
-91.7894
11
115.488
21
-91.5989
0
LINE
8
BLACK
6
CONTINUOUS
10
115.488
20
-91.5989
11
115.488
21
-91.2179
0
LINE
8
BLACK
6
CONTINUOUS
10
115.488
20
-91.2179
11
115.392
21
-91.0275
0
LINE
8
BLACK
6
CONTINUOUS
10
115.392
20
-91.0275
11
115.297
21
-90.9322
0
LINE
8
BLACK
6
CONTINUOUS
10
115.297
20
-90.9322
11
115.107
21
-90.837
0
LINE
8
BLACK
6
CONTINUOUS
10
116.726
20
-89.9798
11
116.916
21
-89.9798
0
LINE
8
BLACK
6
CONTINUOUS
10
116.916
20
-89.9798
11
117.107
21
-90.0751
0
LINE
8
BLACK
6
CONTINUOUS
10
117.107
20
-90.0751
11
117.202
21
-90.1703
0
LINE
8
BLACK
6
CONTINUOUS
10
117.202
20
-90.1703
11
117.297
21
-90.3608
0
LINE
8
BLACK
6
CONTINUOUS
10
117.297
20
-90.3608
11
117.392
21
-90.7417
0
LINE
8
BLACK
6
CONTINUOUS
10
117.392
20
-90.7417
11
117.392
21
-91.2179
0
LINE
8
BLACK
6
CONTINUOUS
10
117.392
20
-91.2179
11
117.297
21
-91.5989
0
LINE
8
BLACK
6
CONTINUOUS
10
117.297
20
-91.5989
11
117.202
21
-91.7894
0
LINE
8
BLACK
6
CONTINUOUS
10
117.202
20
-91.7894
11
117.107
21
-91.8846
0
LINE
8
BLACK
6
CONTINUOUS
10
117.107
20
-91.8846
11
116.916
21
-91.9798
0
LINE
8
BLACK
6
CONTINUOUS
10
116.916
20
-91.9798
11
116.726
21
-91.9798
0
LINE
8
BLACK
6
CONTINUOUS
10
116.726
20
-91.9798
11
116.535
21
-91.8846
0
LINE
8
BLACK
6
CONTINUOUS
10
116.535
20
-91.8846
11
116.44
21
-91.7894
0
LINE
8
BLACK
6
CONTINUOUS
10
116.44
20
-91.7894
11
116.345
21
-91.5989
0
LINE
8
BLACK
6
CONTINUOUS
10
116.345
20
-91.5989
11
116.249
21
-91.2179
0
LINE
8
BLACK
6
CONTINUOUS
10
116.249
20
-91.2179
11
116.249
21
-90.7417
0
LINE
8
BLACK
6
CONTINUOUS
10
116.249
20
-90.7417
11
116.345
21
-90.3608
0
LINE
8
BLACK
6
CONTINUOUS
10
116.345
20
-90.3608
11
116.44
21
-90.1703
0
LINE
8
BLACK
6
CONTINUOUS
10
116.44
20
-90.1703
11
116.535
21
-90.0751
0
LINE
8
BLACK
6
CONTINUOUS
10
116.535
20
-90.0751
11
116.726
21
-89.9798
0
LINE
8
BLACK
6
CONTINUOUS
10
118.63
20
-89.9798
11
118.821
21
-89.9798
0
LINE
8
BLACK
6
CONTINUOUS
10
118.821
20
-89.9798
11
119.011
21
-90.0751
0
LINE
8
BLACK
6
CONTINUOUS
10
119.011
20
-90.0751
11
119.107
21
-90.1703
0
LINE
8
BLACK
6
CONTINUOUS
10
119.107
20
-90.1703
11
119.202
21
-90.3608
0
LINE
8
BLACK
6
CONTINUOUS
10
119.202
20
-90.3608
11
119.297
21
-90.7417
0
LINE
8
BLACK
6
CONTINUOUS
10
119.297
20
-90.7417
11
119.297
21
-91.2179
0
LINE
8
BLACK
6
CONTINUOUS
10
119.297
20
-91.2179
11
119.202
21
-91.5989
0
LINE
8
BLACK
6
CONTINUOUS
10
119.202
20
-91.5989
11
119.107
21
-91.7894
0
LINE
8
BLACK
6
CONTINUOUS
10
119.107
20
-91.7894
11
119.011
21
-91.8846
0
LINE
8
BLACK
6
CONTINUOUS
10
119.011
20
-91.8846
11
118.821
21
-91.9798
0
LINE
8
BLACK
6
CONTINUOUS
10
118.821
20
-91.9798
11
118.63
21
-91.9798
0
LINE
8
BLACK
6
CONTINUOUS
10
118.63
20
-91.9798
11
118.44
21
-91.8846
0
LINE
8
BLACK
6
CONTINUOUS
10
118.44
20
-91.8846
11
118.345
21
-91.7894
0
LINE
8
BLACK
6
CONTINUOUS
10
118.345
20
-91.7894
11
118.249
21
-91.5989
0
LINE
8
BLACK
6
CONTINUOUS
10
118.249
20
-91.5989
11
118.154
21
-91.2179
0
LINE
8
BLACK
6
CONTINUOUS
10
118.154
20
-91.2179
11
118.154
21
-90.7417
0
LINE
8
BLACK
6
CONTINUOUS
10
118.154
20
-90.7417
11
118.249
21
-90.3608
0
LINE
8
BLACK
6
CONTINUOUS
10
118.249
20
-90.3608
11
118.345
21
-90.1703
0
LINE
8
BLACK
6
CONTINUOUS
10
118.345
20
-90.1703
11
118.44
21
-90.0751
0
LINE
8
BLACK
6
CONTINUOUS
10
118.44
20
-90.0751
11
118.63
21
-89.9798
0
LINE
8
BLACK
6
CONTINUOUS
10
120.154
20
-91.9798
11
120.154
21
-90.6465
0
LINE
8
BLACK
6
CONTINUOUS
10
120.154
20
-90.837
11
120.249
21
-90.7417
0
LINE
8
BLACK
6
CONTINUOUS
10
120.249
20
-90.7417
11
120.44
21
-90.6465
0
LINE
8
BLACK
6
CONTINUOUS
10
120.44
20
-90.6465
11
120.726
21
-90.6465
0
LINE
8
BLACK
6
CONTINUOUS
10
120.726
20
-90.6465
11
120.916
21
-90.7417
0
LINE
8
BLACK
6
CONTINUOUS
10
120.916
20
-90.7417
11
121.011
21
-90.9322
0
LINE
8
BLACK
6
CONTINUOUS
10
121.011
20
-90.9322
11
121.011
21
-91.9798
0
LINE
8
BLACK
6
CONTINUOUS
10
121.011
20
-90.9322
11
121.107
21
-90.7417
0
LINE
8
BLACK
6
CONTINUOUS
10
121.107
20
-90.7417
11
121.297
21
-90.6465
0
LINE
8
BLACK
6
CONTINUOUS
10
121.297
20
-90.6465
11
121.583
21
-90.6465
0
LINE
8
BLACK
6
CONTINUOUS
10
121.583
20
-90.6465
11
121.773
21
-90.7417
0
LINE
8
BLACK
6
CONTINUOUS
10
121.773
20
-90.7417
11
121.868
21
-90.9322
0
LINE
8
BLACK
6
CONTINUOUS
10
121.868
20
-90.9322
11
121.868
21
-91.9798
0
LINE
8
BLACK
6
CONTINUOUS
10
122.821
20
-91.9798
11
122.821
21
-90.6465
0
LINE
8
BLACK
6
CONTINUOUS
10
122.821
20
-90.837
11
122.916
21
-90.7417
0
LINE
8
BLACK
6
CONTINUOUS
10
122.916
20
-90.7417
11
123.107
21
-90.6465
0
LINE
8
BLACK
6
CONTINUOUS
10
123.107
20
-90.6465
11
123.392
21
-90.6465
0
LINE
8
BLACK
6
CONTINUOUS
10
123.392
20
-90.6465
11
123.583
21
-90.7417
0
LINE
8
BLACK
6
CONTINUOUS
10
123.583
20
-90.7417
11
123.678
21
-90.9322
0
LINE
8
BLACK
6
CONTINUOUS
10
123.678
20
-90.9322
11
123.678
21
-91.9798
0
LINE
8
BLACK
6
CONTINUOUS
10
123.678
20
-90.9322
11
123.773
21
-90.7417
0
LINE
8
BLACK
6
CONTINUOUS
10
123.773
20
-90.7417
11
123.964
21
-90.6465
0
LINE
8
BLACK
6
CONTINUOUS
10
123.964
20
-90.6465
11
124.249
21
-90.6465
0
LINE
8
BLACK
6
CONTINUOUS
10
124.249
20
-90.6465
11
124.44
21
-90.7417
0
LINE
8
BLACK
6
CONTINUOUS
10
124.44
20
-90.7417
11
124.535
21
-90.9322
0
LINE
8
BLACK
6
CONTINUOUS
10
124.535
20
-90.9322
11
124.535
21
-91.9798
0
LINE
8
BLACK
6
CONTINUOUS
10
128.44
20
-89.8846
11
126.726
21
-92.456
0
LINE
8
BLACK
6
CONTINUOUS
10
131.011
20
-89.9798
11
131.202
21
-89.9798
0
LINE
8
BLACK
6
CONTINUOUS
10
131.202
20
-89.9798
11
131.392
21
-90.0751
0
LINE
8
BLACK
6
CONTINUOUS
10
131.392
20
-90.0751
11
131.488
21
-90.1703
0
LINE
8
BLACK
6
CONTINUOUS
10
131.488
20
-90.1703
11
131.583
21
-90.3608
0
LINE
8
BLACK
6
CONTINUOUS
10
131.583
20
-90.3608
11
131.678
21
-90.7417
0
LINE
8
BLACK
6
CONTINUOUS
10
131.678
20
-90.7417
11
131.678
21
-91.2179
0
LINE
8
BLACK
6
CONTINUOUS
10
131.678
20
-91.2179
11
131.583
21
-91.5989
0
LINE
8
BLACK
6
CONTINUOUS
10
131.583
20
-91.5989
11
131.488
21
-91.7894
0
LINE
8
BLACK
6
CONTINUOUS
10
131.488
20
-91.7894
11
131.392
21
-91.8846
0
LINE
8
BLACK
6
CONTINUOUS
10
131.392
20
-91.8846
11
131.202
21
-91.9798
0
LINE
8
BLACK
6
CONTINUOUS
10
131.202
20
-91.9798
11
131.011
21
-91.9798
0
LINE
8
BLACK
6
CONTINUOUS
10
131.011
20
-91.9798
11
130.821
21
-91.8846
0
LINE
8
BLACK
6
CONTINUOUS
10
130.821
20
-91.8846
11
130.726
21
-91.7894
0
LINE
8
BLACK
6
CONTINUOUS
10
130.726
20
-91.7894
11
130.63
21
-91.5989
0
LINE
8
BLACK
6
CONTINUOUS
10
130.63
20
-91.5989
11
130.535
21
-91.2179
0
LINE
8
BLACK
6
CONTINUOUS
10
130.535
20
-91.2179
11
130.535
21
-90.7417
0
LINE
8
BLACK
6
CONTINUOUS
10
130.535
20
-90.7417
11
130.63
21
-90.3608
0
LINE
8
BLACK
6
CONTINUOUS
10
130.63
20
-90.3608
11
130.726
21
-90.1703
0
LINE
8
BLACK
6
CONTINUOUS
10
130.726
20
-90.1703
11
130.821
21
-90.0751
0
LINE
8
BLACK
6
CONTINUOUS
10
130.821
20
-90.0751
11
131.011
21
-89.9798
0
LINE
8
BLACK
6
CONTINUOUS
10
132.535
20
-91.7894
11
132.63
21
-91.8846
0
LINE
8
BLACK
6
CONTINUOUS
10
132.63
20
-91.8846
11
132.535
21
-91.9798
0
LINE
8
BLACK
6
CONTINUOUS
10
132.535
20
-91.9798
11
132.44
21
-91.8846
0
LINE
8
BLACK
6
CONTINUOUS
10
132.44
20
-91.8846
11
132.535
21
-91.7894
0
LINE
8
BLACK
6
CONTINUOUS
10
132.535
20
-91.7894
11
132.535
21
-91.9798
0
LINE
8
BLACK
6
CONTINUOUS
10
133.868
20
-89.9798
11
134.059
21
-89.9798
0
LINE
8
BLACK
6
CONTINUOUS
10
134.059
20
-89.9798
11
134.249
21
-90.0751
0
LINE
8
BLACK
6
CONTINUOUS
10
134.249
20
-90.0751
11
134.345
21
-90.1703
0
LINE
8
BLACK
6
CONTINUOUS
10
134.345
20
-90.1703
11
134.44
21
-90.3608
0
LINE
8
BLACK
6
CONTINUOUS
10
134.44
20
-90.3608
11
134.535
21
-90.7417
0
LINE
8
BLACK
6
CONTINUOUS
10
134.535
20
-90.7417
11
134.535
21
-91.2179
0
LINE
8
BLACK
6
CONTINUOUS
10
134.535
20
-91.2179
11
134.44
21
-91.5989
0
LINE
8
BLACK
6
CONTINUOUS
10
134.44
20
-91.5989
11
134.345
21
-91.7894
0
LINE
8
BLACK
6
CONTINUOUS
10
134.345
20
-91.7894
11
134.249
21
-91.8846
0
LINE
8
BLACK
6
CONTINUOUS
10
134.249
20
-91.8846
11
134.059
21
-91.9798
0
LINE
8
BLACK
6
CONTINUOUS
10
134.059
20
-91.9798
11
133.868
21
-91.9798
0
LINE
8
BLACK
6
CONTINUOUS
10
133.868
20
-91.9798
11
133.678
21
-91.8846
0
LINE
8
BLACK
6
CONTINUOUS
10
133.678
20
-91.8846
11
133.583
21
-91.7894
0
LINE
8
BLACK
6
CONTINUOUS
10
133.583
20
-91.7894
11
133.488
21
-91.5989
0
LINE
8
BLACK
6
CONTINUOUS
10
133.488
20
-91.5989
11
133.392
21
-91.2179
0
LINE
8
BLACK
6
CONTINUOUS
10
133.392
20
-91.2179
11
133.392
21
-90.7417
0
LINE
8
BLACK
6
CONTINUOUS
10
133.392
20
-90.7417
11
133.488
21
-90.3608
0
LINE
8
BLACK
6
CONTINUOUS
10
133.488
20
-90.3608
11
133.583
21
-90.1703
0
LINE
8
BLACK
6
CONTINUOUS
10
133.583
20
-90.1703
11
133.678
21
-90.0751
0
LINE
8
BLACK
6
CONTINUOUS
10
133.678
20
-90.0751
11
133.868
21
-89.9798
0
LINE
8
BLACK
6
CONTINUOUS
10
135.202
20
-89.9798
11
136.44
21
-89.9798
0
LINE
8
BLACK
6
CONTINUOUS
10
136.44
20
-89.9798
11
135.773
21
-90.7417
0
LINE
8
BLACK
6
CONTINUOUS
10
135.773
20
-90.7417
11
136.059
21
-90.7417
0
LINE
8
BLACK
6
CONTINUOUS
10
136.059
20
-90.7417
11
136.249
21
-90.837
0
LINE
8
BLACK
6
CONTINUOUS
10
136.249
20
-90.837
11
136.345
21
-90.9322
0
LINE
8
BLACK
6
CONTINUOUS
10
136.345
20
-90.9322
11
136.44
21
-91.1227
0
LINE
8
BLACK
6
CONTINUOUS
10
136.44
20
-91.1227
11
136.44
21
-91.5989
0
LINE
8
BLACK
6
CONTINUOUS
10
136.44
20
-91.5989
11
136.345
21
-91.7894
0
LINE
8
BLACK
6
CONTINUOUS
10
136.345
20
-91.7894
11
136.249
21
-91.8846
0
LINE
8
BLACK
6
CONTINUOUS
10
136.249
20
-91.8846
11
136.059
21
-91.9798
0
LINE
8
BLACK
6
CONTINUOUS
10
136.059
20
-91.9798
11
135.488
21
-91.9798
0
LINE
8
BLACK
6
CONTINUOUS
10
135.488
20
-91.9798
11
135.297
21
-91.8846
0
LINE
8
BLACK
6
CONTINUOUS
10
135.297
20
-91.8846
11
135.202
21
-91.7894
0
LINE
8
BLACK
6
CONTINUOUS
10
138.345
20
-91.9798
11
137.202
21
-91.9798
0
LINE
8
BLACK
6
CONTINUOUS
10
137.773
20
-91.9798
11
137.773
21
-89.9798
0
LINE
8
BLACK
6
CONTINUOUS
10
137.773
20
-89.9798
11
137.583
21
-90.2656
0
LINE
8
BLACK
6
CONTINUOUS
10
137.583
20
-90.2656
11
137.392
21
-90.456
0
LINE
8
BLACK
6
CONTINUOUS
10
137.392
20
-90.456
11
137.202
21
-90.5513
0
LINE
8
BLACK
6
CONTINUOUS
10
140.154
20
-89.9798
11
139.202
21
-89.9798
0
LINE
8
BLACK
6
CONTINUOUS
10
139.202
20
-89.9798
11
139.107
21
-90.9322
0
LINE
8
BLACK
6
CONTINUOUS
10
139.107
20
-90.9322
11
139.202
21
-90.837
0
LINE
8
BLACK
6
CONTINUOUS
10
139.202
20
-90.837
11
139.392
21
-90.7417
0
LINE
8
BLACK
6
CONTINUOUS
10
139.392
20
-90.7417
11
139.868
21
-90.7417
0
LINE
8
BLACK
6
CONTINUOUS
10
139.868
20
-90.7417
11
140.059
21
-90.837
0
LINE
8
BLACK
6
CONTINUOUS
10
140.059
20
-90.837
11
140.154
21
-90.9322
0
LINE
8
BLACK
6
CONTINUOUS
10
140.154
20
-90.9322
11
140.249
21
-91.1227
0
LINE
8
BLACK
6
CONTINUOUS
10
140.249
20
-91.1227
11
140.249
21
-91.5989
0
LINE
8
BLACK
6
CONTINUOUS
10
140.249
20
-91.5989
11
140.154
21
-91.7894
0
LINE
8
BLACK
6
CONTINUOUS
10
140.154
20
-91.7894
11
140.059
21
-91.8846
0
LINE
8
BLACK
6
CONTINUOUS
10
140.059
20
-91.8846
11
139.868
21
-91.9798
0
LINE
8
BLACK
6
CONTINUOUS
10
139.868
20
-91.9798
11
139.392
21
-91.9798
0
LINE
8
BLACK
6
CONTINUOUS
10
139.392
20
-91.9798
11
139.202
21
-91.8846
0
LINE
8
BLACK
6
CONTINUOUS
10
139.202
20
-91.8846
11
139.107
21
-91.7894
0
LINE
8
BLACK
6
CONTINUOUS
10
141.011
20
-89.9798
11
141.011
21
-90.3608
0
LINE
8
BLACK
6
CONTINUOUS
10
141.773
20
-89.9798
11
141.773
21
-90.3608
0
LINE
8
BLACK
6
CONTINUOUS
10
144.726
20
-92.7417
11
144.63
21
-92.6465
0
LINE
8
BLACK
6
CONTINUOUS
10
144.63
20
-92.6465
11
144.44
21
-92.3608
0
LINE
8
BLACK
6
CONTINUOUS
10
144.44
20
-92.3608
11
144.345
21
-92.1703
0
LINE
8
BLACK
6
CONTINUOUS
10
144.345
20
-92.1703
11
144.249
21
-91.8846
0
LINE
8
BLACK
6
CONTINUOUS
10
144.249
20
-91.8846
11
144.154
21
-91.4084
0
LINE
8
BLACK
6
CONTINUOUS
10
144.154
20
-91.4084
11
144.154
21
-91.0275
0
LINE
8
BLACK
6
CONTINUOUS
10
144.154
20
-91.0275
11
144.249
21
-90.5513
0
LINE
8
BLACK
6
CONTINUOUS
10
144.249
20
-90.5513
11
144.345
21
-90.2656
0
LINE
8
BLACK
6
CONTINUOUS
10
144.345
20
-90.2656
11
144.44
21
-90.0751
0
LINE
8
BLACK
6
CONTINUOUS
10
144.44
20
-90.0751
11
144.63
21
-89.7894
0
LINE
8
BLACK
6
CONTINUOUS
10
144.63
20
-89.7894
11
144.726
21
-89.6941
0
LINE
8
BLACK
6
CONTINUOUS
10
145.297
20
-89.9798
11
146.63
21
-89.9798
0
LINE
8
BLACK
6
CONTINUOUS
10
146.63
20
-89.9798
11
145.773
21
-91.9798
0
LINE
8
BLACK
6
CONTINUOUS
10
148.44
20
-91.9798
11
147.297
21
-91.9798
0
LINE
8
BLACK
6
CONTINUOUS
10
147.868
20
-91.9798
11
147.868
21
-89.9798
0
LINE
8
BLACK
6
CONTINUOUS
10
147.868
20
-89.9798
11
147.678
21
-90.2656
0
LINE
8
BLACK
6
CONTINUOUS
10
147.678
20
-90.2656
11
147.488
21
-90.456
0
LINE
8
BLACK
6
CONTINUOUS
10
147.488
20
-90.456
11
147.297
21
-90.5513
0
LINE
8
BLACK
6
CONTINUOUS
10
150.821
20
-91.9798
11
150.821
21
-89.9798
0
LINE
8
BLACK
6
CONTINUOUS
10
151.678
20
-91.9798
11
151.678
21
-90.9322
0
LINE
8
BLACK
6
CONTINUOUS
10
151.678
20
-90.9322
11
151.583
21
-90.7417
0
LINE
8
BLACK
6
CONTINUOUS
10
151.583
20
-90.7417
11
151.392
21
-90.6465
0
LINE
8
BLACK
6
CONTINUOUS
10
151.392
20
-90.6465
11
151.107
21
-90.6465
0
LINE
8
BLACK
6
CONTINUOUS
10
151.107
20
-90.6465
11
150.916
21
-90.7417
0
LINE
8
BLACK
6
CONTINUOUS
10
150.916
20
-90.7417
11
150.821
21
-90.837
0
LINE
8
BLACK
6
CONTINUOUS
10
152.916
20
-91.9798
11
152.726
21
-91.8846
0
LINE
8
BLACK
6
CONTINUOUS
10
152.726
20
-91.8846
11
152.63
21
-91.7894
0
LINE
8
BLACK
6
CONTINUOUS
10
152.63
20
-91.7894
11
152.535
21
-91.5989
0
LINE
8
BLACK
6
CONTINUOUS
10
152.535
20
-91.5989
11
152.535
21
-91.0275
0
LINE
8
BLACK
6
CONTINUOUS
10
152.535
20
-91.0275
11
152.63
21
-90.837
0
LINE
8
BLACK
6
CONTINUOUS
10
152.63
20
-90.837
11
152.726
21
-90.7417
0
LINE
8
BLACK
6
CONTINUOUS
10
152.726
20
-90.7417
11
152.916
21
-90.6465
0
LINE
8
BLACK
6
CONTINUOUS
10
152.916
20
-90.6465
11
153.202
21
-90.6465
0
LINE
8
BLACK
6
CONTINUOUS
10
153.202
20
-90.6465
11
153.392
21
-90.7417
0
LINE
8
BLACK
6
CONTINUOUS
10
153.392
20
-90.7417
11
153.488
21
-90.837
0
LINE
8
BLACK
6
CONTINUOUS
10
153.488
20
-90.837
11
153.583
21
-91.0275
0
LINE
8
BLACK
6
CONTINUOUS
10
153.583
20
-91.0275
11
153.583
21
-91.5989
0
LINE
8
BLACK
6
CONTINUOUS
10
153.583
20
-91.5989
11
153.488
21
-91.7894
0
LINE
8
BLACK
6
CONTINUOUS
10
153.488
20
-91.7894
11
153.392
21
-91.8846
0
LINE
8
BLACK
6
CONTINUOUS
10
153.392
20
-91.8846
11
153.202
21
-91.9798
0
LINE
8
BLACK
6
CONTINUOUS
10
153.202
20
-91.9798
11
152.916
21
-91.9798
0
LINE
8
BLACK
6
CONTINUOUS
10
154.726
20
-91.9798
11
154.535
21
-91.8846
0
LINE
8
BLACK
6
CONTINUOUS
10
154.535
20
-91.8846
11
154.44
21
-91.6941
0
LINE
8
BLACK
6
CONTINUOUS
10
154.44
20
-91.6941
11
154.44
21
-89.9798
0
LINE
8
BLACK
6
CONTINUOUS
10
156.249
20
-91.8846
11
156.059
21
-91.9798
0
LINE
8
BLACK
6
CONTINUOUS
10
156.059
20
-91.9798
11
155.678
21
-91.9798
0
LINE
8
BLACK
6
CONTINUOUS
10
155.678
20
-91.9798
11
155.488
21
-91.8846
0
LINE
8
BLACK
6
CONTINUOUS
10
155.488
20
-91.8846
11
155.392
21
-91.6941
0
LINE
8
BLACK
6
CONTINUOUS
10
155.392
20
-91.6941
11
155.392
21
-90.9322
0
LINE
8
BLACK
6
CONTINUOUS
10
155.392
20
-90.9322
11
155.488
21
-90.7417
0
LINE
8
BLACK
6
CONTINUOUS
10
155.488
20
-90.7417
11
155.678
21
-90.6465
0
LINE
8
BLACK
6
CONTINUOUS
10
155.678
20
-90.6465
11
156.059
21
-90.6465
0
LINE
8
BLACK
6
CONTINUOUS
10
156.059
20
-90.6465
11
156.249
21
-90.7417
0
LINE
8
BLACK
6
CONTINUOUS
10
156.249
20
-90.7417
11
156.345
21
-90.9322
0
LINE
8
BLACK
6
CONTINUOUS
10
156.345
20
-90.9322
11
156.345
21
-91.1227
0
LINE
8
BLACK
6
CONTINUOUS
10
156.345
20
-91.1227
11
155.392
21
-91.3132
0
LINE
8
BLACK
6
CONTINUOUS
10
157.107
20
-91.8846
11
157.297
21
-91.9798
0
LINE
8
BLACK
6
CONTINUOUS
10
157.297
20
-91.9798
11
157.678
21
-91.9798
0
LINE
8
BLACK
6
CONTINUOUS
10
157.678
20
-91.9798
11
157.868
21
-91.8846
0
LINE
8
BLACK
6
CONTINUOUS
10
157.868
20
-91.8846
11
157.964
21
-91.6941
0
LINE
8
BLACK
6
CONTINUOUS
10
157.964
20
-91.6941
11
157.964
21
-91.5989
0
LINE
8
BLACK
6
CONTINUOUS
10
157.964
20
-91.5989
11
157.868
21
-91.4084
0
LINE
8
BLACK
6
CONTINUOUS
10
157.868
20
-91.4084
11
157.678
21
-91.3132
0
LINE
8
BLACK
6
CONTINUOUS
10
157.678
20
-91.3132
11
157.392
21
-91.3132
0
LINE
8
BLACK
6
CONTINUOUS
10
157.392
20
-91.3132
11
157.202
21
-91.2179
0
LINE
8
BLACK
6
CONTINUOUS
10
157.202
20
-91.2179
11
157.107
21
-91.0275
0
LINE
8
BLACK
6
CONTINUOUS
10
157.107
20
-91.0275
11
157.107
21
-90.9322
0
LINE
8
BLACK
6
CONTINUOUS
10
157.107
20
-90.9322
11
157.202
21
-90.7417
0
LINE
8
BLACK
6
CONTINUOUS
10
157.202
20
-90.7417
11
157.392
21
-90.6465
0
LINE
8
BLACK
6
CONTINUOUS
10
157.392
20
-90.6465
11
157.678
21
-90.6465
0
LINE
8
BLACK
6
CONTINUOUS
10
157.678
20
-90.6465
11
157.868
21
-90.7417
0
LINE
8
BLACK
6
CONTINUOUS
10
158.63
20
-92.7417
11
158.726
21
-92.6465
0
LINE
8
BLACK
6
CONTINUOUS
10
158.726
20
-92.6465
11
158.916
21
-92.3608
0
LINE
8
BLACK
6
CONTINUOUS
10
158.916
20
-92.3608
11
159.011
21
-92.1703
0
LINE
8
BLACK
6
CONTINUOUS
10
159.011
20
-92.1703
11
159.107
21
-91.8846
0
LINE
8
BLACK
6
CONTINUOUS
10
159.107
20
-91.8846
11
159.202
21
-91.4084
0
LINE
8
BLACK
6
CONTINUOUS
10
159.202
20
-91.4084
11
159.202
21
-91.0275
0
LINE
8
BLACK
6
CONTINUOUS
10
159.202
20
-91.0275
11
159.107
21
-90.5513
0
LINE
8
BLACK
6
CONTINUOUS
10
159.107
20
-90.5513
11
159.011
21
-90.2656
0
LINE
8
BLACK
6
CONTINUOUS
10
159.011
20
-90.2656
11
158.916
21
-90.0751
0
LINE
8
BLACK
6
CONTINUOUS
10
158.916
20
-90.0751
11
158.726
21
-89.7894
0
LINE
8
BLACK
6
CONTINUOUS
10
158.726
20
-89.7894
11
158.63
21
-89.6941
0
LINE
8
BLACK
6
CONTINUOUS
10
108.475
20
-93.205
11
108.475
21
-94.205
0
LINE
8
BLACK
6
CONTINUOUS
10
107.975
20
-93.705
11
108.975
21
-93.705
0
LINE
8
BLACK
6
CONTINUOUS
10
112.63
20
-94.6198
11
111.488
21
-94.6198
0
LINE
8
BLACK
6
CONTINUOUS
10
112.059
20
-94.6198
11
112.059
21
-92.6198
0
LINE
8
BLACK
6
CONTINUOUS
10
112.059
20
-92.6198
11
111.868
21
-92.9056
0
LINE
8
BLACK
6
CONTINUOUS
10
111.868
20
-92.9056
11
111.678
21
-93.096
0
LINE
8
BLACK
6
CONTINUOUS
10
111.678
20
-93.096
11
111.488
21
-93.1913
0
LINE
8
BLACK
6
CONTINUOUS
10
113.488
20
-94.4294
11
113.583
21
-94.5246
0
LINE
8
BLACK
6
CONTINUOUS
10
113.583
20
-94.5246
11
113.488
21
-94.6198
0
LINE
8
BLACK
6
CONTINUOUS
10
113.488
20
-94.6198
11
113.392
21
-94.5246
0
LINE
8
BLACK
6
CONTINUOUS
10
113.392
20
-94.5246
11
113.488
21
-94.4294
0
LINE
8
BLACK
6
CONTINUOUS
10
113.488
20
-94.4294
11
113.488
21
-94.6198
0
LINE
8
BLACK
6
CONTINUOUS
10
114.821
20
-92.6198
11
115.011
21
-92.6198
0
LINE
8
BLACK
6
CONTINUOUS
10
115.011
20
-92.6198
11
115.202
21
-92.7151
0
LINE
8
BLACK
6
CONTINUOUS
10
115.202
20
-92.7151
11
115.297
21
-92.8103
0
LINE
8
BLACK
6
CONTINUOUS
10
115.297
20
-92.8103
11
115.392
21
-93.0008
0
LINE
8
BLACK
6
CONTINUOUS
10
115.392
20
-93.0008
11
115.488
21
-93.3817
0
LINE
8
BLACK
6
CONTINUOUS
10
115.488
20
-93.3817
11
115.488
21
-93.8579
0
LINE
8
BLACK
6
CONTINUOUS
10
115.488
20
-93.8579
11
115.392
21
-94.2389
0
LINE
8
BLACK
6
CONTINUOUS
10
115.392
20
-94.2389
11
115.297
21
-94.4294
0
LINE
8
BLACK
6
CONTINUOUS
10
115.297
20
-94.4294
11
115.202
21
-94.5246
0
LINE
8
BLACK
6
CONTINUOUS
10
115.202
20
-94.5246
11
115.011
21
-94.6198
0
LINE
8
BLACK
6
CONTINUOUS
10
115.011
20
-94.6198
11
114.821
21
-94.6198
0
LINE
8
BLACK
6
CONTINUOUS
10
114.821
20
-94.6198
11
114.63
21
-94.5246
0
LINE
8
BLACK
6
CONTINUOUS
10
114.63
20
-94.5246
11
114.535
21
-94.4294
0
LINE
8
BLACK
6
CONTINUOUS
10
114.535
20
-94.4294
11
114.44
21
-94.2389
0
LINE
8
BLACK
6
CONTINUOUS
10
114.44
20
-94.2389
11
114.345
21
-93.8579
0
LINE
8
BLACK
6
CONTINUOUS
10
114.345
20
-93.8579
11
114.345
21
-93.3817
0
LINE
8
BLACK
6
CONTINUOUS
10
114.345
20
-93.3817
11
114.44
21
-93.0008
0
LINE
8
BLACK
6
CONTINUOUS
10
114.44
20
-93.0008
11
114.535
21
-92.8103
0
LINE
8
BLACK
6
CONTINUOUS
10
114.535
20
-92.8103
11
114.63
21
-92.7151
0
LINE
8
BLACK
6
CONTINUOUS
10
114.63
20
-92.7151
11
114.821
21
-92.6198
0
LINE
8
BLACK
6
CONTINUOUS
10
116.726
20
-92.6198
11
116.916
21
-92.6198
0
LINE
8
BLACK
6
CONTINUOUS
10
116.916
20
-92.6198
11
117.107
21
-92.7151
0
LINE
8
BLACK
6
CONTINUOUS
10
117.107
20
-92.7151
11
117.202
21
-92.8103
0
LINE
8
BLACK
6
CONTINUOUS
10
117.202
20
-92.8103
11
117.297
21
-93.0008
0
LINE
8
BLACK
6
CONTINUOUS
10
117.297
20
-93.0008
11
117.392
21
-93.3817
0
LINE
8
BLACK
6
CONTINUOUS
10
117.392
20
-93.3817
11
117.392
21
-93.8579
0
LINE
8
BLACK
6
CONTINUOUS
10
117.392
20
-93.8579
11
117.297
21
-94.2389
0
LINE
8
BLACK
6
CONTINUOUS
10
117.297
20
-94.2389
11
117.202
21
-94.4294
0
LINE
8
BLACK
6
CONTINUOUS
10
117.202
20
-94.4294
11
117.107
21
-94.5246
0
LINE
8
BLACK
6
CONTINUOUS
10
117.107
20
-94.5246
11
116.916
21
-94.6198
0
LINE
8
BLACK
6
CONTINUOUS
10
116.916
20
-94.6198
11
116.726
21
-94.6198
0
LINE
8
BLACK
6
CONTINUOUS
10
116.726
20
-94.6198
11
116.535
21
-94.5246
0
LINE
8
BLACK
6
CONTINUOUS
10
116.535
20
-94.5246
11
116.44
21
-94.4294
0
LINE
8
BLACK
6
CONTINUOUS
10
116.44
20
-94.4294
11
116.345
21
-94.2389
0
LINE
8
BLACK
6
CONTINUOUS
10
116.345
20
-94.2389
11
116.249
21
-93.8579
0
LINE
8
BLACK
6
CONTINUOUS
10
116.249
20
-93.8579
11
116.249
21
-93.3817
0
LINE
8
BLACK
6
CONTINUOUS
10
116.249
20
-93.3817
11
116.345
21
-93.0008
0
LINE
8
BLACK
6
CONTINUOUS
10
116.345
20
-93.0008
11
116.44
21
-92.8103
0
LINE
8
BLACK
6
CONTINUOUS
10
116.44
20
-92.8103
11
116.535
21
-92.7151
0
LINE
8
BLACK
6
CONTINUOUS
10
116.535
20
-92.7151
11
116.726
21
-92.6198
0
LINE
8
BLACK
6
CONTINUOUS
10
118.63
20
-92.6198
11
118.821
21
-92.6198
0
LINE
8
BLACK
6
CONTINUOUS
10
118.821
20
-92.6198
11
119.011
21
-92.7151
0
LINE
8
BLACK
6
CONTINUOUS
10
119.011
20
-92.7151
11
119.107
21
-92.8103
0
LINE
8
BLACK
6
CONTINUOUS
10
119.107
20
-92.8103
11
119.202
21
-93.0008
0
LINE
8
BLACK
6
CONTINUOUS
10
119.202
20
-93.0008
11
119.297
21
-93.3817
0
LINE
8
BLACK
6
CONTINUOUS
10
119.297
20
-93.3817
11
119.297
21
-93.8579
0
LINE
8
BLACK
6
CONTINUOUS
10
119.297
20
-93.8579
11
119.202
21
-94.2389
0
LINE
8
BLACK
6
CONTINUOUS
10
119.202
20
-94.2389
11
119.107
21
-94.4294
0
LINE
8
BLACK
6
CONTINUOUS
10
119.107
20
-94.4294
11
119.011
21
-94.5246
0
LINE
8
BLACK
6
CONTINUOUS
10
119.011
20
-94.5246
11
118.821
21
-94.6198
0
LINE
8
BLACK
6
CONTINUOUS
10
118.821
20
-94.6198
11
118.63
21
-94.6198
0
LINE
8
BLACK
6
CONTINUOUS
10
118.63
20
-94.6198
11
118.44
21
-94.5246
0
LINE
8
BLACK
6
CONTINUOUS
10
118.44
20
-94.5246
11
118.345
21
-94.4294
0
LINE
8
BLACK
6
CONTINUOUS
10
118.345
20
-94.4294
11
118.249
21
-94.2389
0
LINE
8
BLACK
6
CONTINUOUS
10
118.249
20
-94.2389
11
118.154
21
-93.8579
0
LINE
8
BLACK
6
CONTINUOUS
10
118.154
20
-93.8579
11
118.154
21
-93.3817
0
LINE
8
BLACK
6
CONTINUOUS
10
118.154
20
-93.3817
11
118.249
21
-93.0008
0
LINE
8
BLACK
6
CONTINUOUS
10
118.249
20
-93.0008
11
118.345
21
-92.8103
0
LINE
8
BLACK
6
CONTINUOUS
10
118.345
20
-92.8103
11
118.44
21
-92.7151
0
LINE
8
BLACK
6
CONTINUOUS
10
118.44
20
-92.7151
11
118.63
21
-92.6198
0
LINE
8
BLACK
6
CONTINUOUS
10
120.154
20
-94.6198
11
120.154
21
-93.2865
0
LINE
8
BLACK
6
CONTINUOUS
10
120.154
20
-93.477
11
120.249
21
-93.3817
0
LINE
8
BLACK
6
CONTINUOUS
10
120.249
20
-93.3817
11
120.44
21
-93.2865
0
LINE
8
BLACK
6
CONTINUOUS
10
120.44
20
-93.2865
11
120.726
21
-93.2865
0
LINE
8
BLACK
6
CONTINUOUS
10
120.726
20
-93.2865
11
120.916
21
-93.3817
0
LINE
8
BLACK
6
CONTINUOUS
10
120.916
20
-93.3817
11
121.011
21
-93.5722
0
LINE
8
BLACK
6
CONTINUOUS
10
121.011
20
-93.5722
11
121.011
21
-94.6198
0
LINE
8
BLACK
6
CONTINUOUS
10
121.011
20
-93.5722
11
121.107
21
-93.3817
0
LINE
8
BLACK
6
CONTINUOUS
10
121.107
20
-93.3817
11
121.297
21
-93.2865
0
LINE
8
BLACK
6
CONTINUOUS
10
121.297
20
-93.2865
11
121.583
21
-93.2865
0
LINE
8
BLACK
6
CONTINUOUS
10
121.583
20
-93.2865
11
121.773
21
-93.3817
0
LINE
8
BLACK
6
CONTINUOUS
10
121.773
20
-93.3817
11
121.868
21
-93.5722
0
LINE
8
BLACK
6
CONTINUOUS
10
121.868
20
-93.5722
11
121.868
21
-94.6198
0
LINE
8
BLACK
6
CONTINUOUS
10
122.821
20
-94.6198
11
122.821
21
-93.2865
0
LINE
8
BLACK
6
CONTINUOUS
10
122.821
20
-93.477
11
122.916
21
-93.3817
0
LINE
8
BLACK
6
CONTINUOUS
10
122.916
20
-93.3817
11
123.107
21
-93.2865
0
LINE
8
BLACK
6
CONTINUOUS
10
123.107
20
-93.2865
11
123.392
21
-93.2865
0
LINE
8
BLACK
6
CONTINUOUS
10
123.392
20
-93.2865
11
123.583
21
-93.3817
0
LINE
8
BLACK
6
CONTINUOUS
10
123.583
20
-93.3817
11
123.678
21
-93.5722
0
LINE
8
BLACK
6
CONTINUOUS
10
123.678
20
-93.5722
11
123.678
21
-94.6198
0
LINE
8
BLACK
6
CONTINUOUS
10
123.678
20
-93.5722
11
123.773
21
-93.3817
0
LINE
8
BLACK
6
CONTINUOUS
10
123.773
20
-93.3817
11
123.964
21
-93.2865
0
LINE
8
BLACK
6
CONTINUOUS
10
123.964
20
-93.2865
11
124.249
21
-93.2865
0
LINE
8
BLACK
6
CONTINUOUS
10
124.249
20
-93.2865
11
124.44
21
-93.3817
0
LINE
8
BLACK
6
CONTINUOUS
10
124.44
20
-93.3817
11
124.535
21
-93.5722
0
LINE
8
BLACK
6
CONTINUOUS
10
124.535
20
-93.5722
11
124.535
21
-94.6198
0
LINE
8
BLACK
6
CONTINUOUS
10
128.44
20
-92.5246
11
126.726
21
-95.096
0
LINE
8
BLACK
6
CONTINUOUS
10
131.011
20
-92.6198
11
131.202
21
-92.6198
0
LINE
8
BLACK
6
CONTINUOUS
10
131.202
20
-92.6198
11
131.392
21
-92.7151
0
LINE
8
BLACK
6
CONTINUOUS
10
131.392
20
-92.7151
11
131.488
21
-92.8103
0
LINE
8
BLACK
6
CONTINUOUS
10
131.488
20
-92.8103
11
131.583
21
-93.0008
0
LINE
8
BLACK
6
CONTINUOUS
10
131.583
20
-93.0008
11
131.678
21
-93.3817
0
LINE
8
BLACK
6
CONTINUOUS
10
131.678
20
-93.3817
11
131.678
21
-93.8579
0
LINE
8
BLACK
6
CONTINUOUS
10
131.678
20
-93.8579
11
131.583
21
-94.2389
0
LINE
8
BLACK
6
CONTINUOUS
10
131.583
20
-94.2389
11
131.488
21
-94.4294
0
LINE
8
BLACK
6
CONTINUOUS
10
131.488
20
-94.4294
11
131.392
21
-94.5246
0
LINE
8
BLACK
6
CONTINUOUS
10
131.392
20
-94.5246
11
131.202
21
-94.6198
0
LINE
8
BLACK
6
CONTINUOUS
10
131.202
20
-94.6198
11
131.011
21
-94.6198
0
LINE
8
BLACK
6
CONTINUOUS
10
131.011
20
-94.6198
11
130.821
21
-94.5246
0
LINE
8
BLACK
6
CONTINUOUS
10
130.821
20
-94.5246
11
130.726
21
-94.4294
0
LINE
8
BLACK
6
CONTINUOUS
10
130.726
20
-94.4294
11
130.63
21
-94.2389
0
LINE
8
BLACK
6
CONTINUOUS
10
130.63
20
-94.2389
11
130.535
21
-93.8579
0
LINE
8
BLACK
6
CONTINUOUS
10
130.535
20
-93.8579
11
130.535
21
-93.3817
0
LINE
8
BLACK
6
CONTINUOUS
10
130.535
20
-93.3817
11
130.63
21
-93.0008
0
LINE
8
BLACK
6
CONTINUOUS
10
130.63
20
-93.0008
11
130.726
21
-92.8103
0
LINE
8
BLACK
6
CONTINUOUS
10
130.726
20
-92.8103
11
130.821
21
-92.7151
0
LINE
8
BLACK
6
CONTINUOUS
10
130.821
20
-92.7151
11
131.011
21
-92.6198
0
LINE
8
BLACK
6
CONTINUOUS
10
132.535
20
-94.4294
11
132.63
21
-94.5246
0
LINE
8
BLACK
6
CONTINUOUS
10
132.63
20
-94.5246
11
132.535
21
-94.6198
0
LINE
8
BLACK
6
CONTINUOUS
10
132.535
20
-94.6198
11
132.44
21
-94.5246
0
LINE
8
BLACK
6
CONTINUOUS
10
132.44
20
-94.5246
11
132.535
21
-94.4294
0
LINE
8
BLACK
6
CONTINUOUS
10
132.535
20
-94.4294
11
132.535
21
-94.6198
0
LINE
8
BLACK
6
CONTINUOUS
10
133.868
20
-92.6198
11
134.059
21
-92.6198
0
LINE
8
BLACK
6
CONTINUOUS
10
134.059
20
-92.6198
11
134.249
21
-92.7151
0
LINE
8
BLACK
6
CONTINUOUS
10
134.249
20
-92.7151
11
134.345
21
-92.8103
0
LINE
8
BLACK
6
CONTINUOUS
10
134.345
20
-92.8103
11
134.44
21
-93.0008
0
LINE
8
BLACK
6
CONTINUOUS
10
134.44
20
-93.0008
11
134.535
21
-93.3817
0
LINE
8
BLACK
6
CONTINUOUS
10
134.535
20
-93.3817
11
134.535
21
-93.8579
0
LINE
8
BLACK
6
CONTINUOUS
10
134.535
20
-93.8579
11
134.44
21
-94.2389
0
LINE
8
BLACK
6
CONTINUOUS
10
134.44
20
-94.2389
11
134.345
21
-94.4294
0
LINE
8
BLACK
6
CONTINUOUS
10
134.345
20
-94.4294
11
134.249
21
-94.5246
0
LINE
8
BLACK
6
CONTINUOUS
10
134.249
20
-94.5246
11
134.059
21
-94.6198
0
LINE
8
BLACK
6
CONTINUOUS
10
134.059
20
-94.6198
11
133.868
21
-94.6198
0
LINE
8
BLACK
6
CONTINUOUS
10
133.868
20
-94.6198
11
133.678
21
-94.5246
0
LINE
8
BLACK
6
CONTINUOUS
10
133.678
20
-94.5246
11
133.583
21
-94.4294
0
LINE
8
BLACK
6
CONTINUOUS
10
133.583
20
-94.4294
11
133.488
21
-94.2389
0
LINE
8
BLACK
6
CONTINUOUS
10
133.488
20
-94.2389
11
133.392
21
-93.8579
0
LINE
8
BLACK
6
CONTINUOUS
10
133.392
20
-93.8579
11
133.392
21
-93.3817
0
LINE
8
BLACK
6
CONTINUOUS
10
133.392
20
-93.3817
11
133.488
21
-93.0008
0
LINE
8
BLACK
6
CONTINUOUS
10
133.488
20
-93.0008
11
133.583
21
-92.8103
0
LINE
8
BLACK
6
CONTINUOUS
10
133.583
20
-92.8103
11
133.678
21
-92.7151
0
LINE
8
BLACK
6
CONTINUOUS
10
133.678
20
-92.7151
11
133.868
21
-92.6198
0
LINE
8
BLACK
6
CONTINUOUS
10
135.202
20
-92.6198
11
136.44
21
-92.6198
0
LINE
8
BLACK
6
CONTINUOUS
10
136.44
20
-92.6198
11
135.773
21
-93.3817
0
LINE
8
BLACK
6
CONTINUOUS
10
135.773
20
-93.3817
11
136.059
21
-93.3817
0
LINE
8
BLACK
6
CONTINUOUS
10
136.059
20
-93.3817
11
136.249
21
-93.477
0
LINE
8
BLACK
6
CONTINUOUS
10
136.249
20
-93.477
11
136.345
21
-93.5722
0
LINE
8
BLACK
6
CONTINUOUS
10
136.345
20
-93.5722
11
136.44
21
-93.7627
0
LINE
8
BLACK
6
CONTINUOUS
10
136.44
20
-93.7627
11
136.44
21
-94.2389
0
LINE
8
BLACK
6
CONTINUOUS
10
136.44
20
-94.2389
11
136.345
21
-94.4294
0
LINE
8
BLACK
6
CONTINUOUS
10
136.345
20
-94.4294
11
136.249
21
-94.5246
0
LINE
8
BLACK
6
CONTINUOUS
10
136.249
20
-94.5246
11
136.059
21
-94.6198
0
LINE
8
BLACK
6
CONTINUOUS
10
136.059
20
-94.6198
11
135.488
21
-94.6198
0
LINE
8
BLACK
6
CONTINUOUS
10
135.488
20
-94.6198
11
135.297
21
-94.5246
0
LINE
8
BLACK
6
CONTINUOUS
10
135.297
20
-94.5246
11
135.202
21
-94.4294
0
LINE
8
BLACK
6
CONTINUOUS
10
137.392
20
-94.6198
11
137.773
21
-94.6198
0
LINE
8
BLACK
6
CONTINUOUS
10
137.773
20
-94.6198
11
137.964
21
-94.5246
0
LINE
8
BLACK
6
CONTINUOUS
10
137.964
20
-94.5246
11
138.059
21
-94.4294
0
LINE
8
BLACK
6
CONTINUOUS
10
138.059
20
-94.4294
11
138.249
21
-94.1436
0
LINE
8
BLACK
6
CONTINUOUS
10
138.249
20
-94.1436
11
138.345
21
-93.7627
0
LINE
8
BLACK
6
CONTINUOUS
10
138.345
20
-93.7627
11
138.345
21
-93.0008
0
LINE
8
BLACK
6
CONTINUOUS
10
138.345
20
-93.0008
11
138.249
21
-92.8103
0
LINE
8
BLACK
6
CONTINUOUS
10
138.249
20
-92.8103
11
138.154
21
-92.7151
0
LINE
8
BLACK
6
CONTINUOUS
10
138.154
20
-92.7151
11
137.964
21
-92.6198
0
LINE
8
BLACK
6
CONTINUOUS
10
137.964
20
-92.6198
11
137.583
21
-92.6198
0
LINE
8
BLACK
6
CONTINUOUS
10
137.583
20
-92.6198
11
137.392
21
-92.7151
0
LINE
8
BLACK
6
CONTINUOUS
10
137.392
20
-92.7151
11
137.297
21
-92.8103
0
LINE
8
BLACK
6
CONTINUOUS
10
137.297
20
-92.8103
11
137.202
21
-93.0008
0
LINE
8
BLACK
6
CONTINUOUS
10
137.202
20
-93.0008
11
137.202
21
-93.477
0
LINE
8
BLACK
6
CONTINUOUS
10
137.202
20
-93.477
11
137.297
21
-93.6675
0
LINE
8
BLACK
6
CONTINUOUS
10
137.297
20
-93.6675
11
137.392
21
-93.7627
0
LINE
8
BLACK
6
CONTINUOUS
10
137.392
20
-93.7627
11
137.583
21
-93.8579
0
LINE
8
BLACK
6
CONTINUOUS
10
137.583
20
-93.8579
11
137.964
21
-93.8579
0
LINE
8
BLACK
6
CONTINUOUS
10
137.964
20
-93.8579
11
138.154
21
-93.7627
0
LINE
8
BLACK
6
CONTINUOUS
10
138.154
20
-93.7627
11
138.249
21
-93.6675
0
LINE
8
BLACK
6
CONTINUOUS
10
138.249
20
-93.6675
11
138.345
21
-93.477
0
LINE
8
BLACK
6
CONTINUOUS
10
140.059
20
-93.2865
11
140.059
21
-94.6198
0
LINE
8
BLACK
6
CONTINUOUS
10
139.583
20
-92.5246
11
139.107
21
-93.9532
0
LINE
8
BLACK
6
CONTINUOUS
10
139.107
20
-93.9532
11
140.345
21
-93.9532
0
LINE
8
BLACK
6
CONTINUOUS
10
141.011
20
-92.6198
11
141.011
21
-93.0008
0
LINE
8
BLACK
6
CONTINUOUS
10
141.773
20
-92.6198
11
141.773
21
-93.0008
0
LINE
8
BLACK
6
CONTINUOUS
10
144.726
20
-95.3817
11
144.63
21
-95.2865
0
LINE
8
BLACK
6
CONTINUOUS
10
144.63
20
-95.2865
11
144.44
21
-95.0008
0
LINE
8
BLACK
6
CONTINUOUS
10
144.44
20
-95.0008
11
144.345
21
-94.8103
0
LINE
8
BLACK
6
CONTINUOUS
10
144.345
20
-94.8103
11
144.249
21
-94.5246
0
LINE
8
BLACK
6
CONTINUOUS
10
144.249
20
-94.5246
11
144.154
21
-94.0484
0
LINE
8
BLACK
6
CONTINUOUS
10
144.154
20
-94.0484
11
144.154
21
-93.6675
0
LINE
8
BLACK
6
CONTINUOUS
10
144.154
20
-93.6675
11
144.249
21
-93.1913
0
LINE
8
BLACK
6
CONTINUOUS
10
144.249
20
-93.1913
11
144.345
21
-92.9056
0
LINE
8
BLACK
6
CONTINUOUS
10
144.345
20
-92.9056
11
144.44
21
-92.7151
0
LINE
8
BLACK
6
CONTINUOUS
10
144.44
20
-92.7151
11
144.63
21
-92.4294
0
LINE
8
BLACK
6
CONTINUOUS
10
144.63
20
-92.4294
11
144.726
21
-92.3341
0
LINE
8
BLACK
6
CONTINUOUS
10
145.392
20
-92.8103
11
145.488
21
-92.7151
0
LINE
8
BLACK
6
CONTINUOUS
10
145.488
20
-92.7151
11
145.678
21
-92.6198
0
LINE
8
BLACK
6
CONTINUOUS
10
145.678
20
-92.6198
11
146.154
21
-92.6198
0
LINE
8
BLACK
6
CONTINUOUS
10
146.154
20
-92.6198
11
146.345
21
-92.7151
0
LINE
8
BLACK
6
CONTINUOUS
10
146.345
20
-92.7151
11
146.44
21
-92.8103
0
LINE
8
BLACK
6
CONTINUOUS
10
146.44
20
-92.8103
11
146.535
21
-93.0008
0
LINE
8
BLACK
6
CONTINUOUS
10
146.535
20
-93.0008
11
146.535
21
-93.1913
0
LINE
8
BLACK
6
CONTINUOUS
10
146.535
20
-93.1913
11
146.44
21
-93.477
0
LINE
8
BLACK
6
CONTINUOUS
10
146.44
20
-93.477
11
145.297
21
-94.6198
0
LINE
8
BLACK
6
CONTINUOUS
10
145.297
20
-94.6198
11
146.535
21
-94.6198
0
LINE
8
BLACK
6
CONTINUOUS
10
148.916
20
-94.6198
11
148.916
21
-92.6198
0
LINE
8
BLACK
6
CONTINUOUS
10
149.773
20
-94.6198
11
149.773
21
-93.5722
0
LINE
8
BLACK
6
CONTINUOUS
10
149.773
20
-93.5722
11
149.678
21
-93.3817
0
LINE
8
BLACK
6
CONTINUOUS
10
149.678
20
-93.3817
11
149.488
21
-93.2865
0
LINE
8
BLACK
6
CONTINUOUS
10
149.488
20
-93.2865
11
149.202
21
-93.2865
0
LINE
8
BLACK
6
CONTINUOUS
10
149.202
20
-93.2865
11
149.011
21
-93.3817
0
LINE
8
BLACK
6
CONTINUOUS
10
149.011
20
-93.3817
11
148.916
21
-93.477
0
LINE
8
BLACK
6
CONTINUOUS
10
151.011
20
-94.6198
11
150.821
21
-94.5246
0
LINE
8
BLACK
6
CONTINUOUS
10
150.821
20
-94.5246
11
150.726
21
-94.4294
0
LINE
8
BLACK
6
CONTINUOUS
10
150.726
20
-94.4294
11
150.63
21
-94.2389
0
LINE
8
BLACK
6
CONTINUOUS
10
150.63
20
-94.2389
11
150.63
21
-93.6675
0
LINE
8
BLACK
6
CONTINUOUS
10
150.63
20
-93.6675
11
150.726
21
-93.477
0
LINE
8
BLACK
6
CONTINUOUS
10
150.726
20
-93.477
11
150.821
21
-93.3817
0
LINE
8
BLACK
6
CONTINUOUS
10
150.821
20
-93.3817
11
151.011
21
-93.2865
0
LINE
8
BLACK
6
CONTINUOUS
10
151.011
20
-93.2865
11
151.297
21
-93.2865
0
LINE
8
BLACK
6
CONTINUOUS
10
151.297
20
-93.2865
11
151.488
21
-93.3817
0
LINE
8
BLACK
6
CONTINUOUS
10
151.488
20
-93.3817
11
151.583
21
-93.477
0
LINE
8
BLACK
6
CONTINUOUS
10
151.583
20
-93.477
11
151.678
21
-93.6675
0
LINE
8
BLACK
6
CONTINUOUS
10
151.678
20
-93.6675
11
151.678
21
-94.2389
0
LINE
8
BLACK
6
CONTINUOUS
10
151.678
20
-94.2389
11
151.583
21
-94.4294
0
LINE
8
BLACK
6
CONTINUOUS
10
151.583
20
-94.4294
11
151.488
21
-94.5246
0
LINE
8
BLACK
6
CONTINUOUS
10
151.488
20
-94.5246
11
151.297
21
-94.6198
0
LINE
8
BLACK
6
CONTINUOUS
10
151.297
20
-94.6198
11
151.011
21
-94.6198
0
LINE
8
BLACK
6
CONTINUOUS
10
152.821
20
-94.6198
11
152.63
21
-94.5246
0
LINE
8
BLACK
6
CONTINUOUS
10
152.63
20
-94.5246
11
152.535
21
-94.3341
0
LINE
8
BLACK
6
CONTINUOUS
10
152.535
20
-94.3341
11
152.535
21
-92.6198
0
LINE
8
BLACK
6
CONTINUOUS
10
154.345
20
-94.5246
11
154.154
21
-94.6198
0
LINE
8
BLACK
6
CONTINUOUS
10
154.154
20
-94.6198
11
153.773
21
-94.6198
0
LINE
8
BLACK
6
CONTINUOUS
10
153.773
20
-94.6198
11
153.583
21
-94.5246
0
LINE
8
BLACK
6
CONTINUOUS
10
153.583
20
-94.5246
11
153.488
21
-94.3341
0
LINE
8
BLACK
6
CONTINUOUS
10
153.488
20
-94.3341
11
153.488
21
-93.5722
0
LINE
8
BLACK
6
CONTINUOUS
10
153.488
20
-93.5722
11
153.583
21
-93.3817
0
LINE
8
BLACK
6
CONTINUOUS
10
153.583
20
-93.3817
11
153.773
21
-93.2865
0
LINE
8
BLACK
6
CONTINUOUS
10
153.773
20
-93.2865
11
154.154
21
-93.2865
0
LINE
8
BLACK
6
CONTINUOUS
10
154.154
20
-93.2865
11
154.345
21
-93.3817
0
LINE
8
BLACK
6
CONTINUOUS
10
154.345
20
-93.3817
11
154.44
21
-93.5722
0
LINE
8
BLACK
6
CONTINUOUS
10
154.44
20
-93.5722
11
154.44
21
-93.7627
0
LINE
8
BLACK
6
CONTINUOUS
10
154.44
20
-93.7627
11
153.488
21
-93.9532
0
LINE
8
BLACK
6
CONTINUOUS
10
155.202
20
-94.5246
11
155.392
21
-94.6198
0
LINE
8
BLACK
6
CONTINUOUS
10
155.392
20
-94.6198
11
155.773
21
-94.6198
0
LINE
8
BLACK
6
CONTINUOUS
10
155.773
20
-94.6198
11
155.964
21
-94.5246
0
LINE
8
BLACK
6
CONTINUOUS
10
155.964
20
-94.5246
11
156.059
21
-94.3341
0
LINE
8
BLACK
6
CONTINUOUS
10
156.059
20
-94.3341
11
156.059
21
-94.2389
0
LINE
8
BLACK
6
CONTINUOUS
10
156.059
20
-94.2389
11
155.964
21
-94.0484
0
LINE
8
BLACK
6
CONTINUOUS
10
155.964
20
-94.0484
11
155.773
21
-93.9532
0
LINE
8
BLACK
6
CONTINUOUS
10
155.773
20
-93.9532
11
155.488
21
-93.9532
0
LINE
8
BLACK
6
CONTINUOUS
10
155.488
20
-93.9532
11
155.297
21
-93.8579
0
LINE
8
BLACK
6
CONTINUOUS
10
155.297
20
-93.8579
11
155.202
21
-93.6675
0
LINE
8
BLACK
6
CONTINUOUS
10
155.202
20
-93.6675
11
155.202
21
-93.5722
0
LINE
8
BLACK
6
CONTINUOUS
10
155.202
20
-93.5722
11
155.297
21
-93.3817
0
LINE
8
BLACK
6
CONTINUOUS
10
155.297
20
-93.3817
11
155.488
21
-93.2865
0
LINE
8
BLACK
6
CONTINUOUS
10
155.488
20
-93.2865
11
155.773
21
-93.2865
0
LINE
8
BLACK
6
CONTINUOUS
10
155.773
20
-93.2865
11
155.964
21
-93.3817
0
LINE
8
BLACK
6
CONTINUOUS
10
156.726
20
-95.3817
11
156.821
21
-95.2865
0
LINE
8
BLACK
6
CONTINUOUS
10
156.821
20
-95.2865
11
157.011
21
-95.0008
0
LINE
8
BLACK
6
CONTINUOUS
10
157.011
20
-95.0008
11
157.107
21
-94.8103
0
LINE
8
BLACK
6
CONTINUOUS
10
157.107
20
-94.8103
11
157.202
21
-94.5246
0
LINE
8
BLACK
6
CONTINUOUS
10
157.202
20
-94.5246
11
157.297
21
-94.0484
0
LINE
8
BLACK
6
CONTINUOUS
10
157.297
20
-94.0484
11
157.297
21
-93.6675
0
LINE
8
BLACK
6
CONTINUOUS
10
157.297
20
-93.6675
11
157.202
21
-93.1913
0
LINE
8
BLACK
6
CONTINUOUS
10
157.202
20
-93.1913
11
157.107
21
-92.9056
0
LINE
8
BLACK
6
CONTINUOUS
10
157.107
20
-92.9056
11
157.011
21
-92.7151
0
LINE
8
BLACK
6
CONTINUOUS
10
157.011
20
-92.7151
11
156.821
21
-92.4294
0
LINE
8
BLACK
6
CONTINUOUS
10
156.821
20
-92.4294
11
156.726
21
-92.3341
  0
ENDSEC
  0
EOF
