G04 #@! TF.GenerationSoftware,KiCad,Pcbnew,7.0.7*
G04 #@! TF.CreationDate,2023-11-20T01:19:09+00:00*
G04 #@! TF.ProjectId,N2Graphics,4e324772-6170-4686-9963-732e6b696361,1.0*
G04 #@! TF.SameCoordinates,Original*
G04 #@! TF.FileFunction,Soldermask,Bot*
G04 #@! TF.FilePolarity,Negative*
%FSLAX46Y46*%
G04 Gerber Fmt 4.6, Leading zero omitted, Abs format (unit mm)*
G04 Created by KiCad (PCBNEW 7.0.7) date 2023-11-20 01:19:09*
%MOMM*%
%LPD*%
G01*
G04 APERTURE LIST*
%ADD10C,2.000000*%
%ADD11R,1.500000X1.500000*%
%ADD12C,1.500000*%
%ADD13R,1.600000X1.600000*%
%ADD14O,1.600000X1.600000*%
%ADD15C,1.600000*%
G04 APERTURE END LIST*
D10*
X111488750Y-75813352D03*
D11*
X127268962Y-75914216D03*
D12*
X124728962Y-75914216D03*
X122188962Y-75914216D03*
D13*
X136000000Y-56000000D03*
D14*
X138540000Y-56000000D03*
X141080000Y-56000000D03*
X143620000Y-56000000D03*
X146160000Y-56000000D03*
X148700000Y-56000000D03*
X151240000Y-56000000D03*
X151240000Y-48380000D03*
X148700000Y-48380000D03*
X146160000Y-48380000D03*
X143620000Y-48380000D03*
X141080000Y-48380000D03*
X138540000Y-48380000D03*
X136000000Y-48380000D03*
D10*
X116971788Y-75962828D03*
D13*
X140719794Y-76000000D03*
D14*
X133099794Y-76000000D03*
D15*
X130447432Y-50944283D03*
X130447432Y-53444283D03*
D13*
X112000000Y-56000000D03*
D14*
X114540000Y-56000000D03*
X117080000Y-56000000D03*
X119620000Y-56000000D03*
X122160000Y-56000000D03*
X124700000Y-56000000D03*
X127240000Y-56000000D03*
X127240000Y-48380000D03*
X124700000Y-48380000D03*
X122160000Y-48380000D03*
X119620000Y-48380000D03*
X117080000Y-48380000D03*
X114540000Y-48380000D03*
X112000000Y-48380000D03*
D15*
X130623978Y-64834547D03*
X130623978Y-67334547D03*
D13*
X112000000Y-70000000D03*
D14*
X114540000Y-70000000D03*
X117080000Y-70000000D03*
X119620000Y-70000000D03*
X122160000Y-70000000D03*
X124700000Y-70000000D03*
X127240000Y-70000000D03*
X127240000Y-62380000D03*
X124700000Y-62380000D03*
X122160000Y-62380000D03*
X119620000Y-62380000D03*
X117080000Y-62380000D03*
X114540000Y-62380000D03*
X112000000Y-62380000D03*
D13*
X157042130Y-76000000D03*
D14*
X149422130Y-76000000D03*
D15*
X145133336Y-77194891D03*
X145133336Y-74694891D03*
D13*
X136000000Y-70000000D03*
D14*
X138540000Y-70000000D03*
X141080000Y-70000000D03*
X143620000Y-70000000D03*
X146160000Y-70000000D03*
X148700000Y-70000000D03*
X151240000Y-70000000D03*
X151240000Y-62380000D03*
X148700000Y-62380000D03*
X146160000Y-62380000D03*
X143620000Y-62380000D03*
X141080000Y-62380000D03*
X138540000Y-62380000D03*
X136000000Y-62380000D03*
D15*
X157050096Y-48473501D03*
D14*
X157050096Y-61173501D03*
M02*
