  0
SECTION
  2
HEADER
  9
$ANGBASE
  50
0.0
  9
$ANGDIR
  70
1
  9
$MEASUREMENT
  70
1
  0
ENDSEC
  0
SECTION
  2
TABLES
  0
TABLE
  2
LTYPE
  70
4
  0
LTYPE
  5
40F
  2
CONTINUOUS
  70
0
  3
Solid line
  72
65
  73
0
  40
0.0
  0
LTYPE
  5
410
  2
DASHDOT
 70
0
  3
Dash Dot ____ _ ____ _
 72
65
 73
4
 40
2.0
 49
1.25
 49
-0.25
 49
0.25
 49
-0.25
  0
LTYPE
  5
411
  2
DASHED
 70
0
  3
Dashed __ __ __ __ __
 72
65
 73
2
 40
0.75
 49
0.5
 49
-0.25
  0
LTYPE
  5
43B
  2
DOTTED
 70
0
  3
Dotted .  .  .  .
 72
65
 73
2
 40
0.2
 49
0.0
 49
-0.2
  0
ENDTAB
  0
TABLE
  2
STYLE
  70
4
  0
STYLE
  2
KICAD
  70
0
  40
0
  41
1
  42
1
  50
0
  71
0
  3
isocp.shx
  0
STYLE
  2
KICADB
  70
0
  40
0
  41
1
  42
1
  50
0
  71
0
  3
isocp.shx
  0
STYLE
  2
KICADI
  70
0
  40
0
  41
1
  42
1
  50
15
  71
0
  3
isocp.shx
  0
STYLE
  2
KICADBI
  70
0
  40
0
  41
1
  42
1
  50
15
  71
0
  3
isocp.shx
  0
ENDTAB
  0
TABLE
  2
LAYER
  70
1
  0
LAYER
  2
BLACK
  70
0
  62
7
  6
CONTINUOUS
  0
ENDTAB
  0
ENDSEC
  0
SECTION
  2
ENTITIES
0
LINE
8
BLACK
6
CONTINUOUS
10
109
20
-82
11
109
21
-44
0
LINE
8
BLACK
6
CONTINUOUS
10
109
20
-44
11
160
21
-44
0
LINE
8
BLACK
6
CONTINUOUS
10
160
20
-44
11
160
21
-82
0
LINE
8
BLACK
6
CONTINUOUS
10
109
20
-82
11
160
21
-82
0
LINE
8
BLACK
6
CONTINUOUS
10
111.583
20
-85.1398
11
111.583
21
-83.1398
0
LINE
8
BLACK
6
CONTINUOUS
10
111.583
20
-83.1398
11
112.059
21
-83.1398
0
LINE
8
BLACK
6
CONTINUOUS
10
112.059
20
-83.1398
11
112.345
21
-83.2351
0
LINE
8
BLACK
6
CONTINUOUS
10
112.345
20
-83.2351
11
112.535
21
-83.4256
0
LINE
8
BLACK
6
CONTINUOUS
10
112.535
20
-83.4256
11
112.63
21
-83.616
0
LINE
8
BLACK
6
CONTINUOUS
10
112.63
20
-83.616
11
112.726
21
-83.997
0
LINE
8
BLACK
6
CONTINUOUS
10
112.726
20
-83.997
11
112.726
21
-84.2827
0
LINE
8
BLACK
6
CONTINUOUS
10
112.726
20
-84.2827
11
112.63
21
-84.6636
0
LINE
8
BLACK
6
CONTINUOUS
10
112.63
20
-84.6636
11
112.535
21
-84.8541
0
LINE
8
BLACK
6
CONTINUOUS
10
112.535
20
-84.8541
11
112.345
21
-85.0446
0
LINE
8
BLACK
6
CONTINUOUS
10
112.345
20
-85.0446
11
112.059
21
-85.1398
0
LINE
8
BLACK
6
CONTINUOUS
10
112.059
20
-85.1398
11
111.583
21
-85.1398
0
LINE
8
BLACK
6
CONTINUOUS
10
113.583
20
-85.1398
11
113.583
21
-83.8065
0
LINE
8
BLACK
6
CONTINUOUS
10
113.583
20
-84.1875
11
113.678
21
-83.997
0
LINE
8
BLACK
6
CONTINUOUS
10
113.678
20
-83.997
11
113.773
21
-83.9017
0
LINE
8
BLACK
6
CONTINUOUS
10
113.773
20
-83.9017
11
113.964
21
-83.8065
0
LINE
8
BLACK
6
CONTINUOUS
10
113.964
20
-83.8065
11
114.154
21
-83.8065
0
LINE
8
BLACK
6
CONTINUOUS
10
114.821
20
-85.1398
11
114.821
21
-83.8065
0
LINE
8
BLACK
6
CONTINUOUS
10
114.821
20
-83.1398
11
114.726
21
-83.2351
0
LINE
8
BLACK
6
CONTINUOUS
10
114.726
20
-83.2351
11
114.821
21
-83.3303
0
LINE
8
BLACK
6
CONTINUOUS
10
114.821
20
-83.3303
11
114.916
21
-83.2351
0
LINE
8
BLACK
6
CONTINUOUS
10
114.916
20
-83.2351
11
114.821
21
-83.1398
0
LINE
8
BLACK
6
CONTINUOUS
10
114.821
20
-83.1398
11
114.821
21
-83.3303
0
LINE
8
BLACK
6
CONTINUOUS
10
116.059
20
-85.1398
11
115.868
21
-85.0446
0
LINE
8
BLACK
6
CONTINUOUS
10
115.868
20
-85.0446
11
115.773
21
-84.8541
0
LINE
8
BLACK
6
CONTINUOUS
10
115.773
20
-84.8541
11
115.773
21
-83.1398
0
LINE
8
BLACK
6
CONTINUOUS
10
117.107
20
-85.1398
11
116.916
21
-85.0446
0
LINE
8
BLACK
6
CONTINUOUS
10
116.916
20
-85.0446
11
116.821
21
-84.8541
0
LINE
8
BLACK
6
CONTINUOUS
10
116.821
20
-84.8541
11
116.821
21
-83.1398
0
LINE
8
BLACK
6
CONTINUOUS
10
119.392
20
-85.1398
11
119.392
21
-83.1398
0
LINE
8
BLACK
6
CONTINUOUS
10
119.392
20
-83.1398
11
120.059
21
-84.5684
0
LINE
8
BLACK
6
CONTINUOUS
10
120.059
20
-84.5684
11
120.726
21
-83.1398
0
LINE
8
BLACK
6
CONTINUOUS
10
120.726
20
-83.1398
11
120.726
21
-85.1398
0
LINE
8
BLACK
6
CONTINUOUS
10
122.535
20
-85.1398
11
122.535
21
-84.0922
0
LINE
8
BLACK
6
CONTINUOUS
10
122.535
20
-84.0922
11
122.44
21
-83.9017
0
LINE
8
BLACK
6
CONTINUOUS
10
122.44
20
-83.9017
11
122.249
21
-83.8065
0
LINE
8
BLACK
6
CONTINUOUS
10
122.249
20
-83.8065
11
121.868
21
-83.8065
0
LINE
8
BLACK
6
CONTINUOUS
10
121.868
20
-83.8065
11
121.678
21
-83.9017
0
LINE
8
BLACK
6
CONTINUOUS
10
122.535
20
-85.0446
11
122.345
21
-85.1398
0
LINE
8
BLACK
6
CONTINUOUS
10
122.345
20
-85.1398
11
121.868
21
-85.1398
0
LINE
8
BLACK
6
CONTINUOUS
10
121.868
20
-85.1398
11
121.678
21
-85.0446
0
LINE
8
BLACK
6
CONTINUOUS
10
121.678
20
-85.0446
11
121.583
21
-84.8541
0
LINE
8
BLACK
6
CONTINUOUS
10
121.583
20
-84.8541
11
121.583
21
-84.6636
0
LINE
8
BLACK
6
CONTINUOUS
10
121.583
20
-84.6636
11
121.678
21
-84.4732
0
LINE
8
BLACK
6
CONTINUOUS
10
121.678
20
-84.4732
11
121.868
21
-84.3779
0
LINE
8
BLACK
6
CONTINUOUS
10
121.868
20
-84.3779
11
122.345
21
-84.3779
0
LINE
8
BLACK
6
CONTINUOUS
10
122.345
20
-84.3779
11
122.535
21
-84.2827
0
LINE
8
BLACK
6
CONTINUOUS
10
123.488
20
-83.8065
11
123.488
21
-85.8065
0
LINE
8
BLACK
6
CONTINUOUS
10
123.488
20
-83.9017
11
123.678
21
-83.8065
0
LINE
8
BLACK
6
CONTINUOUS
10
123.678
20
-83.8065
11
124.059
21
-83.8065
0
LINE
8
BLACK
6
CONTINUOUS
10
124.059
20
-83.8065
11
124.249
21
-83.9017
0
LINE
8
BLACK
6
CONTINUOUS
10
124.249
20
-83.9017
11
124.345
21
-83.997
0
LINE
8
BLACK
6
CONTINUOUS
10
124.345
20
-83.997
11
124.44
21
-84.1875
0
LINE
8
BLACK
6
CONTINUOUS
10
124.44
20
-84.1875
11
124.44
21
-84.7589
0
LINE
8
BLACK
6
CONTINUOUS
10
124.44
20
-84.7589
11
124.345
21
-84.9494
0
LINE
8
BLACK
6
CONTINUOUS
10
124.345
20
-84.9494
11
124.249
21
-85.0446
0
LINE
8
BLACK
6
CONTINUOUS
10
124.249
20
-85.0446
11
124.059
21
-85.1398
0
LINE
8
BLACK
6
CONTINUOUS
10
124.059
20
-85.1398
11
123.678
21
-85.1398
0
LINE
8
BLACK
6
CONTINUOUS
10
123.678
20
-85.1398
11
123.488
21
-85.0446
0
LINE
8
BLACK
6
CONTINUOUS
10
125.297
20
-84.9494
11
125.392
21
-85.0446
0
LINE
8
BLACK
6
CONTINUOUS
10
125.392
20
-85.0446
11
125.297
21
-85.1398
0
LINE
8
BLACK
6
CONTINUOUS
10
125.297
20
-85.1398
11
125.202
21
-85.0446
0
LINE
8
BLACK
6
CONTINUOUS
10
125.202
20
-85.0446
11
125.297
21
-84.9494
0
LINE
8
BLACK
6
CONTINUOUS
10
125.297
20
-84.9494
11
125.297
21
-85.1398
0
LINE
8
BLACK
6
CONTINUOUS
10
125.297
20
-83.9017
11
125.392
21
-83.997
0
LINE
8
BLACK
6
CONTINUOUS
10
125.392
20
-83.997
11
125.297
21
-84.0922
0
LINE
8
BLACK
6
CONTINUOUS
10
125.297
20
-84.0922
11
125.202
21
-83.997
0
LINE
8
BLACK
6
CONTINUOUS
10
125.202
20
-83.997
11
125.297
21
-83.9017
0
LINE
8
BLACK
6
CONTINUOUS
10
125.297
20
-83.9017
11
125.297
21
-84.0922
  0
ENDSEC
  0
EOF
