G04 #@! TF.GenerationSoftware,KiCad,Pcbnew,(5.1.5)-3*
G04 #@! TF.CreationDate,2020-05-09T19:05:57+01:00*
G04 #@! TF.ProjectId,gardenlight,67617264-656e-46c6-9967-68742e6b6963,1.0.0*
G04 #@! TF.SameCoordinates,Original*
G04 #@! TF.FileFunction,Legend,Bot*
G04 #@! TF.FilePolarity,Positive*
%FSLAX46Y46*%
G04 Gerber Fmt 4.6, Leading zero omitted, Abs format (unit mm)*
G04 Created by KiCad (PCBNEW (5.1.5)-3) date 2020-05-09 19:05:57*
%MOMM*%
%LPD*%
G04 APERTURE LIST*
%ADD10C,0.150000*%
G04 APERTURE END LIST*
D10*
X124030761Y-90892380D02*
X123697428Y-91892380D01*
X123364095Y-90892380D01*
X122649809Y-91844761D02*
X122745047Y-91892380D01*
X122935523Y-91892380D01*
X123030761Y-91844761D01*
X123078380Y-91749523D01*
X123078380Y-91368571D01*
X123030761Y-91273333D01*
X122935523Y-91225714D01*
X122745047Y-91225714D01*
X122649809Y-91273333D01*
X122602190Y-91368571D01*
X122602190Y-91463809D01*
X123078380Y-91559047D01*
X122173619Y-91892380D02*
X122173619Y-91225714D01*
X122173619Y-91416190D02*
X122126000Y-91320952D01*
X122078380Y-91273333D01*
X121983142Y-91225714D01*
X121887904Y-91225714D01*
X121602190Y-91844761D02*
X121506952Y-91892380D01*
X121316476Y-91892380D01*
X121221238Y-91844761D01*
X121173619Y-91749523D01*
X121173619Y-91701904D01*
X121221238Y-91606666D01*
X121316476Y-91559047D01*
X121459333Y-91559047D01*
X121554571Y-91511428D01*
X121602190Y-91416190D01*
X121602190Y-91368571D01*
X121554571Y-91273333D01*
X121459333Y-91225714D01*
X121316476Y-91225714D01*
X121221238Y-91273333D01*
X120745047Y-91892380D02*
X120745047Y-91225714D01*
X120745047Y-90892380D02*
X120792666Y-90940000D01*
X120745047Y-90987619D01*
X120697428Y-90940000D01*
X120745047Y-90892380D01*
X120745047Y-90987619D01*
X120126000Y-91892380D02*
X120221238Y-91844761D01*
X120268857Y-91797142D01*
X120316476Y-91701904D01*
X120316476Y-91416190D01*
X120268857Y-91320952D01*
X120221238Y-91273333D01*
X120126000Y-91225714D01*
X119983142Y-91225714D01*
X119887904Y-91273333D01*
X119840285Y-91320952D01*
X119792666Y-91416190D01*
X119792666Y-91701904D01*
X119840285Y-91797142D01*
X119887904Y-91844761D01*
X119983142Y-91892380D01*
X120126000Y-91892380D01*
X119364095Y-91225714D02*
X119364095Y-91892380D01*
X119364095Y-91320952D02*
X119316476Y-91273333D01*
X119221238Y-91225714D01*
X119078380Y-91225714D01*
X118983142Y-91273333D01*
X118935523Y-91368571D01*
X118935523Y-91892380D01*
X117173619Y-91892380D02*
X117745047Y-91892380D01*
X117459333Y-91892380D02*
X117459333Y-90892380D01*
X117554571Y-91035238D01*
X117649809Y-91130476D01*
X117745047Y-91178095D01*
X116745047Y-91797142D02*
X116697428Y-91844761D01*
X116745047Y-91892380D01*
X116792666Y-91844761D01*
X116745047Y-91797142D01*
X116745047Y-91892380D01*
X116078380Y-90892380D02*
X115983142Y-90892380D01*
X115887904Y-90940000D01*
X115840285Y-90987619D01*
X115792666Y-91082857D01*
X115745047Y-91273333D01*
X115745047Y-91511428D01*
X115792666Y-91701904D01*
X115840285Y-91797142D01*
X115887904Y-91844761D01*
X115983142Y-91892380D01*
X116078380Y-91892380D01*
X116173619Y-91844761D01*
X116221238Y-91797142D01*
X116268857Y-91701904D01*
X116316476Y-91511428D01*
X116316476Y-91273333D01*
X116268857Y-91082857D01*
X116221238Y-90987619D01*
X116173619Y-90940000D01*
X116078380Y-90892380D01*
X115316476Y-91797142D02*
X115268857Y-91844761D01*
X115316476Y-91892380D01*
X115364095Y-91844761D01*
X115316476Y-91797142D01*
X115316476Y-91892380D01*
X114649809Y-90892380D02*
X114554571Y-90892380D01*
X114459333Y-90940000D01*
X114411714Y-90987619D01*
X114364095Y-91082857D01*
X114316476Y-91273333D01*
X114316476Y-91511428D01*
X114364095Y-91701904D01*
X114411714Y-91797142D01*
X114459333Y-91844761D01*
X114554571Y-91892380D01*
X114649809Y-91892380D01*
X114745047Y-91844761D01*
X114792666Y-91797142D01*
X114840285Y-91701904D01*
X114887904Y-91511428D01*
X114887904Y-91273333D01*
X114840285Y-91082857D01*
X114792666Y-90987619D01*
X114745047Y-90940000D01*
X114649809Y-90892380D01*
X124721142Y-86717142D02*
X124768761Y-86764761D01*
X124911619Y-86812380D01*
X125006857Y-86812380D01*
X125149714Y-86764761D01*
X125244952Y-86669523D01*
X125292571Y-86574285D01*
X125340190Y-86383809D01*
X125340190Y-86240952D01*
X125292571Y-86050476D01*
X125244952Y-85955238D01*
X125149714Y-85860000D01*
X125006857Y-85812380D01*
X124911619Y-85812380D01*
X124768761Y-85860000D01*
X124721142Y-85907619D01*
X124149714Y-86812380D02*
X124244952Y-86764761D01*
X124292571Y-86717142D01*
X124340190Y-86621904D01*
X124340190Y-86336190D01*
X124292571Y-86240952D01*
X124244952Y-86193333D01*
X124149714Y-86145714D01*
X124006857Y-86145714D01*
X123911619Y-86193333D01*
X123864000Y-86240952D01*
X123816380Y-86336190D01*
X123816380Y-86621904D01*
X123864000Y-86717142D01*
X123911619Y-86764761D01*
X124006857Y-86812380D01*
X124149714Y-86812380D01*
X122959238Y-86812380D02*
X122959238Y-85812380D01*
X122959238Y-86764761D02*
X123054476Y-86812380D01*
X123244952Y-86812380D01*
X123340190Y-86764761D01*
X123387809Y-86717142D01*
X123435428Y-86621904D01*
X123435428Y-86336190D01*
X123387809Y-86240952D01*
X123340190Y-86193333D01*
X123244952Y-86145714D01*
X123054476Y-86145714D01*
X122959238Y-86193333D01*
X122102095Y-86764761D02*
X122197333Y-86812380D01*
X122387809Y-86812380D01*
X122483047Y-86764761D01*
X122530666Y-86669523D01*
X122530666Y-86288571D01*
X122483047Y-86193333D01*
X122387809Y-86145714D01*
X122197333Y-86145714D01*
X122102095Y-86193333D01*
X122054476Y-86288571D01*
X122054476Y-86383809D01*
X122530666Y-86479047D01*
X120911619Y-86764761D02*
X120768761Y-86812380D01*
X120530666Y-86812380D01*
X120435428Y-86764761D01*
X120387809Y-86717142D01*
X120340190Y-86621904D01*
X120340190Y-86526666D01*
X120387809Y-86431428D01*
X120435428Y-86383809D01*
X120530666Y-86336190D01*
X120721142Y-86288571D01*
X120816380Y-86240952D01*
X120864000Y-86193333D01*
X120911619Y-86098095D01*
X120911619Y-86002857D01*
X120864000Y-85907619D01*
X120816380Y-85860000D01*
X120721142Y-85812380D01*
X120483047Y-85812380D01*
X120340190Y-85860000D01*
X119483047Y-86145714D02*
X119483047Y-87145714D01*
X119483047Y-86764761D02*
X119578285Y-86812380D01*
X119768761Y-86812380D01*
X119864000Y-86764761D01*
X119911619Y-86717142D01*
X119959238Y-86621904D01*
X119959238Y-86336190D01*
X119911619Y-86240952D01*
X119864000Y-86193333D01*
X119768761Y-86145714D01*
X119578285Y-86145714D01*
X119483047Y-86193333D01*
X118578285Y-86145714D02*
X118578285Y-86812380D01*
X119006857Y-86145714D02*
X119006857Y-86669523D01*
X118959238Y-86764761D01*
X118864000Y-86812380D01*
X118721142Y-86812380D01*
X118625904Y-86764761D01*
X118578285Y-86717142D01*
X117721142Y-86764761D02*
X117816380Y-86812380D01*
X118006857Y-86812380D01*
X118102095Y-86764761D01*
X118149714Y-86669523D01*
X118149714Y-86288571D01*
X118102095Y-86193333D01*
X118006857Y-86145714D01*
X117816380Y-86145714D01*
X117721142Y-86193333D01*
X117673523Y-86288571D01*
X117673523Y-86383809D01*
X118149714Y-86479047D01*
X116816380Y-86812380D02*
X116816380Y-86288571D01*
X116864000Y-86193333D01*
X116959238Y-86145714D01*
X117149714Y-86145714D01*
X117244952Y-86193333D01*
X116816380Y-86764761D02*
X116911619Y-86812380D01*
X117149714Y-86812380D01*
X117244952Y-86764761D01*
X117292571Y-86669523D01*
X117292571Y-86574285D01*
X117244952Y-86479047D01*
X117149714Y-86431428D01*
X116911619Y-86431428D01*
X116816380Y-86383809D01*
X116340190Y-86812380D02*
X116340190Y-85812380D01*
X116244952Y-86431428D02*
X115959238Y-86812380D01*
X115959238Y-86145714D02*
X116340190Y-86526666D01*
X114816380Y-85907619D02*
X114768761Y-85860000D01*
X114673523Y-85812380D01*
X114435428Y-85812380D01*
X114340190Y-85860000D01*
X114292571Y-85907619D01*
X114244952Y-86002857D01*
X114244952Y-86098095D01*
X114292571Y-86240952D01*
X114864000Y-86812380D01*
X114244952Y-86812380D01*
X113625904Y-85812380D02*
X113530666Y-85812380D01*
X113435428Y-85860000D01*
X113387809Y-85907619D01*
X113340190Y-86002857D01*
X113292571Y-86193333D01*
X113292571Y-86431428D01*
X113340190Y-86621904D01*
X113387809Y-86717142D01*
X113435428Y-86764761D01*
X113530666Y-86812380D01*
X113625904Y-86812380D01*
X113721142Y-86764761D01*
X113768761Y-86717142D01*
X113816380Y-86621904D01*
X113864000Y-86431428D01*
X113864000Y-86193333D01*
X113816380Y-86002857D01*
X113768761Y-85907619D01*
X113721142Y-85860000D01*
X113625904Y-85812380D01*
X112911619Y-85907619D02*
X112864000Y-85860000D01*
X112768761Y-85812380D01*
X112530666Y-85812380D01*
X112435428Y-85860000D01*
X112387809Y-85907619D01*
X112340190Y-86002857D01*
X112340190Y-86098095D01*
X112387809Y-86240952D01*
X112959238Y-86812380D01*
X112340190Y-86812380D01*
X111721142Y-85812380D02*
X111625904Y-85812380D01*
X111530666Y-85860000D01*
X111483047Y-85907619D01*
X111435428Y-86002857D01*
X111387809Y-86193333D01*
X111387809Y-86431428D01*
X111435428Y-86621904D01*
X111483047Y-86717142D01*
X111530666Y-86764761D01*
X111625904Y-86812380D01*
X111721142Y-86812380D01*
X111816380Y-86764761D01*
X111864000Y-86717142D01*
X111911619Y-86621904D01*
X111959238Y-86431428D01*
X111959238Y-86193333D01*
X111911619Y-86002857D01*
X111864000Y-85907619D01*
X111816380Y-85860000D01*
X111721142Y-85812380D01*
X130308761Y-81684761D02*
X130165904Y-81732380D01*
X129927809Y-81732380D01*
X129832571Y-81684761D01*
X129784952Y-81637142D01*
X129737333Y-81541904D01*
X129737333Y-81446666D01*
X129784952Y-81351428D01*
X129832571Y-81303809D01*
X129927809Y-81256190D01*
X130118285Y-81208571D01*
X130213523Y-81160952D01*
X130261142Y-81113333D01*
X130308761Y-81018095D01*
X130308761Y-80922857D01*
X130261142Y-80827619D01*
X130213523Y-80780000D01*
X130118285Y-80732380D01*
X129880190Y-80732380D01*
X129737333Y-80780000D01*
X129308761Y-81732380D02*
X129308761Y-81065714D01*
X129308761Y-80732380D02*
X129356380Y-80780000D01*
X129308761Y-80827619D01*
X129261142Y-80780000D01*
X129308761Y-80732380D01*
X129308761Y-80827619D01*
X128832571Y-81732380D02*
X128832571Y-81065714D01*
X128832571Y-81160952D02*
X128784952Y-81113333D01*
X128689714Y-81065714D01*
X128546857Y-81065714D01*
X128451619Y-81113333D01*
X128404000Y-81208571D01*
X128404000Y-81732380D01*
X128404000Y-81208571D02*
X128356380Y-81113333D01*
X128261142Y-81065714D01*
X128118285Y-81065714D01*
X128023047Y-81113333D01*
X127975428Y-81208571D01*
X127975428Y-81732380D01*
X127499238Y-81065714D02*
X127499238Y-82065714D01*
X127499238Y-81113333D02*
X127404000Y-81065714D01*
X127213523Y-81065714D01*
X127118285Y-81113333D01*
X127070666Y-81160952D01*
X127023047Y-81256190D01*
X127023047Y-81541904D01*
X127070666Y-81637142D01*
X127118285Y-81684761D01*
X127213523Y-81732380D01*
X127404000Y-81732380D01*
X127499238Y-81684761D01*
X126451619Y-81732380D02*
X126546857Y-81684761D01*
X126594476Y-81589523D01*
X126594476Y-80732380D01*
X125689714Y-81684761D02*
X125784952Y-81732380D01*
X125975428Y-81732380D01*
X126070666Y-81684761D01*
X126118285Y-81589523D01*
X126118285Y-81208571D01*
X126070666Y-81113333D01*
X125975428Y-81065714D01*
X125784952Y-81065714D01*
X125689714Y-81113333D01*
X125642095Y-81208571D01*
X125642095Y-81303809D01*
X126118285Y-81399047D01*
X123927809Y-80780000D02*
X124023047Y-80732380D01*
X124165904Y-80732380D01*
X124308761Y-80780000D01*
X124404000Y-80875238D01*
X124451619Y-80970476D01*
X124499238Y-81160952D01*
X124499238Y-81303809D01*
X124451619Y-81494285D01*
X124404000Y-81589523D01*
X124308761Y-81684761D01*
X124165904Y-81732380D01*
X124070666Y-81732380D01*
X123927809Y-81684761D01*
X123880190Y-81637142D01*
X123880190Y-81303809D01*
X124070666Y-81303809D01*
X123023047Y-81732380D02*
X123023047Y-81208571D01*
X123070666Y-81113333D01*
X123165904Y-81065714D01*
X123356380Y-81065714D01*
X123451619Y-81113333D01*
X123023047Y-81684761D02*
X123118285Y-81732380D01*
X123356380Y-81732380D01*
X123451619Y-81684761D01*
X123499238Y-81589523D01*
X123499238Y-81494285D01*
X123451619Y-81399047D01*
X123356380Y-81351428D01*
X123118285Y-81351428D01*
X123023047Y-81303809D01*
X122546857Y-81732380D02*
X122546857Y-81065714D01*
X122546857Y-81256190D02*
X122499238Y-81160952D01*
X122451619Y-81113333D01*
X122356380Y-81065714D01*
X122261142Y-81065714D01*
X121499238Y-81732380D02*
X121499238Y-80732380D01*
X121499238Y-81684761D02*
X121594476Y-81732380D01*
X121784952Y-81732380D01*
X121880190Y-81684761D01*
X121927809Y-81637142D01*
X121975428Y-81541904D01*
X121975428Y-81256190D01*
X121927809Y-81160952D01*
X121880190Y-81113333D01*
X121784952Y-81065714D01*
X121594476Y-81065714D01*
X121499238Y-81113333D01*
X120642095Y-81684761D02*
X120737333Y-81732380D01*
X120927809Y-81732380D01*
X121023047Y-81684761D01*
X121070666Y-81589523D01*
X121070666Y-81208571D01*
X121023047Y-81113333D01*
X120927809Y-81065714D01*
X120737333Y-81065714D01*
X120642095Y-81113333D01*
X120594476Y-81208571D01*
X120594476Y-81303809D01*
X121070666Y-81399047D01*
X120165904Y-81065714D02*
X120165904Y-81732380D01*
X120165904Y-81160952D02*
X120118285Y-81113333D01*
X120023047Y-81065714D01*
X119880190Y-81065714D01*
X119784952Y-81113333D01*
X119737333Y-81208571D01*
X119737333Y-81732380D01*
X118023047Y-81732380D02*
X118499238Y-81732380D01*
X118499238Y-80732380D01*
X117689714Y-81208571D02*
X117356380Y-81208571D01*
X117213523Y-81732380D02*
X117689714Y-81732380D01*
X117689714Y-80732380D01*
X117213523Y-80732380D01*
X116784952Y-81732380D02*
X116784952Y-80732380D01*
X116546857Y-80732380D01*
X116404000Y-80780000D01*
X116308761Y-80875238D01*
X116261142Y-80970476D01*
X116213523Y-81160952D01*
X116213523Y-81303809D01*
X116261142Y-81494285D01*
X116308761Y-81589523D01*
X116404000Y-81684761D01*
X116546857Y-81732380D01*
X116784952Y-81732380D01*
X114546857Y-81732380D02*
X115023047Y-81732380D01*
X115023047Y-80732380D01*
X113784952Y-81732380D02*
X113784952Y-81208571D01*
X113832571Y-81113333D01*
X113927809Y-81065714D01*
X114118285Y-81065714D01*
X114213523Y-81113333D01*
X113784952Y-81684761D02*
X113880190Y-81732380D01*
X114118285Y-81732380D01*
X114213523Y-81684761D01*
X114261142Y-81589523D01*
X114261142Y-81494285D01*
X114213523Y-81399047D01*
X114118285Y-81351428D01*
X113880190Y-81351428D01*
X113784952Y-81303809D01*
X113308761Y-81732380D02*
X113308761Y-81065714D01*
X113308761Y-81160952D02*
X113261142Y-81113333D01*
X113165904Y-81065714D01*
X113023047Y-81065714D01*
X112927809Y-81113333D01*
X112880190Y-81208571D01*
X112880190Y-81732380D01*
X112880190Y-81208571D02*
X112832571Y-81113333D01*
X112737333Y-81065714D01*
X112594476Y-81065714D01*
X112499238Y-81113333D01*
X112451619Y-81208571D01*
X112451619Y-81732380D01*
X111975428Y-81065714D02*
X111975428Y-82065714D01*
X111975428Y-81113333D02*
X111880190Y-81065714D01*
X111689714Y-81065714D01*
X111594476Y-81113333D01*
X111546857Y-81160952D01*
X111499238Y-81256190D01*
X111499238Y-81541904D01*
X111546857Y-81637142D01*
X111594476Y-81684761D01*
X111689714Y-81732380D01*
X111880190Y-81732380D01*
X111975428Y-81684761D01*
M02*
