G04 #@! TF.GenerationSoftware,KiCad,Pcbnew,(5.1.5)-3*
G04 #@! TF.CreationDate,2020-05-09T19:05:57+01:00*
G04 #@! TF.ProjectId,gardenlight,67617264-656e-46c6-9967-68742e6b6963,1.0.0*
G04 #@! TF.SameCoordinates,Original*
G04 #@! TF.FileFunction,Legend,Top*
G04 #@! TF.FilePolarity,Positive*
%FSLAX46Y46*%
G04 Gerber Fmt 4.6, Leading zero omitted, Abs format (unit mm)*
G04 Created by KiCad (PCBNEW (5.1.5)-3) date 2020-05-09 19:05:57*
%MOMM*%
%LPD*%
G04 APERTURE LIST*
%ADD10C,0.150000*%
%ADD11C,0.120000*%
%ADD12C,0.203200*%
G04 APERTURE END LIST*
D10*
X97076095Y-90987619D02*
X97123714Y-90940000D01*
X97218952Y-90892380D01*
X97457047Y-90892380D01*
X97552285Y-90940000D01*
X97599904Y-90987619D01*
X97647523Y-91082857D01*
X97647523Y-91178095D01*
X97599904Y-91320952D01*
X97028476Y-91892380D01*
X97647523Y-91892380D01*
X98076095Y-91797142D02*
X98123714Y-91844761D01*
X98076095Y-91892380D01*
X98028476Y-91844761D01*
X98076095Y-91797142D01*
X98076095Y-91892380D01*
X99028476Y-90892380D02*
X98552285Y-90892380D01*
X98504666Y-91368571D01*
X98552285Y-91320952D01*
X98647523Y-91273333D01*
X98885619Y-91273333D01*
X98980857Y-91320952D01*
X99028476Y-91368571D01*
X99076095Y-91463809D01*
X99076095Y-91701904D01*
X99028476Y-91797142D01*
X98980857Y-91844761D01*
X98885619Y-91892380D01*
X98647523Y-91892380D01*
X98552285Y-91844761D01*
X98504666Y-91797142D01*
X99361809Y-90892380D02*
X99695142Y-91892380D01*
X100028476Y-90892380D01*
X101076095Y-91844761D02*
X101218952Y-91892380D01*
X101457047Y-91892380D01*
X101552285Y-91844761D01*
X101599904Y-91797142D01*
X101647523Y-91701904D01*
X101647523Y-91606666D01*
X101599904Y-91511428D01*
X101552285Y-91463809D01*
X101457047Y-91416190D01*
X101266571Y-91368571D01*
X101171333Y-91320952D01*
X101123714Y-91273333D01*
X101076095Y-91178095D01*
X101076095Y-91082857D01*
X101123714Y-90987619D01*
X101171333Y-90940000D01*
X101266571Y-90892380D01*
X101504666Y-90892380D01*
X101647523Y-90940000D01*
X102218952Y-91892380D02*
X102123714Y-91844761D01*
X102076095Y-91797142D01*
X102028476Y-91701904D01*
X102028476Y-91416190D01*
X102076095Y-91320952D01*
X102123714Y-91273333D01*
X102218952Y-91225714D01*
X102361809Y-91225714D01*
X102457047Y-91273333D01*
X102504666Y-91320952D01*
X102552285Y-91416190D01*
X102552285Y-91701904D01*
X102504666Y-91797142D01*
X102457047Y-91844761D01*
X102361809Y-91892380D01*
X102218952Y-91892380D01*
X103123714Y-91892380D02*
X103028476Y-91844761D01*
X102980857Y-91749523D01*
X102980857Y-90892380D01*
X103933238Y-91892380D02*
X103933238Y-91368571D01*
X103885619Y-91273333D01*
X103790380Y-91225714D01*
X103599904Y-91225714D01*
X103504666Y-91273333D01*
X103933238Y-91844761D02*
X103838000Y-91892380D01*
X103599904Y-91892380D01*
X103504666Y-91844761D01*
X103457047Y-91749523D01*
X103457047Y-91654285D01*
X103504666Y-91559047D01*
X103599904Y-91511428D01*
X103838000Y-91511428D01*
X103933238Y-91463809D01*
X104409428Y-91892380D02*
X104409428Y-91225714D01*
X104409428Y-91416190D02*
X104457047Y-91320952D01*
X104504666Y-91273333D01*
X104599904Y-91225714D01*
X104695142Y-91225714D01*
X126103142Y-91892380D02*
X125626952Y-91892380D01*
X125626952Y-90892380D01*
X126436476Y-91368571D02*
X126769809Y-91368571D01*
X126912666Y-91892380D02*
X126436476Y-91892380D01*
X126436476Y-90892380D01*
X126912666Y-90892380D01*
X127341238Y-91892380D02*
X127341238Y-90892380D01*
X127579333Y-90892380D01*
X127722190Y-90940000D01*
X127817428Y-91035238D01*
X127865047Y-91130476D01*
X127912666Y-91320952D01*
X127912666Y-91463809D01*
X127865047Y-91654285D01*
X127817428Y-91749523D01*
X127722190Y-91844761D01*
X127579333Y-91892380D01*
X127341238Y-91892380D01*
X113427142Y-81732380D02*
X112855714Y-81732380D01*
X113141428Y-81732380D02*
X113141428Y-80732380D01*
X113046190Y-80875238D01*
X112950952Y-80970476D01*
X112855714Y-81018095D01*
X113855714Y-81732380D02*
X113855714Y-80732380D01*
X114427142Y-81732380D01*
X114427142Y-80732380D01*
X115379523Y-80732380D02*
X114903333Y-80732380D01*
X114855714Y-81208571D01*
X114903333Y-81160952D01*
X114998571Y-81113333D01*
X115236666Y-81113333D01*
X115331904Y-81160952D01*
X115379523Y-81208571D01*
X115427142Y-81303809D01*
X115427142Y-81541904D01*
X115379523Y-81637142D01*
X115331904Y-81684761D01*
X115236666Y-81732380D01*
X114998571Y-81732380D01*
X114903333Y-81684761D01*
X114855714Y-81637142D01*
X115998571Y-81160952D02*
X115903333Y-81113333D01*
X115855714Y-81065714D01*
X115808095Y-80970476D01*
X115808095Y-80922857D01*
X115855714Y-80827619D01*
X115903333Y-80780000D01*
X115998571Y-80732380D01*
X116189047Y-80732380D01*
X116284285Y-80780000D01*
X116331904Y-80827619D01*
X116379523Y-80922857D01*
X116379523Y-80970476D01*
X116331904Y-81065714D01*
X116284285Y-81113333D01*
X116189047Y-81160952D01*
X115998571Y-81160952D01*
X115903333Y-81208571D01*
X115855714Y-81256190D01*
X115808095Y-81351428D01*
X115808095Y-81541904D01*
X115855714Y-81637142D01*
X115903333Y-81684761D01*
X115998571Y-81732380D01*
X116189047Y-81732380D01*
X116284285Y-81684761D01*
X116331904Y-81637142D01*
X116379523Y-81541904D01*
X116379523Y-81351428D01*
X116331904Y-81256190D01*
X116284285Y-81208571D01*
X116189047Y-81160952D01*
X117331904Y-81732380D02*
X116760476Y-81732380D01*
X117046190Y-81732380D02*
X117046190Y-80732380D01*
X116950952Y-80875238D01*
X116855714Y-80970476D01*
X116760476Y-81018095D01*
X117665238Y-80732380D02*
X118331904Y-80732380D01*
X117903333Y-81732380D01*
X113712857Y-91892380D02*
X113141428Y-91892380D01*
X113427142Y-91892380D02*
X113427142Y-90892380D01*
X113331904Y-91035238D01*
X113236666Y-91130476D01*
X113141428Y-91178095D01*
X114331904Y-90892380D02*
X114427142Y-90892380D01*
X114522380Y-90940000D01*
X114570000Y-90987619D01*
X114617619Y-91082857D01*
X114665238Y-91273333D01*
X114665238Y-91511428D01*
X114617619Y-91701904D01*
X114570000Y-91797142D01*
X114522380Y-91844761D01*
X114427142Y-91892380D01*
X114331904Y-91892380D01*
X114236666Y-91844761D01*
X114189047Y-91797142D01*
X114141428Y-91701904D01*
X114093809Y-91511428D01*
X114093809Y-91273333D01*
X114141428Y-91082857D01*
X114189047Y-90987619D01*
X114236666Y-90940000D01*
X114331904Y-90892380D01*
X115284285Y-90892380D02*
X115379523Y-90892380D01*
X115474761Y-90940000D01*
X115522380Y-90987619D01*
X115570000Y-91082857D01*
X115617619Y-91273333D01*
X115617619Y-91511428D01*
X115570000Y-91701904D01*
X115522380Y-91797142D01*
X115474761Y-91844761D01*
X115379523Y-91892380D01*
X115284285Y-91892380D01*
X115189047Y-91844761D01*
X115141428Y-91797142D01*
X115093809Y-91701904D01*
X115046190Y-91511428D01*
X115046190Y-91273333D01*
X115093809Y-91082857D01*
X115141428Y-90987619D01*
X115189047Y-90940000D01*
X115284285Y-90892380D01*
X116046190Y-91892380D02*
X116046190Y-91225714D01*
X116046190Y-91320952D02*
X116093809Y-91273333D01*
X116189047Y-91225714D01*
X116331904Y-91225714D01*
X116427142Y-91273333D01*
X116474761Y-91368571D01*
X116474761Y-91892380D01*
X116474761Y-91368571D02*
X116522380Y-91273333D01*
X116617619Y-91225714D01*
X116760476Y-91225714D01*
X116855714Y-91273333D01*
X116903333Y-91368571D01*
X116903333Y-91892380D01*
X117379523Y-91892380D02*
X117379523Y-90892380D01*
X117379523Y-91368571D02*
X117950952Y-91368571D01*
X117950952Y-91892380D02*
X117950952Y-90892380D01*
X136858761Y-91892380D02*
X136287333Y-91892380D01*
X136573047Y-91892380D02*
X136573047Y-90892380D01*
X136477809Y-91035238D01*
X136382571Y-91130476D01*
X136287333Y-91178095D01*
X137287333Y-91797142D02*
X137334952Y-91844761D01*
X137287333Y-91892380D01*
X137239714Y-91844761D01*
X137287333Y-91797142D01*
X137287333Y-91892380D01*
X137715904Y-90987619D02*
X137763523Y-90940000D01*
X137858761Y-90892380D01*
X138096857Y-90892380D01*
X138192095Y-90940000D01*
X138239714Y-90987619D01*
X138287333Y-91082857D01*
X138287333Y-91178095D01*
X138239714Y-91320952D01*
X137668285Y-91892380D01*
X138287333Y-91892380D01*
X138573047Y-90892380D02*
X138906380Y-91892380D01*
X139239714Y-90892380D01*
X140334952Y-91892380D02*
X140334952Y-90892380D01*
X140906380Y-91892380D01*
X140906380Y-90892380D01*
X141382571Y-91892380D02*
X141382571Y-91225714D01*
X141382571Y-90892380D02*
X141334952Y-90940000D01*
X141382571Y-90987619D01*
X141430190Y-90940000D01*
X141382571Y-90892380D01*
X141382571Y-90987619D01*
X141858761Y-91892380D02*
X141858761Y-90892380D01*
X142192095Y-91606666D01*
X142525428Y-90892380D01*
X142525428Y-91892380D01*
X143001619Y-91892380D02*
X143001619Y-90892380D01*
X143001619Y-91368571D02*
X143573047Y-91368571D01*
X143573047Y-91892380D02*
X143573047Y-90892380D01*
X133262761Y-91892380D02*
X132691333Y-91892380D01*
X132977047Y-91892380D02*
X132977047Y-90892380D01*
X132881809Y-91035238D01*
X132786571Y-91130476D01*
X132691333Y-91178095D01*
X134119904Y-91225714D02*
X134119904Y-91892380D01*
X133691333Y-91225714D02*
X133691333Y-91749523D01*
X133738952Y-91844761D01*
X133834190Y-91892380D01*
X133977047Y-91892380D01*
X134072285Y-91844761D01*
X134119904Y-91797142D01*
X134929428Y-91368571D02*
X134596095Y-91368571D01*
X134596095Y-91892380D02*
X134596095Y-90892380D01*
X135072285Y-90892380D01*
D11*
X143080000Y-83016000D02*
X141830000Y-83016000D01*
X143080000Y-84266000D02*
X143080000Y-83016000D01*
X138670000Y-86376000D02*
X139170000Y-86376000D01*
X139170000Y-86476000D02*
X138670000Y-86476000D01*
X139170000Y-86276000D02*
X139170000Y-86476000D01*
X138670000Y-86276000D02*
X139170000Y-86276000D01*
X140170000Y-89436000D02*
X140170000Y-88826000D01*
X141470000Y-89436000D02*
X141470000Y-88826000D01*
X140170000Y-83316000D02*
X140170000Y-83926000D01*
X141470000Y-83316000D02*
X141470000Y-83926000D01*
X142170000Y-86876000D02*
X142780000Y-86876000D01*
X142170000Y-88826000D02*
X142170000Y-86876000D01*
X138670000Y-88826000D02*
X142170000Y-88826000D01*
X138670000Y-83926000D02*
X138670000Y-88826000D01*
X142170000Y-83926000D02*
X138670000Y-83926000D01*
X142170000Y-85876000D02*
X142170000Y-83926000D01*
X142780000Y-85876000D02*
X142170000Y-85876000D01*
X142880000Y-85076000D02*
X142880000Y-84776000D01*
X142980000Y-84776000D02*
X142780000Y-84776000D01*
X142980000Y-85076000D02*
X142980000Y-84776000D01*
X142780000Y-85076000D02*
X142980000Y-85076000D01*
X142780000Y-89436000D02*
X142780000Y-83316000D01*
X138060000Y-89436000D02*
X142780000Y-89436000D01*
X138060000Y-83316000D02*
X138060000Y-89436000D01*
X142780000Y-83316000D02*
X138060000Y-83316000D01*
X135990000Y-86360000D02*
G75*
G03X135990000Y-86360000I-2120000J0D01*
G01*
X133870000Y-87200000D02*
X133870000Y-88440000D01*
X133870000Y-84280000D02*
X133870000Y-85520000D01*
X133910000Y-87200000D02*
X133910000Y-88440000D01*
X133910000Y-84280000D02*
X133910000Y-85520000D01*
X133950000Y-87200000D02*
X133950000Y-88439000D01*
X133950000Y-84281000D02*
X133950000Y-85520000D01*
X133990000Y-84283000D02*
X133990000Y-85520000D01*
X133990000Y-87200000D02*
X133990000Y-88437000D01*
X134030000Y-84286000D02*
X134030000Y-85520000D01*
X134030000Y-87200000D02*
X134030000Y-88434000D01*
X134070000Y-84289000D02*
X134070000Y-85520000D01*
X134070000Y-87200000D02*
X134070000Y-88431000D01*
X134110000Y-84293000D02*
X134110000Y-85520000D01*
X134110000Y-87200000D02*
X134110000Y-88427000D01*
X134150000Y-84298000D02*
X134150000Y-85520000D01*
X134150000Y-87200000D02*
X134150000Y-88422000D01*
X134190000Y-84304000D02*
X134190000Y-85520000D01*
X134190000Y-87200000D02*
X134190000Y-88416000D01*
X134230000Y-84310000D02*
X134230000Y-85520000D01*
X134230000Y-87200000D02*
X134230000Y-88410000D01*
X134270000Y-84318000D02*
X134270000Y-85520000D01*
X134270000Y-87200000D02*
X134270000Y-88402000D01*
X134310000Y-84326000D02*
X134310000Y-85520000D01*
X134310000Y-87200000D02*
X134310000Y-88394000D01*
X134350000Y-84335000D02*
X134350000Y-85520000D01*
X134350000Y-87200000D02*
X134350000Y-88385000D01*
X134390000Y-84344000D02*
X134390000Y-85520000D01*
X134390000Y-87200000D02*
X134390000Y-88376000D01*
X134430000Y-84355000D02*
X134430000Y-85520000D01*
X134430000Y-87200000D02*
X134430000Y-88365000D01*
X134470000Y-84366000D02*
X134470000Y-85520000D01*
X134470000Y-87200000D02*
X134470000Y-88354000D01*
X134510000Y-84378000D02*
X134510000Y-85520000D01*
X134510000Y-87200000D02*
X134510000Y-88342000D01*
X134550000Y-84392000D02*
X134550000Y-85520000D01*
X134550000Y-87200000D02*
X134550000Y-88328000D01*
X134591000Y-84406000D02*
X134591000Y-85520000D01*
X134591000Y-87200000D02*
X134591000Y-88314000D01*
X134631000Y-84420000D02*
X134631000Y-85520000D01*
X134631000Y-87200000D02*
X134631000Y-88300000D01*
X134671000Y-84436000D02*
X134671000Y-85520000D01*
X134671000Y-87200000D02*
X134671000Y-88284000D01*
X134711000Y-84453000D02*
X134711000Y-85520000D01*
X134711000Y-87200000D02*
X134711000Y-88267000D01*
X134751000Y-84471000D02*
X134751000Y-85520000D01*
X134751000Y-87200000D02*
X134751000Y-88249000D01*
X134791000Y-84490000D02*
X134791000Y-85520000D01*
X134791000Y-87200000D02*
X134791000Y-88230000D01*
X134831000Y-84509000D02*
X134831000Y-85520000D01*
X134831000Y-87200000D02*
X134831000Y-88211000D01*
X134871000Y-84530000D02*
X134871000Y-85520000D01*
X134871000Y-87200000D02*
X134871000Y-88190000D01*
X134911000Y-84552000D02*
X134911000Y-85520000D01*
X134911000Y-87200000D02*
X134911000Y-88168000D01*
X134951000Y-84575000D02*
X134951000Y-85520000D01*
X134951000Y-87200000D02*
X134951000Y-88145000D01*
X134991000Y-84600000D02*
X134991000Y-85520000D01*
X134991000Y-87200000D02*
X134991000Y-88120000D01*
X135031000Y-84625000D02*
X135031000Y-85520000D01*
X135031000Y-87200000D02*
X135031000Y-88095000D01*
X135071000Y-84652000D02*
X135071000Y-85520000D01*
X135071000Y-87200000D02*
X135071000Y-88068000D01*
X135111000Y-84680000D02*
X135111000Y-85520000D01*
X135111000Y-87200000D02*
X135111000Y-88040000D01*
X135151000Y-84710000D02*
X135151000Y-85520000D01*
X135151000Y-87200000D02*
X135151000Y-88010000D01*
X135191000Y-84741000D02*
X135191000Y-85520000D01*
X135191000Y-87200000D02*
X135191000Y-87979000D01*
X135231000Y-84773000D02*
X135231000Y-85520000D01*
X135231000Y-87200000D02*
X135231000Y-87947000D01*
X135271000Y-84808000D02*
X135271000Y-85520000D01*
X135271000Y-87200000D02*
X135271000Y-87912000D01*
X135311000Y-84844000D02*
X135311000Y-85520000D01*
X135311000Y-87200000D02*
X135311000Y-87876000D01*
X135351000Y-84882000D02*
X135351000Y-85520000D01*
X135351000Y-87200000D02*
X135351000Y-87838000D01*
X135391000Y-84922000D02*
X135391000Y-85520000D01*
X135391000Y-87200000D02*
X135391000Y-87798000D01*
X135431000Y-84964000D02*
X135431000Y-85520000D01*
X135431000Y-87200000D02*
X135431000Y-87756000D01*
X135471000Y-85009000D02*
X135471000Y-87711000D01*
X135511000Y-85056000D02*
X135511000Y-87664000D01*
X135551000Y-85106000D02*
X135551000Y-87614000D01*
X135591000Y-85160000D02*
X135591000Y-87560000D01*
X135631000Y-85218000D02*
X135631000Y-87502000D01*
X135671000Y-85280000D02*
X135671000Y-87440000D01*
X135711000Y-85347000D02*
X135711000Y-87373000D01*
X135751000Y-85420000D02*
X135751000Y-87300000D01*
X135791000Y-85501000D02*
X135791000Y-87219000D01*
X135831000Y-85592000D02*
X135831000Y-87128000D01*
X135871000Y-85696000D02*
X135871000Y-87024000D01*
X135911000Y-85823000D02*
X135911000Y-86897000D01*
X135951000Y-85990000D02*
X135951000Y-86730000D01*
X131600199Y-85165000D02*
X132000199Y-85165000D01*
X131800199Y-84965000D02*
X131800199Y-85365000D01*
X118290000Y-85290000D02*
X118290000Y-82350000D01*
X118290000Y-82350000D02*
X112850000Y-82350000D01*
X112850000Y-82350000D02*
X112850000Y-85290000D01*
X112850000Y-85290000D02*
X118290000Y-85290000D01*
X119310000Y-83820000D02*
X118290000Y-83820000D01*
X111830000Y-83820000D02*
X112850000Y-83820000D01*
X117390000Y-85290000D02*
X117390000Y-82350000D01*
X117270000Y-85290000D02*
X117270000Y-82350000D01*
X117510000Y-85290000D02*
X117510000Y-82350000D01*
X127000462Y-83624000D02*
G75*
G03X125455170Y-89174000I-462J-2990000D01*
G01*
X126999538Y-83624000D02*
G75*
G02X128544830Y-89174000I462J-2990000D01*
G01*
X129500000Y-86614000D02*
G75*
G03X129500000Y-86614000I-2500000J0D01*
G01*
X125455000Y-89174000D02*
X128545000Y-89174000D01*
X112150000Y-87430000D02*
X112150000Y-90370000D01*
X112150000Y-90370000D02*
X118990000Y-90370000D01*
X118990000Y-90370000D02*
X118990000Y-87430000D01*
X118990000Y-87430000D02*
X112150000Y-87430000D01*
X111530000Y-88900000D02*
X112150000Y-88900000D01*
X119610000Y-88900000D02*
X118990000Y-88900000D01*
X98520000Y-89150000D02*
X103240000Y-89150000D01*
X103240000Y-89150000D02*
X103240000Y-83030000D01*
X103240000Y-83030000D02*
X98520000Y-83030000D01*
X98520000Y-83030000D02*
X98520000Y-89150000D01*
X98520000Y-87390000D02*
X98320000Y-87390000D01*
X98320000Y-87390000D02*
X98320000Y-87690000D01*
X98320000Y-87690000D02*
X98520000Y-87690000D01*
X98420000Y-87390000D02*
X98420000Y-87690000D01*
X98520000Y-86590000D02*
X99130000Y-86590000D01*
X99130000Y-86590000D02*
X99130000Y-88540000D01*
X99130000Y-88540000D02*
X102630000Y-88540000D01*
X102630000Y-88540000D02*
X102630000Y-83640000D01*
X102630000Y-83640000D02*
X99130000Y-83640000D01*
X99130000Y-83640000D02*
X99130000Y-85590000D01*
X99130000Y-85590000D02*
X98520000Y-85590000D01*
X99830000Y-89150000D02*
X99830000Y-88540000D01*
X101130000Y-89150000D02*
X101130000Y-88540000D01*
X99830000Y-83030000D02*
X99830000Y-83640000D01*
X101130000Y-83030000D02*
X101130000Y-83640000D01*
X102630000Y-86190000D02*
X102130000Y-86190000D01*
X102130000Y-86190000D02*
X102130000Y-85990000D01*
X102130000Y-85990000D02*
X102630000Y-85990000D01*
X102630000Y-86090000D02*
X102130000Y-86090000D01*
X98220000Y-88200000D02*
X98220000Y-89450000D01*
X98220000Y-89450000D02*
X99470000Y-89450000D01*
D12*
X107950000Y-90424000D02*
X105410000Y-90424000D01*
X105410000Y-90424000D02*
X105410000Y-82296000D01*
X105410000Y-82296000D02*
X107950000Y-82296000D01*
X107950000Y-82296000D02*
X107950000Y-90424000D01*
X108712000Y-90932000D02*
G75*
G03X108712000Y-90932000I-254000J0D01*
G01*
D10*
X139422285Y-81716571D02*
X139565142Y-81764190D01*
X139612761Y-81811809D01*
X139660380Y-81907047D01*
X139660380Y-82049904D01*
X139612761Y-82145142D01*
X139565142Y-82192761D01*
X139469904Y-82240380D01*
X139088952Y-82240380D01*
X139088952Y-81240380D01*
X139422285Y-81240380D01*
X139517523Y-81288000D01*
X139565142Y-81335619D01*
X139612761Y-81430857D01*
X139612761Y-81526095D01*
X139565142Y-81621333D01*
X139517523Y-81668952D01*
X139422285Y-81716571D01*
X139088952Y-81716571D01*
X139946095Y-81240380D02*
X140517523Y-81240380D01*
X140231809Y-82240380D02*
X140231809Y-81240380D01*
X141374666Y-82240380D02*
X140803238Y-82240380D01*
X141088952Y-82240380D02*
X141088952Y-81240380D01*
X140993714Y-81383238D01*
X140898476Y-81478476D01*
X140803238Y-81526095D01*
X133703333Y-83467142D02*
X133655714Y-83514761D01*
X133512857Y-83562380D01*
X133417619Y-83562380D01*
X133274761Y-83514761D01*
X133179523Y-83419523D01*
X133131904Y-83324285D01*
X133084285Y-83133809D01*
X133084285Y-82990952D01*
X133131904Y-82800476D01*
X133179523Y-82705238D01*
X133274761Y-82610000D01*
X133417619Y-82562380D01*
X133512857Y-82562380D01*
X133655714Y-82610000D01*
X133703333Y-82657619D01*
X134655714Y-83562380D02*
X134084285Y-83562380D01*
X134370000Y-83562380D02*
X134370000Y-82562380D01*
X134274761Y-82705238D01*
X134179523Y-82800476D01*
X134084285Y-82848095D01*
X110513904Y-81732380D02*
X110513904Y-80732380D01*
X110752000Y-80732380D01*
X110894857Y-80780000D01*
X110990095Y-80875238D01*
X111037714Y-80970476D01*
X111085333Y-81160952D01*
X111085333Y-81303809D01*
X111037714Y-81494285D01*
X110990095Y-81589523D01*
X110894857Y-81684761D01*
X110752000Y-81732380D01*
X110513904Y-81732380D01*
X112037714Y-81732380D02*
X111466285Y-81732380D01*
X111752000Y-81732380D02*
X111752000Y-80732380D01*
X111656761Y-80875238D01*
X111561523Y-80970476D01*
X111466285Y-81018095D01*
X122674095Y-84018380D02*
X122674095Y-83018380D01*
X123245523Y-84018380D02*
X122816952Y-83446952D01*
X123245523Y-83018380D02*
X122674095Y-83589809D01*
X126007904Y-82748380D02*
X126007904Y-81748380D01*
X126246000Y-81748380D01*
X126388857Y-81796000D01*
X126484095Y-81891238D01*
X126531714Y-81986476D01*
X126579333Y-82176952D01*
X126579333Y-82319809D01*
X126531714Y-82510285D01*
X126484095Y-82605523D01*
X126388857Y-82700761D01*
X126246000Y-82748380D01*
X126007904Y-82748380D01*
X126960285Y-81843619D02*
X127007904Y-81796000D01*
X127103142Y-81748380D01*
X127341238Y-81748380D01*
X127436476Y-81796000D01*
X127484095Y-81843619D01*
X127531714Y-81938857D01*
X127531714Y-82034095D01*
X127484095Y-82176952D01*
X126912666Y-82748380D01*
X127531714Y-82748380D01*
X110831333Y-91892380D02*
X110355142Y-91892380D01*
X110355142Y-90892380D01*
X111688476Y-91892380D02*
X111117047Y-91892380D01*
X111402761Y-91892380D02*
X111402761Y-90892380D01*
X111307523Y-91035238D01*
X111212285Y-91130476D01*
X111117047Y-91178095D01*
X99576095Y-81938761D02*
X99718952Y-81986380D01*
X99957047Y-81986380D01*
X100052285Y-81938761D01*
X100099904Y-81891142D01*
X100147523Y-81795904D01*
X100147523Y-81700666D01*
X100099904Y-81605428D01*
X100052285Y-81557809D01*
X99957047Y-81510190D01*
X99766571Y-81462571D01*
X99671333Y-81414952D01*
X99623714Y-81367333D01*
X99576095Y-81272095D01*
X99576095Y-81176857D01*
X99623714Y-81081619D01*
X99671333Y-81034000D01*
X99766571Y-80986380D01*
X100004666Y-80986380D01*
X100147523Y-81034000D01*
X101147523Y-81891142D02*
X101099904Y-81938761D01*
X100957047Y-81986380D01*
X100861809Y-81986380D01*
X100718952Y-81938761D01*
X100623714Y-81843523D01*
X100576095Y-81748285D01*
X100528476Y-81557809D01*
X100528476Y-81414952D01*
X100576095Y-81224476D01*
X100623714Y-81129238D01*
X100718952Y-81034000D01*
X100861809Y-80986380D01*
X100957047Y-80986380D01*
X101099904Y-81034000D01*
X101147523Y-81081619D01*
X102099904Y-81986380D02*
X101528476Y-81986380D01*
X101814190Y-81986380D02*
X101814190Y-80986380D01*
X101718952Y-81129238D01*
X101623714Y-81224476D01*
X101528476Y-81272095D01*
X106172095Y-80732380D02*
X106172095Y-81541904D01*
X106219714Y-81637142D01*
X106267333Y-81684761D01*
X106362571Y-81732380D01*
X106553047Y-81732380D01*
X106648285Y-81684761D01*
X106695904Y-81637142D01*
X106743523Y-81541904D01*
X106743523Y-80732380D01*
X107743523Y-81732380D02*
X107172095Y-81732380D01*
X107457809Y-81732380D02*
X107457809Y-80732380D01*
X107362571Y-80875238D01*
X107267333Y-80970476D01*
X107172095Y-81018095D01*
M02*
