G04 #@! TF.GenerationSoftware,KiCad,Pcbnew,(5.1.5)-3*
G04 #@! TF.CreationDate,2020-05-09T19:05:57+01:00*
G04 #@! TF.ProjectId,gardenlight,67617264-656e-46c6-9967-68742e6b6963,1.0.0*
G04 #@! TF.SameCoordinates,Original*
G04 #@! TF.FileFunction,Soldermask,Top*
G04 #@! TF.FilePolarity,Negative*
%FSLAX46Y46*%
G04 Gerber Fmt 4.6, Leading zero omitted, Abs format (unit mm)*
G04 Created by KiCad (PCBNEW (5.1.5)-3) date 2020-05-09 19:05:57*
%MOMM*%
%LPD*%
G04 APERTURE LIST*
%ADD10C,0.100000*%
G04 APERTURE END LIST*
D10*
G36*
X107492800Y-90220800D02*
G01*
X105867200Y-90220800D01*
X105867200Y-88595200D01*
X107492800Y-88595200D01*
X107492800Y-90220800D01*
G37*
G36*
X120898169Y-88081895D02*
G01*
X121053005Y-88146031D01*
X121192354Y-88239140D01*
X121310860Y-88357646D01*
X121403969Y-88496995D01*
X121468105Y-88651831D01*
X121500800Y-88816203D01*
X121500800Y-88983797D01*
X121468105Y-89148169D01*
X121403969Y-89303005D01*
X121310860Y-89442354D01*
X121192354Y-89560860D01*
X121053005Y-89653969D01*
X120898169Y-89718105D01*
X120733797Y-89750800D01*
X120566203Y-89750800D01*
X120401831Y-89718105D01*
X120246995Y-89653969D01*
X120107646Y-89560860D01*
X119989140Y-89442354D01*
X119896031Y-89303005D01*
X119831895Y-89148169D01*
X119799200Y-88983797D01*
X119799200Y-88816203D01*
X119831895Y-88651831D01*
X119896031Y-88496995D01*
X119989140Y-88357646D01*
X120107646Y-88239140D01*
X120246995Y-88146031D01*
X120401831Y-88081895D01*
X120566203Y-88049200D01*
X120733797Y-88049200D01*
X120898169Y-88081895D01*
G37*
G36*
X110738169Y-88081895D02*
G01*
X110893005Y-88146031D01*
X111032354Y-88239140D01*
X111150860Y-88357646D01*
X111243969Y-88496995D01*
X111308105Y-88651831D01*
X111340800Y-88816203D01*
X111340800Y-88983797D01*
X111308105Y-89148169D01*
X111243969Y-89303005D01*
X111150860Y-89442354D01*
X111032354Y-89560860D01*
X110893005Y-89653969D01*
X110738169Y-89718105D01*
X110573797Y-89750800D01*
X110406203Y-89750800D01*
X110241831Y-89718105D01*
X110086995Y-89653969D01*
X109947646Y-89560860D01*
X109829140Y-89442354D01*
X109736031Y-89303005D01*
X109671895Y-89148169D01*
X109639200Y-88983797D01*
X109639200Y-88816203D01*
X109671895Y-88651831D01*
X109736031Y-88496995D01*
X109829140Y-88357646D01*
X109947646Y-88239140D01*
X110086995Y-88146031D01*
X110241831Y-88081895D01*
X110406203Y-88049200D01*
X110573797Y-88049200D01*
X110738169Y-88081895D01*
G37*
G36*
X127950800Y-88834800D02*
G01*
X126049200Y-88834800D01*
X126049200Y-86933200D01*
X127950800Y-86933200D01*
X127950800Y-88834800D01*
G37*
G36*
X106917086Y-86594435D02*
G01*
X107065003Y-86655704D01*
X107106189Y-86683224D01*
X107183103Y-86734616D01*
X107198134Y-86744660D01*
X107311340Y-86857866D01*
X107400296Y-86990997D01*
X107461565Y-87138914D01*
X107492800Y-87295946D01*
X107492800Y-87456054D01*
X107461565Y-87613086D01*
X107400296Y-87761003D01*
X107311340Y-87894134D01*
X107198134Y-88007340D01*
X107198131Y-88007342D01*
X107198130Y-88007343D01*
X107169010Y-88026800D01*
X107065003Y-88096296D01*
X106917086Y-88157565D01*
X106760054Y-88188800D01*
X106599946Y-88188800D01*
X106442914Y-88157565D01*
X106294997Y-88096296D01*
X106190990Y-88026800D01*
X106161870Y-88007343D01*
X106161869Y-88007342D01*
X106161866Y-88007340D01*
X106048660Y-87894134D01*
X105959704Y-87761003D01*
X105898435Y-87613086D01*
X105867200Y-87456054D01*
X105867200Y-87295946D01*
X105898435Y-87138914D01*
X105959704Y-86990997D01*
X106048660Y-86857866D01*
X106161866Y-86744660D01*
X106176898Y-86734616D01*
X106253811Y-86683224D01*
X106294997Y-86655704D01*
X106442914Y-86594435D01*
X106599946Y-86563200D01*
X106760054Y-86563200D01*
X106917086Y-86594435D01*
G37*
G36*
X141372575Y-86734616D02*
G01*
X141372578Y-86734617D01*
X141372579Y-86734617D01*
X141401343Y-86743343D01*
X141495254Y-86771830D01*
X141500926Y-86774862D01*
X141608314Y-86832262D01*
X141707411Y-86913589D01*
X141770937Y-86990995D01*
X141788737Y-87012685D01*
X141849170Y-87125746D01*
X141886384Y-87248425D01*
X141898949Y-87376000D01*
X141886384Y-87503575D01*
X141849170Y-87626254D01*
X141818953Y-87682785D01*
X141788738Y-87739314D01*
X141707411Y-87838411D01*
X141608314Y-87919738D01*
X141551785Y-87949953D01*
X141495254Y-87980170D01*
X141405686Y-88007340D01*
X141372579Y-88017383D01*
X141372578Y-88017383D01*
X141372575Y-88017384D01*
X141276969Y-88026800D01*
X140663031Y-88026800D01*
X140567425Y-88017384D01*
X140567422Y-88017383D01*
X140567421Y-88017383D01*
X140534314Y-88007340D01*
X140444746Y-87980170D01*
X140331686Y-87919738D01*
X140232589Y-87838411D01*
X140151262Y-87739314D01*
X140121047Y-87682785D01*
X140090830Y-87626254D01*
X140053616Y-87503575D01*
X140041051Y-87376000D01*
X140053616Y-87248425D01*
X140090830Y-87125746D01*
X140151263Y-87012685D01*
X140169064Y-86990995D01*
X140232589Y-86913589D01*
X140331686Y-86832262D01*
X140439074Y-86774862D01*
X140444746Y-86771830D01*
X140538657Y-86743343D01*
X140567421Y-86734617D01*
X140567422Y-86734617D01*
X140567425Y-86734616D01*
X140663031Y-86725200D01*
X141276969Y-86725200D01*
X141372575Y-86734616D01*
G37*
G36*
X101061336Y-86444081D02*
G01*
X101106607Y-86457814D01*
X101148319Y-86480110D01*
X101184883Y-86510117D01*
X101214890Y-86546681D01*
X101237186Y-86588393D01*
X101250919Y-86633664D01*
X101255800Y-86683224D01*
X101255800Y-87496776D01*
X101250919Y-87546336D01*
X101237186Y-87591607D01*
X101214890Y-87633319D01*
X101184883Y-87669883D01*
X101148319Y-87699890D01*
X101106607Y-87722186D01*
X101061336Y-87735919D01*
X101011776Y-87740800D01*
X99648224Y-87740800D01*
X99598664Y-87735919D01*
X99553393Y-87722186D01*
X99511681Y-87699890D01*
X99475117Y-87669883D01*
X99445110Y-87633319D01*
X99422814Y-87591607D01*
X99409081Y-87546336D01*
X99404200Y-87496776D01*
X99404200Y-86683224D01*
X99409081Y-86633664D01*
X99422814Y-86588393D01*
X99445110Y-86546681D01*
X99475117Y-86510117D01*
X99511681Y-86480110D01*
X99553393Y-86457814D01*
X99598664Y-86444081D01*
X99648224Y-86439200D01*
X101011776Y-86439200D01*
X101061336Y-86444081D01*
G37*
G36*
X133770800Y-87010800D02*
G01*
X132469200Y-87010800D01*
X132469200Y-85709200D01*
X133770800Y-85709200D01*
X133770800Y-87010800D01*
G37*
G36*
X134809832Y-85734210D02*
G01*
X134928270Y-85783268D01*
X135034862Y-85854491D01*
X135125509Y-85945138D01*
X135196732Y-86051730D01*
X135245790Y-86170168D01*
X135270800Y-86295902D01*
X135270800Y-86424098D01*
X135245790Y-86549832D01*
X135196732Y-86668270D01*
X135125509Y-86774862D01*
X135034862Y-86865509D01*
X134928270Y-86936732D01*
X134809832Y-86985790D01*
X134684098Y-87010800D01*
X134555902Y-87010800D01*
X134430168Y-86985790D01*
X134311730Y-86936732D01*
X134205138Y-86865509D01*
X134114491Y-86774862D01*
X134043268Y-86668270D01*
X133994210Y-86549832D01*
X133969200Y-86424098D01*
X133969200Y-86295902D01*
X133994210Y-86170168D01*
X134043268Y-86051730D01*
X134114491Y-85945138D01*
X134205138Y-85854491D01*
X134311730Y-85783268D01*
X134430168Y-85734210D01*
X134555902Y-85709200D01*
X134684098Y-85709200D01*
X134809832Y-85734210D01*
G37*
G36*
X127277338Y-84429738D02*
G01*
X127450373Y-84501412D01*
X127606100Y-84605465D01*
X127738535Y-84737900D01*
X127842588Y-84893627D01*
X127914262Y-85066662D01*
X127950800Y-85250354D01*
X127950800Y-85437646D01*
X127914262Y-85621338D01*
X127842588Y-85794373D01*
X127738535Y-85950100D01*
X127606100Y-86082535D01*
X127450373Y-86186588D01*
X127277338Y-86258262D01*
X127093646Y-86294800D01*
X126906354Y-86294800D01*
X126722662Y-86258262D01*
X126549627Y-86186588D01*
X126393900Y-86082535D01*
X126261465Y-85950100D01*
X126157412Y-85794373D01*
X126085738Y-85621338D01*
X126049200Y-85437646D01*
X126049200Y-85250354D01*
X126085738Y-85066662D01*
X126157412Y-84893627D01*
X126261465Y-84737900D01*
X126393900Y-84605465D01*
X126549627Y-84501412D01*
X126722662Y-84429738D01*
X126906354Y-84393200D01*
X127093646Y-84393200D01*
X127277338Y-84429738D01*
G37*
G36*
X106917086Y-84562435D02*
G01*
X107065003Y-84623704D01*
X107198134Y-84712660D01*
X107311340Y-84825866D01*
X107311342Y-84825869D01*
X107311343Y-84825870D01*
X107320668Y-84839826D01*
X107400296Y-84958997D01*
X107461565Y-85106914D01*
X107492800Y-85263946D01*
X107492800Y-85424054D01*
X107461565Y-85581086D01*
X107400296Y-85729003D01*
X107364037Y-85783268D01*
X107313164Y-85859405D01*
X107311340Y-85862134D01*
X107198134Y-85975340D01*
X107065003Y-86064296D01*
X106917086Y-86125565D01*
X106760054Y-86156800D01*
X106599946Y-86156800D01*
X106442914Y-86125565D01*
X106294997Y-86064296D01*
X106161866Y-85975340D01*
X106048660Y-85862134D01*
X106046837Y-85859405D01*
X105995963Y-85783268D01*
X105959704Y-85729003D01*
X105898435Y-85581086D01*
X105867200Y-85424054D01*
X105867200Y-85263946D01*
X105898435Y-85106914D01*
X105959704Y-84958997D01*
X106039332Y-84839826D01*
X106048657Y-84825870D01*
X106048658Y-84825869D01*
X106048660Y-84825866D01*
X106161866Y-84712660D01*
X106294997Y-84623704D01*
X106442914Y-84562435D01*
X106599946Y-84531200D01*
X106760054Y-84531200D01*
X106917086Y-84562435D01*
G37*
G36*
X141701336Y-84730081D02*
G01*
X141746607Y-84743814D01*
X141788319Y-84766110D01*
X141824883Y-84796117D01*
X141854890Y-84832681D01*
X141877186Y-84874393D01*
X141890919Y-84919664D01*
X141895800Y-84969224D01*
X141895800Y-85782776D01*
X141890919Y-85832336D01*
X141877186Y-85877607D01*
X141854890Y-85919319D01*
X141824883Y-85955883D01*
X141788319Y-85985890D01*
X141746607Y-86008186D01*
X141701336Y-86021919D01*
X141651776Y-86026800D01*
X140288224Y-86026800D01*
X140238664Y-86021919D01*
X140193393Y-86008186D01*
X140151681Y-85985890D01*
X140115117Y-85955883D01*
X140085110Y-85919319D01*
X140062814Y-85877607D01*
X140049081Y-85832336D01*
X140044200Y-85782776D01*
X140044200Y-84969224D01*
X140049081Y-84919664D01*
X140062814Y-84874393D01*
X140085110Y-84832681D01*
X140115117Y-84796117D01*
X140151681Y-84766110D01*
X140193393Y-84743814D01*
X140238664Y-84730081D01*
X140288224Y-84725200D01*
X141651776Y-84725200D01*
X141701336Y-84730081D01*
G37*
G36*
X100732575Y-84448616D02*
G01*
X100732578Y-84448617D01*
X100732579Y-84448617D01*
X100761343Y-84457343D01*
X100855254Y-84485830D01*
X100911785Y-84516047D01*
X100968314Y-84546262D01*
X101067411Y-84627589D01*
X101148738Y-84726686D01*
X101169810Y-84766110D01*
X101209170Y-84839746D01*
X101246384Y-84962425D01*
X101258949Y-85090000D01*
X101246384Y-85217575D01*
X101209170Y-85340254D01*
X101209169Y-85340255D01*
X101148738Y-85453314D01*
X101067411Y-85552411D01*
X100968314Y-85633738D01*
X100855254Y-85694170D01*
X100761343Y-85722657D01*
X100732579Y-85731383D01*
X100732578Y-85731383D01*
X100732575Y-85731384D01*
X100636969Y-85740800D01*
X100023031Y-85740800D01*
X99927425Y-85731384D01*
X99927422Y-85731383D01*
X99927421Y-85731383D01*
X99898657Y-85722657D01*
X99804746Y-85694170D01*
X99691686Y-85633738D01*
X99592589Y-85552411D01*
X99511262Y-85453314D01*
X99450831Y-85340255D01*
X99450830Y-85340254D01*
X99413616Y-85217575D01*
X99401051Y-85090000D01*
X99413616Y-84962425D01*
X99450830Y-84839746D01*
X99490190Y-84766110D01*
X99511262Y-84726686D01*
X99592589Y-84627589D01*
X99691686Y-84546262D01*
X99748215Y-84516047D01*
X99804746Y-84485830D01*
X99898657Y-84457343D01*
X99927421Y-84448617D01*
X99927422Y-84448617D01*
X99927425Y-84448616D01*
X100023031Y-84439200D01*
X100636969Y-84439200D01*
X100732575Y-84448616D01*
G37*
G36*
X110825676Y-82713425D02*
G01*
X111035109Y-82800174D01*
X111223594Y-82926116D01*
X111383884Y-83086406D01*
X111509826Y-83274891D01*
X111596575Y-83484324D01*
X111640800Y-83706656D01*
X111640800Y-83933344D01*
X111596575Y-84155676D01*
X111509826Y-84365109D01*
X111383884Y-84553594D01*
X111223594Y-84713884D01*
X111035109Y-84839826D01*
X110907712Y-84892595D01*
X110825676Y-84926575D01*
X110603344Y-84970800D01*
X110376656Y-84970800D01*
X110154324Y-84926575D01*
X110072288Y-84892595D01*
X109944891Y-84839826D01*
X109756406Y-84713884D01*
X109596116Y-84553594D01*
X109470174Y-84365109D01*
X109383425Y-84155676D01*
X109339200Y-83933344D01*
X109339200Y-83706656D01*
X109383425Y-83484324D01*
X109470174Y-83274891D01*
X109596116Y-83086406D01*
X109756406Y-82926116D01*
X109944891Y-82800174D01*
X110154324Y-82713425D01*
X110376656Y-82669200D01*
X110603344Y-82669200D01*
X110825676Y-82713425D01*
G37*
G36*
X121800800Y-84970800D02*
G01*
X119499200Y-84970800D01*
X119499200Y-82669200D01*
X121800800Y-82669200D01*
X121800800Y-84970800D01*
G37*
G36*
X106917086Y-82530435D02*
G01*
X107065003Y-82591704D01*
X107198134Y-82680660D01*
X107311340Y-82793866D01*
X107400296Y-82926997D01*
X107461565Y-83074914D01*
X107492800Y-83231946D01*
X107492800Y-83392054D01*
X107461565Y-83549086D01*
X107400296Y-83697003D01*
X107311340Y-83830134D01*
X107198134Y-83943340D01*
X107065003Y-84032296D01*
X106917086Y-84093565D01*
X106760054Y-84124800D01*
X106599946Y-84124800D01*
X106442914Y-84093565D01*
X106294997Y-84032296D01*
X106161866Y-83943340D01*
X106048660Y-83830134D01*
X105959704Y-83697003D01*
X105898435Y-83549086D01*
X105867200Y-83392054D01*
X105867200Y-83231946D01*
X105898435Y-83074914D01*
X105959704Y-82926997D01*
X106048660Y-82793866D01*
X106161866Y-82680660D01*
X106294997Y-82591704D01*
X106442914Y-82530435D01*
X106599946Y-82499200D01*
X106760054Y-82499200D01*
X106917086Y-82530435D01*
G37*
M02*
